<svg width="255" height="228" viewBox="0 0 255 228" fill="none" xmlns="http://www.w3.org/2000/svg">
<path d="M161.445 139.806V176.006C161.445 181.406 169.845 181.406 169.845 176.006V139.806C169.845 134.406 161.445 134.406 161.445 139.806Z" fill="white"/>
<path d="M165.645 180.906C163.145 180.906 160.645 179.206 160.645 176.006V139.806C160.645 136.606 163.145 134.906 165.645 134.906C168.145 134.906 170.645 136.606 170.645 139.806V176.006C170.645 179.206 168.145 180.906 165.645 180.906ZM165.645 136.606C163.945 136.606 162.245 137.606 162.245 139.906V176.106C162.245 178.406 163.945 179.406 165.645 179.406C167.345 179.406 169.045 178.406 169.045 176.106V139.906C169.045 137.606 167.345 136.606 165.645 136.606Z" fill="#1D319D"/>
<path d="M123.845 211.206V207.506C123.845 202.306 128.045 198.106 133.245 198.106H186.845C192.045 198.106 196.245 202.306 196.245 207.506V211.206" fill="white"/>
<path d="M197.045 211.206H195.445V207.506C195.445 202.806 191.645 198.906 186.845 198.906H133.145C128.445 198.906 124.545 202.706 124.545 207.506V211.206H122.945V207.506C122.945 201.906 127.545 197.406 133.045 197.406H186.845C192.445 197.406 196.945 202.006 196.945 207.506V211.206H197.045Z" fill="#1D319D"/>
<path d="M130.245 211.205C130.245 214.705 127.345 217.605 123.845 217.605C120.345 217.605 117.445 214.705 117.445 211.205C117.445 207.705 120.345 204.805 123.845 204.805C127.445 204.705 130.245 206.305 130.245 211.205Z" fill="white"/>
<path d="M123.845 218.405C119.845 218.405 116.645 215.205 116.645 211.205C116.645 207.205 119.845 204.005 123.845 204.005C128.545 204.005 131.045 206.605 131.045 211.205C131.045 215.105 127.845 218.405 123.845 218.405ZM123.845 205.505C120.745 205.505 118.245 208.005 118.245 211.105C118.245 214.205 120.745 216.705 123.845 216.705C126.945 216.705 129.445 214.205 129.445 211.105C129.445 207.405 127.645 205.505 123.845 205.505Z" fill="#1D319D"/>
<path d="M166.445 211.205C166.445 214.705 163.545 217.605 160.045 217.605C156.545 217.605 153.645 214.705 153.645 211.205C153.645 207.705 156.545 204.805 160.045 204.805C163.545 204.705 166.445 206.305 166.445 211.205Z" fill="white"/>
<path d="M160.045 218.405C156.045 218.405 152.845 215.205 152.845 211.205C152.845 207.205 156.045 204.005 160.045 204.005C164.745 204.005 167.245 206.605 167.245 211.205C167.245 215.105 164.045 218.405 160.045 218.405ZM160.045 205.505C156.945 205.505 154.445 208.005 154.445 211.105C154.445 214.205 156.945 216.705 160.045 216.705C163.145 216.705 165.645 214.205 165.645 211.105C165.645 207.405 163.845 205.505 160.045 205.505Z" fill="#1D319D"/>
<path d="M202.645 211.205C202.645 214.705 199.745 217.605 196.245 217.605C192.745 217.605 189.845 214.705 189.845 211.205C189.845 207.705 192.745 204.805 196.245 204.805C199.745 204.705 202.645 206.305 202.645 211.205Z" fill="white"/>
<path d="M196.245 218.405C192.245 218.405 189.045 215.205 189.045 211.205C189.045 207.205 192.245 204.005 196.245 204.005C200.945 204.005 203.445 206.605 203.445 211.205C203.445 215.105 200.245 218.405 196.245 218.405ZM196.245 205.505C193.145 205.505 190.645 208.005 190.645 211.105C190.645 214.205 193.145 216.705 196.245 216.705C199.345 216.705 201.845 214.205 201.845 211.105C201.845 207.405 200.045 205.505 196.245 205.505Z" fill="#1D319D"/>
<path d="M190.645 144.405H116.145C109.345 144.405 103.845 138.905 103.845 132.105V130.805C103.845 124.005 109.345 118.505 116.145 118.505H190.645C197.445 118.505 202.945 124.005 202.945 130.805V132.105C202.945 138.905 197.445 144.405 190.645 144.405Z" fill="white"/>
<path d="M189.945 145.205H116.745C109.145 145.205 102.945 139.005 102.945 131.405C102.945 123.805 109.145 117.605 116.745 117.605H189.945C197.545 117.605 203.745 123.805 203.745 131.405C203.745 139.005 197.545 145.205 189.945 145.205ZM116.745 119.205C110.045 119.205 104.545 124.705 104.545 131.405C104.545 138.105 110.045 143.605 116.745 143.605H189.945C196.645 143.605 202.145 138.105 202.145 131.405C202.145 124.705 196.645 119.205 189.945 119.205H116.745Z" fill="#1D319D"/>
<path d="M182.945 94.5055H157.545C146.545 94.5055 137.545 85.6055 137.545 74.5055V58.1055C137.545 47.1055 146.445 38.1055 157.545 38.1055H182.945C193.945 38.1055 202.945 47.0055 202.945 58.1055V74.5055C202.945 85.6055 194.045 94.5055 182.945 94.5055Z" fill="white"/>
<path d="M181.945 95.3056H158.745C146.645 95.3056 136.845 85.5056 136.845 73.4056V59.1056C136.845 47.0056 146.645 37.2056 158.745 37.2056H181.945C194.045 37.2056 203.845 47.0056 203.845 59.1056V73.5056C203.745 85.5056 193.945 95.3056 181.945 95.3056ZM158.745 38.9056C147.545 38.9056 138.445 48.0056 138.445 59.2056V73.5056C138.445 84.7056 147.545 93.8056 158.745 93.8056H181.945C193.145 93.8056 202.245 84.7056 202.245 73.5056V59.2056C202.245 48.0056 193.145 38.9056 181.945 38.9056H158.745Z" fill="#1D319D"/>
<path d="M127.745 94.1054C124.945 104.905 77.2449 117.205 74.3449 139.405C71.6449 160.205 78.7449 195.805 72.2449 201.005C63.4449 208.105 55.6449 202.305 53.5449 212.205L99.4449 223.405C99.4449 223.405 105.245 195.105 109.445 152.005C153.245 130.905 165.845 88.0054 165.845 88.0054L127.745 94.1054Z" fill="white"/>
<path d="M100.045 224.506L52.645 212.906L52.845 212.206C54.145 206.106 57.645 205.406 61.645 204.706C64.645 204.106 68.145 203.506 71.745 200.606C75.145 197.806 74.445 184.806 73.645 171.006C73.045 159.906 72.345 148.506 73.545 139.406C75.345 125.706 93.445 115.806 108.045 107.806C117.245 102.806 125.845 98.0056 126.945 94.0056L127.045 93.5056L166.845 87.2056L166.445 88.4056C166.345 88.8056 153.345 131.706 110.045 152.706C105.945 195.106 100.145 223.506 100.145 223.806L100.045 224.506ZM54.545 211.706L98.845 222.506C99.845 217.606 104.945 190.606 108.645 152.006V151.606L109.045 151.406C147.845 132.706 162.145 96.2056 164.645 89.1056L128.345 94.9056C126.745 99.4056 118.845 103.706 108.845 109.206C94.545 117.006 76.845 126.706 75.145 139.706C73.945 148.606 74.645 159.906 75.245 171.006C76.045 185.806 76.845 198.606 72.745 201.906C68.745 205.106 64.945 205.806 61.945 206.306C58.245 206.806 55.745 207.306 54.545 211.706Z" fill="#1D319D"/>
<path d="M127.745 94.1055C124.945 104.905 77.2451 117.205 74.3451 139.405C72.4451 153.605 71.0451 185.205 70.9451 198.805C78.3451 200.105 104.845 204.505 107.145 205.105C108.845 193.505 110.045 169.905 109.345 152.105C153.145 131.005 165.745 88.1055 165.745 88.1055L127.745 94.1055Z" fill="#1D319D"/>
<path d="M170.345 187.606C164.545 188.806 158.645 190.106 152.845 191.406C157.445 198.006 160.445 203.406 159.545 206.406C156.145 217.206 146.545 216.706 150.245 226.106L194.545 209.906C194.545 209.906 189.645 200.306 182.445 184.706C178.145 185.706 174.745 186.706 170.345 187.606Z" fill="white"/>
<path d="M149.845 227.106L149.545 226.406C147.145 220.606 149.745 218.106 152.645 215.206C154.845 213.106 157.345 210.606 158.745 206.106C159.745 203.106 155.445 196.506 152.145 191.806L151.445 190.806L152.545 190.506C158.645 189.106 164.745 187.806 170.045 186.706C172.345 186.206 174.345 185.706 176.345 185.206C178.145 184.806 180.045 184.306 182.145 183.806L182.745 183.706L183.045 184.306C190.145 199.606 195.045 209.306 195.145 209.406L195.545 210.206L149.845 227.106ZM154.245 191.906C159.345 199.406 161.245 203.806 160.345 206.606C158.845 211.506 156.045 214.106 153.845 216.306C151.145 218.906 149.345 220.706 150.745 225.006L193.545 209.306C192.245 206.706 187.945 198.006 182.145 185.506C180.245 185.906 178.645 186.306 176.945 186.706C174.945 187.206 172.845 187.706 170.545 188.206C165.545 189.406 159.945 190.606 154.245 191.906Z" fill="#1D319D"/>
<path d="M188.245 195.106C182.645 180.106 171.645 159.906 162.745 143.306C175.945 129.006 181.245 118.106 177.445 95.8056L145.945 86.7056C149.645 97.2056 116.945 134.006 126.945 154.106C133.645 167.606 145.045 196.406 152.045 207.906C161.545 204.906 178.845 198.106 188.245 195.106Z" fill="#1D319D"/>
<path d="M76.045 206.406C74.645 205.306 73.245 204.206 71.945 203.006C71.445 202.506 70.745 203.306 71.245 203.706C72.645 205.006 74.045 206.206 75.545 207.306C76.045 207.706 76.545 206.806 76.045 206.406Z" fill="#1D319D"/>
<path d="M165.145 208.305C163.645 208.305 162.145 208.105 160.745 207.905C160.045 207.805 159.845 208.805 160.445 208.905C162.045 209.105 163.545 209.305 165.145 209.305C165.845 209.405 165.845 208.305 165.145 208.305Z" fill="#1D319D"/>
<path d="M126.245 137.506C126.145 137.506 126.045 137.506 125.945 137.506C125.545 137.406 125.345 136.906 125.445 136.506C129.645 124.506 135.745 110.506 135.745 110.406C135.945 110.006 136.345 109.806 136.745 110.006C137.145 110.206 137.345 110.606 137.145 111.006C137.045 111.106 131.045 125.106 126.845 137.006C126.845 137.306 126.545 137.506 126.245 137.506Z" fill="white"/>
<path d="M173.645 25.1056C170.345 21.6056 165.645 19.7056 161.045 18.7056C158.445 18.2056 155.745 18.1056 153.245 17.4056C149.245 16.2056 147.345 13.3056 145.245 9.90557C142.545 5.30557 134.745 8.60557 137.545 13.3056C137.745 13.6056 137.845 13.8056 138.045 14.1056C137.845 14.2056 137.645 14.3056 137.445 14.5056C136.245 15.0056 135.245 16.0056 134.445 17.8056C134.245 18.1056 134.145 18.4056 134.045 18.8056C131.745 18.9056 129.445 20.6056 129.545 23.5056C130.545 43.5056 153.545 58.6056 171.645 47.4056C179.545 42.3056 179.845 31.6056 173.645 25.1056Z" fill="#1D319D"/>
<path d="M103.845 59.6053C93.945 72.9053 90.145 53.5053 73.645 51.1053C67.145 50.2053 63.745 50.7053 62.145 51.8053C67.345 52.0053 72.645 54.2053 76.745 57.1053C82.445 61.2053 84.145 68.0053 83.645 74.7053C83.645 75.1053 83.545 75.4053 83.445 75.7053C85.445 82.2053 93.145 89.7053 103.945 88.0053C125.845 84.6053 131.545 56.9053 131.545 56.9053L140.145 31.7053C123.945 31.0053 113.645 46.3053 103.845 59.6053Z" fill="white"/>
<path d="M100.745 89.1054C91.045 89.1054 84.345 81.8054 82.545 76.0054L82.445 75.7054L82.545 75.4054C82.645 75.1054 82.745 74.9054 82.745 74.7054C83.145 69.4054 82.245 62.2054 76.145 57.8054C71.745 54.6054 66.645 52.7054 62.045 52.6054L59.645 52.5054L61.645 51.1054C63.745 49.7054 67.845 49.4054 73.745 50.2054C81.045 51.3054 85.845 55.5054 89.745 58.9054C92.845 61.5054 95.245 63.6054 97.645 63.4054C99.345 63.2054 101.145 61.8054 103.145 59.1054L104.845 56.8054C114.045 44.3054 124.545 30.2054 139.945 30.9054H141.045L132.145 57.1054C132.145 57.3054 126.145 85.2054 103.945 88.7054C102.845 89.0054 101.845 89.1054 100.745 89.1054ZM84.145 75.8054C86.145 81.6054 93.345 88.9054 103.645 87.3054C124.745 84.0054 130.445 57.1054 130.545 56.8054L138.845 32.5054C124.745 32.5054 115.245 45.4054 106.145 57.8054L104.445 60.1054C102.145 63.2054 100.045 64.8054 97.845 65.0054C94.745 65.3054 91.945 62.9054 88.745 60.2054C84.945 56.9054 80.345 52.9054 73.545 51.9054C70.145 51.4054 67.645 51.4054 65.945 51.5054C69.745 52.3054 73.645 54.0054 77.145 56.5054C82.345 60.3054 84.945 66.8054 84.445 74.8054C84.345 75.1054 84.245 75.4054 84.145 75.8054Z" fill="#1D319D"/>
<path d="M103.845 59.6054C100.545 64.3054 92.045 56.9054 87.345 56.5054C87.545 63.5054 89.345 74.8055 85.145 79.6055C88.445 84.8055 95.145 89.4054 103.745 88.0054C125.645 84.6054 131.345 56.9054 131.345 56.9054L139.945 31.7054C121.945 30.7054 113.345 46.1054 103.845 59.6054Z" fill="#52DDAE"/>
<path d="M100.745 89.1053C93.1451 89.1053 87.4451 84.6053 84.5451 80.1053L84.2451 79.6053L84.6451 79.2053C87.7451 75.6053 87.2451 67.6053 86.8451 61.2053C86.7451 59.6053 86.6451 58.0053 86.6451 56.6053V55.7053L87.5451 55.8053C89.3451 56.0053 91.4451 57.0053 93.7451 58.1053C98.3451 60.3053 101.645 61.6053 103.345 59.3053C104.245 58.0053 105.245 56.6053 106.145 55.3053C114.645 42.9053 123.545 30.1053 140.145 31.1053L141.145 31.2053L132.245 57.4053C132.245 57.6053 126.245 85.5053 104.045 89.0053C102.845 89.0053 101.745 89.1053 100.745 89.1053ZM86.1451 79.7053C89.3451 84.3053 95.4451 88.6053 103.645 87.3053C124.745 84.0053 130.445 57.1053 130.545 56.8053L138.845 32.5053C123.745 32.2053 115.745 43.8053 107.245 56.1053C106.345 57.5053 105.345 58.8053 104.445 60.1053C101.945 63.7053 97.1451 61.4053 92.9451 59.4053C91.2451 58.6053 89.5451 57.8053 88.2451 57.4053C88.2451 58.5053 88.3451 59.7053 88.4451 61.0053C88.7451 67.4053 89.2451 75.4053 86.1451 79.7053Z" fill="#52DDAE"/>
<path d="M125.145 96.9053C141.645 97.0053 165.445 101.105 181.945 101.905C181.445 92.8054 172.945 54.9054 164.545 46.9054C154.845 37.7054 150.145 32.6054 139.945 31.8054C130.845 31.1054 118.445 43.3054 123.845 67.8054C128.645 89.3054 126.345 88.5053 125.145 96.9053Z" fill="#52DDAE"/>
<path d="M123.845 68.5053C123.545 68.5053 123.345 68.4053 123.145 68.1053C123.045 68.0053 117.445 59.2053 123.145 50.5053C123.345 50.1053 123.845 50.0053 124.245 50.3053C124.645 50.5053 124.745 51.0053 124.445 51.4053C119.345 59.2053 124.245 66.9053 124.445 67.2053C124.645 67.6053 124.545 68.1053 124.245 68.3053C124.145 68.5053 124.045 68.5053 123.845 68.5053Z" fill="white"/>
<path d="M73.1451 92.3056L29.2451 62.3056L55.1451 48.6056C56.6451 47.8056 58.4451 47.9056 59.8451 48.9056L95.2451 73.1056C98.1451 75.1056 97.8451 79.3056 94.8451 81.0056L73.1451 92.3056Z" fill="#1D319D"/>
<path d="M73.145 92.3057L29.245 62.3057L1.44504 59.5057C0.14504 59.4057 -0.554958 61.1057 0.545042 61.9057L39.845 89.3057C39.845 89.3057 39.945 89.4057 40.045 89.5057C41.645 90.6057 43.545 91.2057 45.545 91.3057L73.145 92.3057Z" fill="#1D319D"/>
<path d="M58.645 85.6056L30.645 66.5056L12.945 64.7056C12.045 64.6056 11.645 65.7056 12.345 66.2056L37.345 83.7056C37.345 83.7056 37.445 83.8056 37.545 83.8056C38.545 84.5056 39.745 84.9056 41.045 84.9056L58.645 85.6056Z" fill="white"/>
<path d="M69.3451 86.4056C69.2451 86.4056 69.0451 86.4056 68.9451 86.3056L63.6451 83.2056C63.2451 83.0056 63.1451 82.5056 63.3451 82.1056C63.5451 81.7056 64.0451 81.6056 64.4451 81.8056L69.7451 84.9056C70.1451 85.1056 70.2451 85.6056 70.0451 86.0056C69.8451 86.3056 69.6451 86.4056 69.3451 86.4056Z" fill="white"/>
<path d="M69.145 78.6057C68.945 78.6057 68.845 78.6057 68.745 78.5057L61.245 73.5057C60.845 73.3057 60.745 72.8057 61.045 72.4057C61.245 72.0057 61.745 71.9057 62.145 72.2057L69.645 77.2057C70.045 77.4057 70.145 77.9057 69.845 78.3057C69.645 78.5057 69.445 78.6057 69.145 78.6057Z" fill="white"/>
<path d="M87.345 76.7058C87.145 76.7058 87.045 76.7058 86.945 76.6058L79.445 71.6058C79.045 71.4058 78.945 70.9058 79.245 70.5058C79.445 70.1058 79.945 70.0058 80.345 70.3058L87.845 75.3058C88.245 75.5058 88.345 76.0058 88.045 76.4058C87.845 76.6058 87.645 76.7058 87.345 76.7058Z" fill="white"/>
<path d="M48.9451 69.8054C48.7451 69.8054 48.6451 69.8054 48.5451 69.7054L41.0451 64.7054C40.6451 64.5054 40.5451 64.0054 40.8451 63.6054C41.0451 63.2054 41.5451 63.1054 41.9451 63.4054L49.4451 68.4054C49.8451 68.6054 49.9451 69.1054 49.6451 69.5054C49.4451 69.7054 49.1451 69.8054 48.9451 69.8054Z" fill="white"/>
<path d="M54.7451 68.5055C54.6451 68.5055 54.4451 68.5055 54.3451 68.4055L48.8451 65.1055C48.4451 64.9055 48.3451 64.4055 48.5451 64.0055C48.7451 63.6055 49.2451 63.5055 49.6451 63.7055L55.1451 67.0055C55.5451 67.2055 55.6451 67.7055 55.4451 68.1055C55.3451 68.4055 55.0451 68.5055 54.7451 68.5055Z" fill="white"/>
<path d="M216.745 57.0054C213.445 59.6054 210.445 61.4054 207.545 62.6054C210.345 70.3054 212.945 76.1054 216.445 83.5054C225.445 78.1054 230.945 72.4054 230.945 72.4054L236.745 51.1054C236.745 51.1054 230.945 45.5054 216.745 57.0054Z" fill="white"/>
<path d="M216.145 84.6054L215.745 83.8054C212.345 76.7054 209.645 70.6054 206.745 62.8054L206.445 62.1054L207.145 61.8054C210.045 60.7054 213.045 58.8054 216.145 56.4054C230.745 44.6054 236.945 50.3054 237.145 50.5054L237.445 50.8054L231.445 72.8054L231.345 72.9054C231.145 73.1054 225.745 78.7054 216.645 84.1054L216.145 84.6054ZM208.545 63.0054C211.145 70.1054 213.645 75.6054 216.845 82.3054C224.445 77.6054 229.445 72.8054 230.245 72.0054L235.845 51.4054C234.445 50.6054 228.745 48.3054 217.245 57.6054C214.345 60.0054 211.345 61.8054 208.545 63.0054Z" fill="#1D319D"/>
<path d="M215.745 73.3056C213.945 69.2056 212.145 65.2056 210.445 61.2056C196.345 68.6056 186.745 59.9056 179.845 53.4056C171.945 46.0056 161.145 31.7056 139.945 31.7056C139.945 31.7056 159.245 53.9056 161.445 60.4056C163.545 66.8056 171.445 90.8056 196.245 90.8056C206.245 90.8056 214.145 87.3056 219.845 83.3056C218.545 80.0056 217.245 76.6056 215.745 73.3056Z" fill="#52DDAE"/>
<path d="M196.245 91.6054C179.445 91.6054 167.445 81.2054 160.645 60.7054C158.545 54.4054 139.545 32.5054 139.345 32.3054L138.245 31.0054H139.945C139.945 31.0054 139.945 31.0054 140.045 31.0054C158.545 31.0054 169.145 41.7054 176.945 49.5054C178.145 50.7054 179.345 51.9054 180.445 52.9054C187.145 59.2054 196.445 67.8054 210.145 60.5054L210.945 60.1054L211.245 60.9054C212.345 63.6054 213.545 66.2054 214.645 68.8054C215.245 70.2054 215.845 71.6054 216.445 73.0054C217.945 76.5054 219.345 80.1054 220.545 83.1054L220.745 83.7054L220.245 84.1054C213.045 89.1054 204.945 91.6054 196.245 91.6054ZM141.745 32.5054C145.945 37.5054 160.345 54.4054 162.245 60.1054C168.845 80.0054 180.245 90.0054 196.345 90.0054C204.545 90.0054 212.145 87.7054 219.045 83.0054C217.945 80.2054 216.645 76.9054 215.245 73.6054C214.645 72.2054 214.045 70.8054 213.445 69.4054C212.445 67.1054 211.345 64.6054 210.345 62.2054C196.045 69.3054 186.145 60.1054 179.545 53.9054C178.445 52.9054 177.245 51.7054 176.045 50.4054C168.445 43.2054 158.545 33.2054 141.745 32.5054Z" fill="#52DDAE"/>
<path d="M176.445 82.9054C176.245 82.9054 176.145 82.9054 176.045 82.8054C175.645 82.6054 167.245 76.7054 162.145 64.7054C161.945 64.3054 162.145 63.8054 162.545 63.7054C162.945 63.5054 163.445 63.7054 163.545 64.1054C168.345 75.6054 176.745 81.4054 176.845 81.5054C177.245 81.7054 177.345 82.2054 177.045 82.6054C176.945 82.8054 176.645 82.9054 176.445 82.9054Z" fill="#1D319D"/>
<path d="M234.445 74.4055L223.245 71.3055C221.645 70.9055 220.745 69.2055 221.145 67.6055L227.545 44.3055C227.945 42.7055 229.645 41.8055 231.245 42.2055L242.445 45.3055C244.045 45.7055 244.945 47.4055 244.545 49.0055L238.145 72.3055C237.745 73.9055 236.045 74.8055 234.445 74.4055Z" fill="#1D319D"/>
<path d="M233.445 71.3052L225.745 69.2052C224.145 68.8052 223.245 67.1052 223.645 65.5052L228.745 47.0052C229.145 45.4052 230.845 44.5052 232.445 44.9052L240.145 47.0052C241.745 47.4052 242.645 49.1052 242.245 50.7052L237.145 69.2052C236.645 70.8052 235.045 71.8052 233.445 71.3052Z" fill="white"/>
<path d="M220.345 54.3051C227.045 49.4051 233.845 49.0051 236.145 52.4051C238.445 55.8051 229.845 56.1051 229.845 56.1051C229.845 56.1051 225.545 67.9051 221.145 67.5051" fill="white"/>
<path d="M221.345 68.3053C221.245 68.3053 221.145 68.3053 221.145 68.3053C220.745 68.3053 220.345 67.9053 220.445 67.5053C220.445 67.1053 220.845 66.7053 221.245 66.8053C224.045 67.0053 227.545 60.2053 229.145 55.9053L229.345 55.4053H229.845C231.945 55.3053 235.245 54.8053 235.745 53.8053C235.745 53.7053 235.945 53.5053 235.545 53.0053C234.945 52.1053 233.845 51.4052 232.445 51.2052C229.245 50.7052 224.845 52.1052 220.845 55.1052C220.445 55.4052 220.045 55.3053 219.745 54.9053C219.445 54.5053 219.545 54.1053 219.945 53.8053C224.345 50.6053 229.045 49.0052 232.745 49.6052C234.545 49.9052 236.045 50.8053 236.945 52.0053C237.745 53.1053 237.545 53.9053 237.245 54.5053C236.245 56.4053 232.145 56.8053 230.545 56.9053C229.545 59.3053 225.745 68.3053 221.345 68.3053Z" fill="#1D319D"/>
<path d="M243.045 54.3057C241.145 54.2057 238.445 57.1057 239.745 59.4057C239.745 59.4057 237.245 61.7057 238.345 64.4057C238.345 64.4057 236.045 66.0057 237.045 69.1057C238.145 72.1057 240.845 73.1057 242.945 64.4057C245.045 55.7057 243.045 54.3057 243.045 54.3057Z" fill="white"/>
<path d="M239.145 72.0056C237.945 72.0056 236.945 71.0056 236.345 69.3056C235.545 66.9056 236.545 65.0056 237.445 64.1056C236.845 61.9056 238.145 60.0056 238.845 59.2056C238.445 58.1056 238.645 56.9056 239.345 55.8056C240.245 54.3056 241.745 53.4056 243.145 53.5056H243.345L243.545 53.6056C243.945 53.9056 245.945 55.8056 243.845 64.5056C242.645 69.3056 241.145 71.8056 239.245 71.9056C239.245 72.0056 239.245 72.0056 239.145 72.0056ZM242.745 55.2056C242.145 55.3056 241.245 55.9056 240.745 56.8056C240.445 57.3056 240.045 58.2056 240.545 59.1056L240.845 59.6056L240.345 60.0056C240.245 60.1056 238.245 62.0056 239.145 64.1056L239.445 64.7056L238.945 65.1056C238.845 65.1056 237.145 66.4056 237.945 68.8056C238.245 69.8056 238.845 70.4056 239.245 70.4056C239.445 70.4056 240.845 70.1056 242.345 64.2056C243.845 58.0056 243.045 55.8056 242.745 55.2056Z" fill="#1D319D"/>
<path d="M242.945 59.9055C242.445 59.3055 241.845 58.9055 241.145 58.7055C240.445 58.5055 240.245 59.5055 240.845 59.7055C241.445 59.9055 241.845 60.2055 242.145 60.6055C242.545 61.2055 243.345 60.4055 242.945 59.9055Z" fill="#1D319D"/>
<path d="M241.645 65.3054C241.045 64.6054 240.145 64.2054 239.145 64.0054C238.445 63.9054 238.445 65.0054 239.145 65.1054C239.845 65.2054 240.445 65.5054 240.845 66.1054C241.345 66.6054 242.145 65.9054 241.645 65.3054Z" fill="#1D319D"/>
<path d="M79.8451 53.0056C69.5451 47.1056 47.2451 49.1056 51.9451 56.1056C51.9451 56.1056 49.6451 59.6056 54.4451 60.1056C54.4451 60.1056 53.5451 63.2056 58.4451 63.3056C59.6451 63.3056 64.2451 61.5056 68.2451 61.1056C67.8451 62.2056 67.5451 62.8056 67.5451 62.8056C67.5451 62.8056 62.1451 65.0056 63.1451 67.3056C64.0451 69.4056 73.3451 67.2056 77.1451 63.8056C80.4451 64.8056 83.6451 64.0056 85.5451 63.3056" fill="white"/>
<path d="M65.4451 68.9054C64.9451 68.9054 64.4451 68.9054 64.0451 68.8054C63.2451 68.6054 62.6451 68.2054 62.4451 67.6054C62.2451 67.0054 62.2451 66.4054 62.4451 65.8054C63.2451 64.0054 66.0451 62.6054 66.9451 62.2054C66.9451 62.2054 66.9451 62.1054 67.0451 62.1054C65.1451 62.4054 63.2451 63.0054 61.6451 63.4054C59.9451 63.9054 59.0451 64.1054 58.4451 64.1054C56.3451 64.0054 54.9451 63.5054 54.1451 62.4054C53.7451 61.9054 53.6451 61.3054 53.5451 60.8054C52.1451 60.5054 51.2451 60.0054 50.8451 59.1054C50.3451 58.0054 50.7451 56.8054 51.0451 56.2054C50.2451 54.7054 50.3451 53.2054 51.4451 52.1054C55.6451 47.6054 72.0451 47.8054 80.2451 52.4054C80.6451 52.6054 80.7451 53.1054 80.5451 53.5054C80.3451 53.9054 81.4451 54.8054 81.0451 54.6054C73.1451 50.1054 56.0451 49.5054 52.6451 53.2054C52.1451 53.7054 51.7451 54.5054 52.6451 55.8054L52.9451 56.2054L52.6451 56.6054C52.4451 56.9054 52.0451 57.8054 52.3451 58.4054C52.6451 59.0054 53.7451 59.3054 54.5451 59.3054L55.4451 59.4054L55.1451 60.3054C55.1451 60.3054 54.9451 60.9054 55.4451 61.5054C55.9451 62.1054 56.9451 62.5054 58.5451 62.5054C58.9451 62.5054 60.1451 62.2054 61.2451 61.9054C63.1451 61.4054 65.8451 60.6054 68.2451 60.4054L69.5451 60.3054L69.0451 61.5054C68.6451 62.7054 68.2451 63.3054 68.2451 63.3054L68.1451 63.5054H67.8451C66.5451 64.0054 64.3451 65.3054 63.8451 66.4054C63.7451 66.6054 63.7451 66.8054 63.8451 67.0054C63.8451 67.0054 63.9451 67.1054 64.3451 67.2054C66.9451 67.7054 73.5451 65.9054 76.5451 63.2054L76.8451 62.9054L77.2451 63.0054C80.3451 64.0054 83.5451 63.1054 85.1451 62.5054C85.5451 62.4054 86.0451 62.6054 86.1451 63.0054C86.2451 63.4054 86.0451 63.9054 85.6451 64.0054C83.5451 64.8054 80.3451 65.5054 77.1451 64.6054C74.3451 67.1054 68.7451 68.9054 65.4451 68.9054Z" fill="#1D319D"/>
<path d="M65.4451 55.5054C61.7451 55.7054 58.3451 56.9054 55.3451 59.0054C54.7451 59.4054 55.3451 60.3054 55.8451 59.9054C58.7451 57.9054 61.9451 56.8054 65.4451 56.5054C66.1451 56.5054 66.1451 55.5054 65.4451 55.5054Z" fill="#1D319D"/>
<path d="M60.2452 51.1055C57.2452 51.3055 54.6452 52.7055 52.9452 55.2055C52.5452 55.8055 53.4452 56.3055 53.8452 55.7055C55.3452 53.5055 57.6452 52.2055 60.2452 52.1055C60.9452 52.2055 60.9452 51.1055 60.2452 51.1055Z" fill="#1D319D"/>
<path d="M218.945 43.4054C218.845 43.4054 218.645 43.4054 218.545 43.3054C218.145 43.1054 218.045 42.6053 218.245 42.2053C221.445 36.6053 226.045 34.3053 229.345 33.5053C234.445 32.2053 239.445 33.2054 242.145 34.8054C242.545 35.0054 242.645 35.5054 242.445 35.9054C242.245 36.3054 241.745 36.4053 241.345 36.2053C238.945 34.7053 234.345 33.8053 229.745 35.0053C226.745 35.8053 222.545 37.8054 219.645 43.0054C219.545 43.3054 219.245 43.4054 218.945 43.4054Z" fill="#1D319D"/>
<path d="M212.545 38.4055C212.445 38.4055 212.245 38.4056 212.145 38.3055C211.745 38.1055 211.645 37.6055 211.845 37.2055C216.345 29.3055 222.945 26.3055 227.645 25.3055C233.445 24.0055 239.745 24.9055 243.445 27.5055C243.845 27.8055 243.845 28.2055 243.645 28.6055C243.345 29.0055 242.945 29.0055 242.545 28.8055C239.745 26.8055 234.245 25.5055 228.045 26.9055C223.645 27.9055 217.445 30.6055 213.245 38.1055C213.145 38.2055 212.845 38.4055 212.545 38.4055Z" fill="#1D319D"/>
<path d="M251.145 51.0054C252.802 51.0054 254.145 49.6622 254.145 48.0054C254.145 46.3485 252.802 45.0054 251.145 45.0054C249.488 45.0054 248.145 46.3485 248.145 48.0054C248.145 49.6622 249.488 51.0054 251.145 51.0054Z" fill="#1D319D"/>
<path d="M24.645 12.9053L9.14502 42.1053L27.145 48.0053L29.245 71.2053L40.245 31.9053L24.645 31.5053V12.9053Z" fill="#FF20B5"/>
<path d="M53.1449 7.70557L43.5449 20.5056L51.6449 24.6056L50.9449 35.9056L59.1449 17.9056L51.7449 16.6056L53.1449 7.70557Z" fill="#FF20B5"/>
<path d="M65.7451 41.2056C65.4451 41.2056 65.2451 41.1056 65.0451 40.8056L61.6451 35.3056C61.4451 34.9056 61.5451 34.4056 61.8451 34.2056C62.2451 34.0056 62.7451 34.1056 62.9451 34.4056L66.3451 39.9056C66.5451 40.3056 66.4451 40.8056 66.1451 41.0056C66.0451 41.1056 65.8451 41.2056 65.7451 41.2056Z" fill="#52DDAE"/>
<path d="M61.245 40.2057C60.945 40.2057 60.745 40.1057 60.545 39.8057C60.345 39.4057 60.445 38.9057 60.745 38.7057L66.245 35.3057C66.645 35.1057 67.145 35.2057 67.345 35.5057C67.545 35.9057 67.445 36.4057 67.145 36.6057L61.645 40.0057C61.545 40.1057 61.445 40.2057 61.245 40.2057Z" fill="#52DDAE"/>
<path d="M9.64497 8.60537C9.24497 8.60537 8.84497 8.30537 8.84497 7.90537C8.84497 7.50537 9.14497 7.10537 9.54497 7.10537L21.745 6.50537C22.145 6.50537 22.545 6.80537 22.545 7.20537C22.545 7.60537 22.245 8.00537 21.845 8.00537L9.64497 8.60537Z" fill="#52DDAE"/>
<path d="M16.045 14.3055C15.645 14.3055 15.245 14.0055 15.245 13.6055L14.645 1.40547C14.645 1.00547 14.945 0.605469 15.345 0.605469C15.745 0.605469 16.145 0.90547 16.145 1.30547L16.845 13.5055C16.845 13.9055 16.445 14.3055 16.045 14.3055Z" fill="#52DDAE"/>
<path d="M145.745 12.6056C145.545 11.8056 145.245 11.0056 144.945 10.2056C144.945 10.2056 144.945 10.2056 144.945 10.1056C141.445 2.40555 133.045 -1.29445 126.145 1.90555C122.845 3.40555 120.645 6.40556 119.545 9.80556C118.345 13.6056 119.045 17.7056 119.945 21.5056C122.045 30.0056 129.445 35.0056 138.745 29.7055C140.845 28.5055 142.645 26.8055 143.945 24.7055C147.345 24.2055 149.845 21.6056 150.645 18.8056C151.645 15.7056 149.545 12.7056 145.745 12.6056Z" fill="white"/>
<path d="M131.445 32.7054C129.845 32.7054 128.345 32.4054 126.945 31.8054C123.245 30.2054 120.445 26.5054 119.245 21.7054C118.345 18.2054 117.545 13.7054 118.845 9.60535C120.045 5.70535 122.545 2.70536 125.845 1.20536C129.145 -0.294643 132.845 -0.394642 136.345 0.905357C140.345 2.40536 143.745 5.60536 145.645 9.80536C145.945 10.5054 146.145 11.1054 146.445 11.8054C148.245 12.0054 149.845 12.8054 150.745 14.2054C151.745 15.6054 152.045 17.4054 151.445 19.1054C150.645 21.8054 148.145 24.8054 144.445 25.5054C143.045 27.6054 141.245 29.3054 139.145 30.4054C136.545 31.9054 133.945 32.7054 131.445 32.7054ZM131.345 1.60535C129.645 1.60535 128.045 2.00536 126.445 2.70536C123.545 4.00536 121.445 6.60535 120.345 10.1054C119.145 13.8054 119.945 17.9054 120.845 21.3054C121.945 25.6054 124.445 28.9054 127.645 30.3054C130.845 31.7054 134.545 31.2054 138.445 29.0054C140.445 27.9054 142.145 26.3054 143.345 24.3054L143.545 24.0054H143.945C147.145 23.6054 149.345 21.0054 150.045 18.7054C150.445 17.5054 150.245 16.2054 149.545 15.2054C148.745 14.1054 147.445 13.5054 145.845 13.4054H145.245L145.045 12.8054C144.845 12.0054 144.545 11.2054 144.245 10.5054C142.545 6.70536 139.445 3.70536 135.745 2.40536C134.345 1.90536 132.745 1.60535 131.345 1.60535Z" fill="#1D319D"/>
<path d="M135.945 1.60525C132.745 0.505254 129.245 0.405257 126.145 1.90526C121.845 3.90526 117.045 6.80526 115.845 9.50526C114.645 12.2053 117.045 14.7053 118.945 14.0053C124.645 10.8053 131.045 6.70525 135.945 1.60525Z" fill="#1D319D"/>
<path d="M130.699 17.8673C131.111 17.4212 131.084 16.7252 130.638 16.3129C130.192 15.9005 129.496 15.9278 129.084 16.3739C128.671 16.82 128.699 17.5159 129.145 17.9283C129.591 18.3407 130.287 18.3134 130.699 17.8673Z" fill="#1D319D"/>
<path d="M124.845 24.3054C124.145 22.0054 123.845 19.7054 123.745 17.4054C123.745 16.7054 124.745 16.7054 124.845 17.4054C124.845 19.7054 125.245 21.9054 125.845 24.1054C126.045 24.6054 125.045 25.0054 124.845 24.3054Z" fill="#1D319D"/>
<path d="M141.345 19.6051C142.045 17.2051 144.245 15.6051 146.745 15.7051C147.445 15.7051 147.445 16.8051 146.745 16.8051C144.745 16.7051 142.845 17.9051 142.345 19.9051C142.145 20.5051 141.145 20.2051 141.345 19.6051Z" fill="#1D319D"/>
<path d="M142.545 14.9053C140.745 18.5053 120.245 8.10528 120.645 7.30527C121.845 4.90527 123.745 3.00527 126.145 1.90527C133.045 -1.29473 144.145 1.60527 146.045 13.0053C146.045 13.0053 143.545 14.2053 142.545 14.9053Z" fill="#1D319D"/>
</svg>
