<svg width="18" height="16" viewBox="0 0 18 16" fill="none" xmlns="http://www.w3.org/2000/svg">
<path d="M0 1.14286C0 0.511675 0.50368 0 1.125 0H16.875C17.4963 0 18 0.511675 18 1.14286C18 1.77404 17.4963 2.28571 16.875 2.28571H1.125C0.50368 2.28571 0 1.77404 0 1.14286Z" fill="#333333"/>
<path d="M0 14.8571C0 14.226 0.50368 13.7143 1.125 13.7143H16.875C17.4963 13.7143 18 14.226 18 14.8571C18 15.4883 17.4963 16 16.875 16H1.125C0.50368 16 0 15.4883 0 14.8571Z" fill="#333333"/>
<path d="M1.125 6.85714C0.50368 6.85714 0 7.36882 0 8C0 8.63118 0.50368 9.14286 1.125 9.14286H16.875C17.4963 9.14286 18 8.63118 18 8C18 7.36882 17.4963 6.85714 16.875 6.85714H1.125Z" fill="#333333"/>
</svg>
