<svg width="471" height="254" viewBox="0 0 471 254" fill="none" xmlns="http://www.w3.org/2000/svg">
<path d="M123.2 197.9C115.1 197.9 108.6 191.3 108.6 183.3V162.5C108.6 154.4 115.2 147.9 123.2 147.9H171.7C179.8 147.9 186.3 154.5 186.3 162.5V183.3C186.3 191.4 179.7 197.9 171.7 197.9H123.2Z" fill="white"/>
<path d="M171.7 148.6C179.3 148.6 185.6 154.8 185.6 162.5V183.3C185.6 190.9 179.4 197.2 171.7 197.2H123.2C115.6 197.2 109.3 191 109.3 183.3V162.5C109.3 154.9 115.5 148.6 123.2 148.6H171.7ZM171.7 147.1H123.2C114.7 147.1 107.8 154 107.8 162.5V183.3C107.8 191.8 114.7 198.7 123.2 198.7H171.7C180.2 198.7 187.1 191.8 187.1 183.3V162.5C187 154 180.2 147.1 171.7 147.1Z" fill="#1D319D"/>
<path d="M91.4 221.7C90.5 217.8 90 213.9 90 209.9C90 177.2 108.7 158.5 141.4 158.5C169.7 158.5 192.8 181.6 192.8 209.9C192.8 213.9 192.3 217.8 191.4 221.7H91.4Z" fill="white"/>
<path d="M141.5 159.3C169.4 159.3 192.2 182 192.2 210C192.2 213.7 191.8 217.4 191 221H92.1001C91.3001 217.4 90.9001 213.7 90.9001 210C90.9001 195.2 94.9001 182.7 102.6 174.1C111.2 164.3 124.3 159.3 141.5 159.3ZM141.5 157.8C104.2 157.8 89.3 181.2 89.3 210C89.3 214.3 89.8 218.5 90.8 222.5H192.1C193.1 218.5 193.6 214.3 193.6 210C193.6 181.1 170.3 157.8 141.5 157.8Z" fill="#1D319D"/>
<path d="M84.6001 226.4C82.7001 226.4 81.1001 224.8 81.1001 222.9C81.1001 221 82.7001 219.4 84.6001 219.4H275.1C277 219.4 278.6 221 278.6 222.9C278.6 224.8 277 226.4 275.1 226.4H84.6001Z" fill="white"/>
<path d="M275.1 220.1C276.6 220.1 277.9 221.3 277.9 222.9C277.9 224.5 276.7 225.7 275.1 225.7H84.6C83.1 225.7 81.8 224.5 81.8 222.9C81.8 221.3 83 220.1 84.6 220.1H275.1ZM275.1 218.6H84.6C82.3 218.6 80.3 220.5 80.3 222.9C80.3 225.2 82.2 227.2 84.6 227.2H275.1C277.4 227.2 279.4 225.3 279.4 222.9C279.3 220.5 277.4 218.6 275.1 218.6Z" fill="#1D319D"/>
<path d="M143.2 107.1C139.5 121.9 136.8 150.9 154.8 153.5C172.8 156.2 218.9 158.5 218.9 158.5C218.9 158.5 228.2 213.5 232.9 223.8H280C280 223.8 279.2 216.5 271.8 213.5C264.4 210.5 259.9 205.5 257.9 170.5C255.9 135.5 254.7 118.4 225 113.9C195.1 109.3 143.2 107.1 143.2 107.1Z" fill="#1D319D"/>
<path d="M280.7 224.6H232.3L232.1 224.2C227.7 214.4 219.3 165.6 218.2 159.3C212.7 159 171.4 156.8 154.7 154.3C150.3 153.6 146.8 151.4 144.3 147.7C137.9 138.1 139.3 119.8 142.5 107L142.6 106.4H143.2C143.7 106.4 195.6 108.7 224.9 113.2C255.5 117.9 256.5 136.6 258.5 170.5C260.5 205.7 265.1 210.1 271.9 212.8C279.7 215.9 280.6 223.4 280.6 223.7L280.7 224.6ZM233.3 223.1H279C278.6 221.2 276.9 216.4 271.4 214.2C263.8 211.2 259.1 206.7 257 170.5C255 136.3 254.1 119.1 224.7 114.6C197.1 110.4 149.7 108.1 143.7 107.8C140.7 120.3 139.4 137.8 145.4 146.8C147.6 150.2 150.8 152.2 154.8 152.7C172.6 155.3 218.3 157.7 218.8 157.7H219.4L219.5 158.3C219.6 158.9 228.6 211.9 233.3 223.1Z" fill="#1D319D"/>
<path d="M271.6 213.5C268.4 212.2 265.8 210.6 263.7 206.4C252 207.3 240.3 208.1 228.6 209.2C230.1 215.8 231.6 221.2 232.8 223.8H279.9C279.9 223.8 279.1 216.5 271.6 213.5Z" fill="white"/>
<path d="M280.7 224.6H232.3L232.1 224.2C231 221.8 229.6 216.8 227.9 209.4L227.7 208.6L228.6 208.5C240.1 207.5 251.3 206.6 263.7 205.7H264.2L264.4 206.1C266.4 210 268.7 211.6 271.9 212.8C279.7 215.9 280.6 223.4 280.6 223.7L280.7 224.6ZM233.3 223.1H279C278.6 221.2 276.9 216.4 271.4 214.2C268.1 212.9 265.5 211.2 263.3 207.2C251.4 208.1 240.5 208.9 229.5 209.9C231 216.3 232.3 220.7 233.3 223.1Z" fill="#1D319D"/>
<path d="M266 207.4C264.3 209.2 262.4 210.6 260.2 211.7C259.6 212 260.1 212.8 260.7 212.6C263 211.5 265 210 266.7 208.1C267.2 207.6 266.5 206.9 266 207.4Z" fill="#1D319D"/>
<path d="M267.6 209.3L262.8 214.1C262.3 214.6 263.1 215.3 263.5 214.8C265.1 213.2 266.7 211.6 268.3 210C268.8 209.6 268.1 208.9 267.6 209.3Z" fill="#1D319D"/>
<path d="M130.2 107.1C126.5 121.9 123.8 150.9 141.8 153.5C159.8 156.2 205.9 158.5 205.9 158.5C205.9 158.5 215.2 213.5 219.9 223.8H267C267 223.8 266.2 216.5 258.8 213.5C251.4 210.5 246.9 205.5 244.9 170.5C242.9 135.5 241.7 118.4 212 113.9C182.2 109.3 130.2 107.1 130.2 107.1Z" fill="#1D319D"/>
<path d="M267.8 224.6H219.4L219.2 224.2C214.8 214.4 206.4 165.6 205.3 159.3C199.8 159 158.5 156.8 141.8 154.3C137.4 153.6 133.9 151.4 131.4 147.7C125 138.1 126.4 119.8 129.6 107L129.7 106.4H130.3C130.8 106.4 182.7 108.7 212 113.2C242.6 117.9 243.6 136.6 245.6 170.5C247.6 205.7 252.2 210.1 259 212.8C266.8 215.9 267.7 223.4 267.7 223.7L267.8 224.6ZM220.3 223.1H266C265.6 221.2 263.9 216.4 258.4 214.2C250.8 211.2 246.1 206.7 244 170.5C242 136.3 241.1 119.1 211.7 114.6C184.1 110.4 136.7 108.1 130.7 107.8C127.7 120.3 126.4 137.8 132.4 146.8C134.6 150.2 137.8 152.2 141.8 152.7C159.6 155.3 205.3 157.7 205.8 157.7H206.4L206.5 158.3C206.7 158.9 215.7 211.9 220.3 223.1Z" fill="#1D319D"/>
<path d="M258.7 213.5C255.5 212.2 252.9 210.6 250.8 206.4C239.1 207.3 227.4 208.1 215.7 209.2C217.2 215.8 218.7 221.2 219.9 223.8H267C266.9 223.8 266.1 216.5 258.7 213.5Z" fill="white"/>
<path d="M267.8 224.6H219.4L219.2 224.2C218.1 221.8 216.7 216.8 215 209.4L214.8 208.6L215.7 208.5C227.2 207.5 238.4 206.6 250.8 205.7H251.3L251.5 206.1C253.5 210 255.8 211.6 259 212.8C266.8 215.9 267.7 223.4 267.7 223.7L267.8 224.6ZM220.3 223.1H266C265.6 221.2 263.9 216.4 258.4 214.2C255.1 212.9 252.5 211.2 250.3 207.2C238.4 208.1 227.5 208.9 216.5 209.9C218.1 216.3 219.3 220.7 220.3 223.1Z" fill="#1D319D"/>
<path d="M253.1 207.4C251.4 209.2 249.5 210.6 247.3 211.7C246.7 212 247.2 212.8 247.8 212.6C250.1 211.5 252.1 210 253.8 208.1C254.2 207.6 253.5 206.9 253.1 207.4Z" fill="#1D319D"/>
<path d="M254.7 209.3L249.9 214.1C249.4 214.6 250.2 215.3 250.6 214.8C252.2 213.2 253.8 211.6 255.4 210C255.8 209.6 255.1 208.9 254.7 209.3Z" fill="#1D319D"/>
<path d="M250.5 196.9C250.1 196.9 249.8 196.6 249.8 196.2C245.1 125 241.6 123.8 226.8 118.5C226.4 118.4 226.2 117.9 226.3 117.5C226.4 117.1 226.9 116.9 227.3 117C242.8 122.6 246.5 123.9 251.3 196C251.2 196.5 250.9 196.9 250.5 196.9Z" fill="white"/>
<path d="M230.4 94.4C255.6 109.4 278.4 165.1 267 227.1H347.2C347.2 227.1 355.7 179.1 309.7 179.6C309.7 179.6 287.4 87.2 254 86.2C220.6 85.3 229 91.7 229 91.7" fill="white"/>
<path d="M347.8 227.9L266 227.1L266.2 226.2C277.2 166.7 256.4 110.7 230 95L230.8 93.7C257.5 109.6 278.6 165.8 267.9 225.6L346.6 226.4C347.1 222.7 349.1 203.7 338.7 191.4C332.4 183.9 322.7 180.2 309.8 180.4H309.2L309.1 179.8C308.9 178.9 286.5 87.9 254.1 87C231.9 86.4 229.2 89.1 228.9 89.9C228.7 90.4999 229.5 91.0999 229.5 91.0999L228.6 92.3C228 91.8 227 90.6999 227.5 89.3999C227.9 88.2999 229.1 84.8 254.1 85.5C286.7 86.4 308.3 170.3 310.4 178.9H310.5C323.5 178.9 333.4 182.8 339.9 190.5C351.9 204.7 348.2 226.4 348.1 227.3L347.8 227.9Z" fill="#1D319D"/>
<path d="M287.5 93.6001C286.4 93.3001 285.3 93.1001 284.1 93.1001C278.1 93.1001 267.4 93.1001 267.4 103.9C267.4 114.7 278.1 114.7 284.1 114.7C285.3 114.7 286.4 114.5 287.5 114.2V93.6001Z" fill="#1D319D"/>
<path d="M290.6 115.6C290.2 115.6 289.8 115.3 289.8 114.8V93.9001C289.8 93.5001 290.1 93.1001 290.6 93.1001C291.1 93.1001 291.4 93.4001 291.4 93.9001V114.8C291.3 115.2 291 115.6 290.6 115.6Z" fill="#1D319D"/>
<path d="M173.8 220.7C173.8 238.6 159.3 253.1 141.4 253.1C123.5 253.1 109 238.6 109 220.7C109 202.8 123.5 188.3 141.4 188.3C159.4 188.4 173.8 197.8 173.8 220.7Z" fill="white"/>
<path d="M141.5 253.8C123.2 253.8 108.4 239 108.4 220.7C108.4 202.4 123.2 187.6 141.5 187.6C162.2 187.6 174.6 200 174.6 220.7C174.6 239 159.7 253.8 141.5 253.8ZM141.5 189.1C124.1 189.1 109.9 203.3 109.9 220.7C109.9 238.1 124.1 252.3 141.5 252.3C158.9 252.3 173.1 238.1 173.1 220.7C173.1 200.6 161.6 189.1 141.5 189.1Z" fill="#1D319D"/>
<path d="M160.6 220.7C160.6 231.2 152.1 239.8 141.5 239.8C130.9 239.8 122.4 231.3 122.4 220.7C122.4 210.1 130.9 201.6 141.5 201.6C152.1 201.6 160.6 207.2 160.6 220.7Z" fill="#1D319D"/>
<path d="M103.9 213.4C103.9 213.4 103.8 213.4 103.7 213.4C103.3 213.3 103 212.9 103.1 212.5C104.3 206.5 106.8 194.2 119.8 187.7C120.2 187.5 120.6 187.7 120.8 188C121 188.4 120.8 188.8 120.5 189C108.2 195.1 105.8 207.1 104.6 212.8C104.5 213.2 104.2 213.4 103.9 213.4Z" fill="#1D319D"/>
<path d="M147.8 245.3C147.4 245.3 147 245 147 244.5C147 244 147.3 243.7 147.8 243.7C150.8 243.7 161.8 238.8 164.5 230.2C164.6 229.8 165 229.6 165.4 229.7C165.8 229.8 166 230.2 165.9 230.6C163.2 239.6 151.9 245.3 147.8 245.3Z" fill="#1D319D"/>
<path d="M342 220.7C342 238.6 327.5 253.1 309.6 253.1C291.7 253.1 277.2 238.6 277.2 220.7C277.2 202.8 291.7 188.3 309.6 188.3C327.5 188.4 342 197.8 342 220.7Z" fill="white"/>
<path d="M309.7 253.8C291.4 253.8 276.6 239 276.6 220.7C276.6 202.4 291.4 187.6 309.7 187.6C330.4 187.6 342.8 200 342.8 220.7C342.8 239 327.9 253.8 309.7 253.8ZM309.7 189.1C292.3 189.1 278.1 203.3 278.1 220.7C278.1 238.1 292.3 252.3 309.7 252.3C327.1 252.3 341.3 238.1 341.3 220.7C341.3 200.6 329.7 189.1 309.7 189.1Z" fill="#1D319D"/>
<path d="M328.7 220.7C328.7 231.2 320.2 239.8 309.6 239.8C299 239.8 290.5 231.3 290.5 220.7C290.5 210.1 299 201.6 309.6 201.6C320.2 201.6 328.7 207.2 328.7 220.7Z" fill="#1D319D"/>
<path d="M287.9 252C287.8 252 287.7 252 287.6 251.9C283.5 250.1 276.9 243.8 275 234C274.9 233.6 275.2 233.2 275.6 233.1C276 233 276.4 233.3 276.5 233.7C278.2 242.9 284.5 248.8 288.2 250.5C288.6 250.7 288.7 251.1 288.6 251.5C288.4 251.8 288.2 252 287.9 252Z" fill="#1D319D"/>
<path d="M123 21.5V73.2H71.2999V21.5H123ZM124.5 20H69.8999V74.7H124.6L124.5 20Z" fill="#1D319D"/>
<path d="M120.2 71.0002C120 71.0002 119.8 70.9002 119.7 70.8002L73.8 24.9002C73.5 24.6002 73.5 24.1002 73.8 23.8002C74.1 23.5002 74.5999 23.5002 74.8999 23.8002L120.8 69.7002C121.1 70.0002 121.1 70.5002 120.8 70.8002C120.5 70.9002 120.4 71.0002 120.2 71.0002Z" fill="#1D319D"/>
<path d="M74.3 71.0002C74.1 71.0002 73.9 70.9002 73.8 70.8002C73.5 70.5002 73.5 70.0002 73.8 69.7002L119.7 23.8002C120 23.5002 120.5 23.5002 120.8 23.8002C121.1 24.1002 121.1 24.6002 120.8 24.9002L74.8999 70.8002C74.6999 70.9002 74.5 71.0002 74.3 71.0002Z" fill="#1D319D"/>
<path d="M74.9999 10.2C77.8166 10.2 80.0999 7.91665 80.0999 5.1C80.0999 2.28335 77.8166 0 74.9999 0C72.1832 0 69.8999 2.28335 69.8999 5.1C69.8999 7.91665 72.1832 10.2 74.9999 10.2Z" fill="#52DDAE"/>
<path d="M90.4999 1.5C92.4999 1.5 94.0999 3.1 94.0999 5.1C94.0999 7.1 92.4999 8.7 90.4999 8.7C88.4999 8.7 86.8999 7.1 86.8999 5.1C86.8999 3.1 88.5999 1.5 90.4999 1.5ZM90.4999 0C87.6999 0 85.3999 2.3 85.3999 5.1C85.3999 7.9 87.6999 10.2 90.4999 10.2C93.2999 10.2 95.5999 7.9 95.5999 5.1C95.6999 2.3 93.3999 0 90.4999 0Z" fill="#FF20B5"/>
<path d="M42.8999 150.1L76.8999 171.5C76.8999 171.5 82.8999 156.5 68.6999 147.5C54.4999 138.5 42.8999 150.1 42.8999 150.1Z" fill="white"/>
<path d="M77.2999 172.6L41.7 150.2L42.3999 149.5C42.4999 149.4 54.4999 137.6 69.0999 146.8C83.6999 156 77.6999 171.6 77.5999 171.7L77.2999 172.6ZM44.2 150L76.5999 170.4C77.5999 167.1 80.0999 155.6 68.3999 148.2C56.5999 140.8 46.8 147.8 44.2 150Z" fill="#1D319D"/>
<path d="M43.4878 181.379L36.0786 183.818L38.5177 191.227L45.9269 188.788L43.4878 181.379Z" fill="#52DDAE"/>
<path d="M20.8782 208.046L4.63818 220.224L16.8162 236.464L33.0562 224.286L20.8782 208.046Z" fill="#52DDAE"/>
<path d="M16.6 203.8L0 199.1L12 188.3L16.6 203.8ZM3.1 198.4L14.5 201.6L11.4 191L3.1 198.4Z" fill="#FF20B5"/>
<path d="M53.1001 199.4C52.7001 199.4 52.4001 199.1 52.4001 198.7L51.1001 186.6C51.1001 186.2 51.4001 185.8 51.8001 185.8C52.2001 185.7 52.6001 186.1 52.6001 186.5L53.9001 198.6C53.9001 199 53.6001 199.3 53.1001 199.4Z" fill="#1D319D"/>
<path d="M46.3999 194C45.9999 194 45.7 193.7 45.7 193.3C45.7 192.9 45.9999 192.5 46.3999 192.5L58.4999 191.2C58.8999 191.2 59.2999 191.5 59.2999 191.9C59.2999 192.3 58.9999 192.7 58.5999 192.7L46.3999 194Z" fill="#1D319D"/>
<path d="M78.2 208C78.1 208 78 208 77.9 208L65.6 203.4C65.2 203.3 65 202.8 65.2 202.4C65.3 202 65.8 201.8 66.2 202L78.5 206.6C78.9 206.7 79.1 207.2 78.9 207.6C78.8 207.8 78.5 208 78.2 208Z" fill="#FF20B5"/>
<path d="M78.2001 213.4H67.9001C67.5001 213.4 67.1001 213.1 67.1001 212.6C67.1001 212.1 67.4001 211.8 67.9001 211.8H78.2001C78.6001 211.8 79.0001 212.1 79.0001 212.6C79.0001 213.1 78.6001 213.4 78.2001 213.4Z" fill="#FF20B5"/>
<path d="M220.6 85.6C219.5 85.6 218.4 85.6 217.3 85.5C193.6 84.1 179.4 74.2 177.4 72.8L174.6 48.4C176.1 49.3 177.7 50.2 179.2 51.1C189.9 57.6 201 64.3 214.5 64.3C216.9 64.3 219.4 64.1 221.8 63.6C231.1 61.9 235.9 58.2 239.4 54.8L239.5 54.7L239.6 54.6C243.7 44.9 250 40.5 253.2 40.5C254.1 40.5 254.7 40.8 254.9 41.5C255.3 42.9 254.4 43.5 252.8 44.5C251.7 45.2 250.6 45.8 250.2 47C250 47.4 249.9 47.9 250 48.5V49.2H250.7C250.8 49.2 251.1 49.2 251.1 49.2C254.6 49.2 256.8 48 258.4 47.1C259.3 46.6 260.1 46.2 260.7 46.2C261.1 46.2 261.9 46.4 263.1 47.9L263.3 48.2H263.6C264.2 48.2 266.1 48.5 266.8 49.4C267.2 49.8 267.3 50.4 267.2 51L267.1 51.5L267.5 51.8C267.5 51.8 268.7 52.6 268.9 53.8C269.1 54.5 268.9 55.3 268.3 56.1C267.3 57.7 263.2 59.8 259.2 61.8C255.6 63.6 251.9 65.5 250.1 67.2C249.3 68 248.6 69.2 247.6 70.7C244.4 76.1 238.5 85.6 220.6 85.6Z" fill="white"/>
<path d="M253.2 41.2002C254 41.2002 254.1 41.5002 254.2 41.7002C254.4 42.4002 254.3 42.7002 252.5 43.8002C251.4 44.5002 250.1 45.2002 249.6 46.6002C249.4 47.1002 249.3 47.7002 249.3 48.4002V49.8002H250.7C250.8 49.8002 251 49.8002 251.1 49.8002C254.8 49.8002 257.1 48.5002 258.8 47.6002C259.6 47.2002 260.3 46.8002 260.8 46.8002C261.3 46.8002 261.9 47.3002 262.6 48.2002L263 48.7002H263.7C264.3 48.7002 265.8 49.0002 266.4 49.7002C266.5 49.9002 266.7 50.1002 266.6 50.7002L266.4 51.7002L267.2 52.2002C267.2 52.2002 268.1 52.8002 268.3 53.7002C268.4 54.2002 268.3 54.8002 267.9 55.4002C267 56.8002 262.6 59.1002 259.1 60.8002C255.3 62.7002 251.7 64.5002 249.9 66.3002C249 67.1002 248.3 68.4002 247.3 69.9002C243.9 75.4002 238.2 84.7002 220.6 84.7002C219.5 84.7002 218.4 84.7002 217.3 84.6002C194.6 83.2002 180.8 74.1002 178.1 72.2002L175.5 49.6002C176.6 50.3002 177.7 50.9002 178.7 51.6002C189.5 58.1002 200.7 64.9002 214.4 64.9002C216.9 64.9002 219.4 64.7002 221.8 64.2002C231.3 62.5002 236.2 58.7002 239.8 55.2002L240 55.0002L240.1 54.7002C244.2 45.4002 250.2 41.2002 253.2 41.2002ZM253.2 39.7002C249.6 39.7002 243.1 44.2002 238.9 54.3002C235.6 57.6002 230.9 61.2002 221.6 62.9002C219.1 63.3002 216.7 63.5002 214.4 63.5002C198.6 63.5002 186 54.1002 173.6 46.9002L176.6 73.1002C176.6 73.1002 191.1 84.6002 217.1 86.2002C218.3 86.3002 219.4 86.3002 220.5 86.3002C243.5 86.3002 247.2 70.9002 250.8 67.5002C254.6 64.0002 267 59.5002 269.1 56.3002C271.2 53.0002 268 51.0002 268 51.0002C268.6 47.4002 263.7 47.3002 263.7 47.3002C262.5 45.9002 261.6 45.4002 260.7 45.4002C258.5 45.4002 256.5 48.5002 251.1 48.5002C251 48.5002 250.8 48.5002 250.7 48.5002C250.7 48.1002 250.7 47.7002 250.9 47.4002C251.9 45.1002 256.6 44.8002 255.7 41.5002C255.3 40.2002 254.5 39.7002 253.2 39.7002Z" fill="#1D319D"/>
<path d="M236.2 56.6004C233 59.1004 228.7 61.5004 221.6 62.8004C202.3 66.3004 187.8 55.1004 173.6 46.9004L176.6 73.1004C176.6 73.1004 191.1 84.6004 217.1 86.2004C235.4 87.3004 242.8 79.4004 246.8 73.3004C243.3 67.8004 239.4 62.4004 236.2 56.6004Z" fill="#52DDAE"/>
<path d="M249.2 48.7002C248.7 51.8002 248.2 57.4002 245.3 59.2002C244.7 59.5002 245.2 60.4002 245.8 60.1002C249.2 58.1002 249.7 52.5002 250.2 49.0002C250.3 48.3002 249.3 48.0002 249.2 48.7002Z" fill="#1D319D"/>
<path d="M263.1 47.7004C260.2 48.2004 257.7 49.9004 256.1 52.4004C255.8 52.9004 256.6 53.4004 257 52.9004C258.4 50.6004 260.7 49.1004 263.4 48.7004C264 48.6004 263.7 47.6004 263.1 47.7004Z" fill="#1D319D"/>
<path d="M265 50.9004C262.3 51.7004 259.9 53.1004 258 55.2004C257.6 55.7004 258.3 56.4004 258.7 55.9004C260.5 53.9004 262.7 52.5004 265.2 51.8004C265.9 51.7004 265.6 50.7004 265 50.9004Z" fill="#1D319D"/>
<path d="M168.1 44.4999C154.6 39.6999 140.9 49.9999 133.7 69.6999C126.5 89.3999 119.8 109.9 119.8 109.9C119.8 109.9 159.8 110.9 180.4 109.3C180.4 109.3 170.5 95.7999 174.1 86.8999C177.8 77.9999 192.5 53.0999 168.1 44.4999Z" fill="#52DDAE"/>
<path d="M181.1 70.8997C181 70.8997 181 70.8997 180.9 70.8997C180.5 70.7997 180.3 70.3997 180.4 69.9997C180.4 69.8997 182.7 61.4997 179.7 53.7997C179.5 53.3997 179.7 52.9997 180.1 52.7997C180.5 52.5997 180.9 52.7997 181.1 53.1997C184.3 61.2997 181.9 69.9997 181.8 70.2997C181.7 70.6997 181.4 70.8997 181.1 70.8997Z" fill="white"/>
<path d="M158.9 36.9999C158.3 35.3999 156.8 34.2999 155 33.9999C150.3 33.0999 144.2 33.0999 140.3 36.1999C136.8 38.9999 135.6 44.4999 138.9 47.9999C140.4 49.5999 142.1 50.2999 144 50.2999C145 52.7999 147.3 54.6999 150.8 54.5999C155.2 54.4999 159.2 51.7999 161.2 47.8999C163.1 44.2999 162.9 38.8999 158.9 36.9999Z" fill="#1D319D"/>
<path d="M168.6 15.0997C170.1 14.3997 171.4 13.5997 172.4 12.6997C168.1 10.4997 163.1 10.5997 159.2 13.2997C157.7 14.3997 156.5 15.6997 155.6 17.1997C160 17.3997 164.5 16.8997 168.6 15.0997Z" fill="#1D319D"/>
<path d="M159.3 41.6999C158.7 41.6999 158.2 41.5999 157.6 41.4999C156.1 41.1999 155.1 40.0999 154.8 38.6999C154.4 36.8999 155.3 34.8999 157.3 33.2999L157.8 32.8999L157.4 32.2999V32.1999C154.3 27.7999 153.8 22.1999 156.1 17.8999L156.3 17.4999C156.3 17.3999 156.4 17.2999 156.5 17.1999C156.7 16.8999 156.8 16.6999 157 16.4999C157.1 16.3999 157.2 16.2999 157.3 16.1999C157.7 15.6999 158 15.2999 158.5 14.8999C158.6 14.7999 158.8 14.6999 158.9 14.4999L159 14.3999C159.3 14.1999 159.5 13.9999 159.7 13.7999C160.3 13.3999 160.9 12.9999 161.6 12.6999L162.1 12.4999H162.3C162.6 12.3999 162.8 12.2999 163.1 12.2999C163.1 12.2999 163.4 12.1999 163.5 12.1999C163.8 12.0999 164.2 12.0999 164.5 11.9999H164.6C164.8 11.9999 165 11.9999 165.1 11.8999C165.5 11.8999 165.8 11.8999 166.2 11.8999C166.5 11.8999 166.9 11.8999 167.3 11.9999C167.8 11.9999 168.3 12.0999 168.7 12.1999C168.8 12.1999 168.8 12.1999 168.9 12.1999C168.9 12.1999 169.3 12.2999 169.4 12.2999C170.3 12.4999 171.2 12.8999 172 13.2999C174.2 14.3999 176.1 15.9999 177.5 18.0999C180.5 22.4999 181.7 26.2999 181 29.5999C180.4 32.2999 178.5 34.4999 175.4 36.2999C175 36.4999 174.7 36.6999 174.3 36.8999C173.7 37.1999 173 37.3999 172.4 37.5999C171.2 37.8999 170 38.0999 168.8 38.0999C167.9 38.0999 167.1 37.9999 166.2 37.8999L165.7 37.7999L165.4 38.2999C164.2 40.3999 161.9 41.6999 159.3 41.6999Z" fill="white"/>
<path d="M166.2 12.6997C166.5 12.6997 166.9 12.6997 167.2 12.7997C167.7 12.7997 168.1 12.8997 168.5 12.9997C168.6 12.9997 168.6 12.9997 168.7 13.0997H168.8C168.9 13.0997 169 13.1997 169.1 13.1997C170 13.3997 170.8 13.6997 171.6 14.0997C173.6 15.0997 175.5 16.6997 176.8 18.6997C178.8 21.5997 181 25.7997 180.2 29.5997C179.7 31.9997 177.9 34.0997 174.9 35.7997C174.6 35.9997 174.2 36.1997 173.9 36.2997C173.3 36.5997 172.7 36.7997 172.1 36.9997C171 37.2997 169.9 37.4997 168.7 37.4997C167.9 37.4997 167.1 37.3997 166.3 37.2997L165.2 37.0997L164.7 37.9997C163.6 39.8997 161.6 40.9997 159.2 40.9997C158.7 40.9997 158.2 40.8997 157.7 40.7997C156.5 40.4997 155.7 39.6997 155.4 38.5997C155.1 37.0997 155.9 35.2997 157.7 33.9997L158.9 32.9997L157.9 31.8997C155.1 27.7997 154.6 22.6997 156.5 18.6997H156.6L156.9 17.9997C156.9 17.8997 157 17.8997 157 17.7997C157.1 17.5997 157.3 17.3997 157.4 17.1997C157.5 17.0997 157.5 16.9997 157.6 16.8997C157.9 16.4997 158.2 16.0997 158.6 15.7997C158.7 15.6997 158.8 15.5997 159 15.4997L159.1 15.3997H159.2C159.4 15.1997 159.6 15.0997 159.8 14.8997C160.3 14.4997 160.9 14.1997 161.6 13.8997L161.8 13.7997H161.9L162.1 13.6997L162.6 13.5997V13.4997C162.8 13.3997 162.9 13.3997 163.1 13.3997H163.2C163.3 13.3997 163.4 13.3997 163.5 13.2997C163.8 13.1997 164.1 13.1997 164.4 13.0997C164.5 13.0997 164.5 13.0997 164.6 13.0997C164.7 13.0997 164.8 13.0997 164.9 13.0997C165.5 12.6997 165.8 12.6997 166.2 12.6997ZM166.2 11.1997C165.8 11.1997 165.4 11.1997 165.1 11.1997C164.9 11.1997 164.7 11.1997 164.6 11.2997C164.5 11.2997 164.5 11.2997 164.4 11.2997C164 11.2997 163.7 11.3997 163.3 11.4997C163.2 11.4997 163 11.5997 162.9 11.5997C162.6 11.6997 162.3 11.7997 162.1 11.8997C162 11.8997 161.9 11.8997 161.8 11.9997C161.6 12.0997 161.5 12.0997 161.3 12.1997C160.6 12.4997 159.9 12.8997 159.3 13.2997C159.1 13.4997 158.8 13.6997 158.6 13.8997L158.5 13.9997C158.3 14.0997 158.2 14.2997 158.1 14.3997C157.6 14.7997 157.2 15.2997 156.9 15.6997C156.8 15.7997 156.7 15.8997 156.6 16.0997C156.4 16.2997 156.3 16.5997 156.1 16.8997C156 16.9997 155.9 17.1997 155.9 17.2997C153.4 21.7997 153.7 27.7997 157.1 32.6997C157.1 32.6997 157.1 32.6997 157.1 32.7997C152.6 36.2997 153.8 41.3997 157.7 42.2997C158.3 42.3997 158.9 42.4997 159.6 42.4997C162.1 42.4997 164.9 41.2997 166.4 38.7997C167.3 38.9997 168.2 39.0997 169.1 39.0997C170.4 39.0997 171.6 38.8997 172.9 38.5997C173.6 38.3997 174.3 38.1997 174.9 37.8997C175.3 37.6997 175.7 37.4997 176.1 37.2997C184.9 32.1997 183 24.4997 178.5 17.9997C176.9 15.7997 174.9 14.0997 172.7 12.9997C171.8 12.4997 170.9 12.1997 170 11.8997C169.8 11.7997 169.6 11.7997 169.4 11.7997H169.3C168.8 11.6997 168.2 11.5997 167.7 11.4997C167 11.1997 166.6 11.1997 166.2 11.1997Z" fill="#1D319D"/>
<path d="M169.795 24.6835C170.335 24.5669 170.678 24.0347 170.561 23.4949C170.445 22.9551 169.913 22.6121 169.373 22.7287C168.833 22.8454 168.49 23.3775 168.607 23.9173C168.723 24.4571 169.255 24.8002 169.795 24.6835Z" fill="#1D319D"/>
<path d="M157.3 33.2997C161.6 29.4997 164.8 23.7997 165.4 18.0997C165.7 15.7997 165.4 13.4997 164.8 11.1997C162.8 11.3997 160.8 12.0997 159.1 13.2997C153.2 17.3997 152.2 26.0997 156.7 32.5997C157 32.8997 157.2 33.0997 157.3 33.2997Z" fill="#1D319D"/>
<path d="M162.5 34.8997C160.2 34.2997 157.8 35.2997 156.7 37.3997C156.4 37.9997 157.2 38.4997 157.5 37.8997C158.4 36.1997 160.3 35.2997 162.2 35.7997C162.8 35.9997 163.2 35.0997 162.5 34.8997Z" fill="#1D319D"/>
<path d="M178.1 22.9996C176.6 21.3996 174.9 19.8996 172.9 18.7996C172.3 18.4996 171.8 19.2996 172.4 19.5996C174.3 20.6996 175.9 22.0996 177.4 23.6996C177.8 24.1996 178.5 23.4996 178.1 22.9996Z" fill="#1D319D"/>
<path d="M174 39.1999C171.9 39.1999 168.2 37.9999 166.5 37.1999C163.7 35.7999 161.2 33.8999 159.2 31.4999C159 31.2999 159 31.1999 158.9 31.0999C158.7 30.6999 158.9 30.2999 159.3 30.0999C159.7 29.8999 160.1 30.0999 160.3 30.4999C162.2 32.6999 164.5 34.4999 167.1 35.7999C168.9 36.6999 173 37.8999 174.4 37.5999C174.8 37.4999 175.2 37.7999 175.3 38.1999C175.4 38.5999 175.1 38.9999 174.7 39.0999C174.6 39.1999 174.3 39.1999 174 39.1999Z" fill="#1D319D"/>
<path d="M149.3 14.5002C140.1 25.2002 142.5 34.6002 154.8 42.3002L159 37.8002C161.6 35.0002 162.2 30.8002 160.5 27.4002C159.2 24.8002 158.9 21.1002 162.8 16.9002C170.9 8.30015 172.2 9.10016 171.5 8.50016C168.7 6.10016 160.7 1.40016 149.3 14.5002Z" fill="white"/>
<path d="M154.9 43.3L154.4 43C147.7 38.8 143.9 34 143.2 28.9C142.5 24.2 144.4 19.2 148.8 14C153.7 8.29996 158.5 5.29996 163.2 4.99996C167.5 4.69996 170.5 6.69996 171.9 7.99996C172 8.09996 172.3 8.39996 172.3 8.79996C172.3 9.29996 172 9.49996 171.5 9.79996C170.6 10.4 168.2 12.2 163.3 17.4C160.3 20.6 159.5 23.9 161.1 27C162.9 30.7 162.3 35.2 159.5 38.2L154.9 43.3ZM164.1 6.39996C163.9 6.39996 163.6 6.39996 163.4 6.39996C159.1 6.69996 154.6 9.59996 150 14.9C145.9 19.7 144.1 24.3 144.7 28.6C145.4 33.1 148.7 37.4 154.7 41.3L158.4 37.2C160.8 34.6 161.3 30.8 159.8 27.7C158.5 25.1 157.9 21 162.3 16.4C167.1 11.3 169.5 9.49996 170.6 8.69996C169.1 7.69996 167 6.39996 164.1 6.39996Z" fill="#1D319D"/>
<path d="M170 37.7001C169.7 38.5001 168.8 38.8002 168 38.5002L167.2 38.1002C166.4 37.8002 166.1 36.9002 166.4 36.1002C166.7 35.3002 167.6 35.0001 168.4 35.3001L169.2 35.7001C170 36.0001 170.3 36.9001 170 37.7001Z" fill="#1D319D"/>
<path d="M149.9 32.5002C149.7 32.5002 149.5 32.4002 149.4 32.3002C149.1 32.0002 149.1 31.5002 149.4 31.2002L153 27.3002C153.3 27.0002 153.8 27.0002 154.1 27.3002C154.4 27.6002 154.4 28.1002 154.1 28.4002L150.5 32.3002C150.3 32.4002 150.1 32.5002 149.9 32.5002Z" fill="#1D319D"/>
<path d="M151.6 34.8C151.4 34.8 151.2 34.7 151.1 34.6C150.8 34.3 150.8 33.8 151.1 33.5L154.7 29.6C155 29.3 155.5 29.3 155.8 29.6C156.1 29.9 156.1 30.4 155.8 30.7L152.2 34.6C152 34.7 151.8 34.8 151.6 34.8Z" fill="#1D319D"/>
<path d="M185.2 106.3C183.8 106.3 182.4 106.3 180.8 106.2C154.3 105.2 149.6 80.6999 148.5 56.5999L167.1 52.8999C171.3 79.5999 178.1 87.7999 195.7 87.7999C203.8 87.7999 210.1 85.9999 215.2 84.4999C218.6 83.4999 221.5 82.6999 224 82.6999C226.1 82.6999 227.7 83.2999 229.2 84.5999C232.5 87.3999 234.1 90.3999 233.9 92.9999C233.8 94.5999 232.9 95.9999 231.4 96.8999C231.1 97.0999 230.8 97.1999 230.5 97.2999H230.4L229.9 97.4999V97.9999C229.9 98.6999 229.8 99.1999 229.7 99.6999V99.7999V99.8999C229.1 102.1 227.9 103.2 226.1 103.2H225.9L225.7 103.3C225.7 103.3 223.5 104.9 221.6 104.9C220.6 104.9 219.9 104.5 219.5 103.5C219.2 103 219.3 102.7 219.3 102.7C219.4 102.5 219.8 102.3 220.3 102.1C221.1 101.7 222 101.3 222.6 100.2C223.1 99.2999 222.9 98.5999 222.6 98.1999C221.9 97.0999 220.2 97.0999 219.9 97.0999H219.5L219.3 97.3999C219.1 97.6999 218.9 97.9999 218.7 98.2999C217.7 99.8999 217.3 100.5 215.8 100.5C215.1 100.5 214.3 100.4 213 100.1C212.5 99.9999 212.1 99.9999 211.6 99.9999C209.9 99.9999 208.7 100.7 207.1 101.6C204 103.5 199.2 106.3 185.2 106.3Z" fill="white"/>
<path d="M166.6 53.7C168.7 67 171.4 74.9 175.4 80.1C179.9 85.9 186.2 88.4 195.8 88.4C204 88.4 210.4 86.6 215.5 85.1C218.8 84.1 221.7 83.3 224 83.3C225.9 83.3 227.4 83.8 228.8 85C231.8 87.6 233.5 90.4 233.3 92.7C233.2 94.1 232.4 95.2 231.2 96C230.9 96.2 230.7 96.3 230.4 96.4L230.2 96.5L229.3 96.8V97.9C229.3 98.5 229.3 99 229.2 99.4V99.5V99.6C228.5 102.1 227.2 102.4 226.3 102.4H225.8L225.4 102.7C224.9 103.1 223.1 104.2 221.7 104.2C221 104.2 220.6 103.9 220.2 103.3C220.2 103.2 220.1 103.1 220.1 103.1C220.2 103 220.4 102.9 220.6 102.9C221.4 102.5 222.6 102 223.2 100.7C223.8 99.4 223.5 98.5 223.2 98C222.3 96.6 220.4 96.5 219.9 96.5H219.1L218.7 97.2C218.5 97.5 218.3 97.8 218.1 98.1C217 99.7 216.9 99.9 215.8 99.9C215.2 99.9 214.4 99.8 213.2 99.6C212.7 99.5 212.2 99.4 211.7 99.4C209.8 99.4 208.4 100.2 206.8 101.1C203.7 102.9 199 105.6 185.3 105.6C183.9 105.6 182.5 105.6 181 105.5C155.4 104.6 150.6 80.8 149.5 57.2L166.6 53.7ZM167.8 52L147.8 56C148.8 81 153.8 106 180.8 107C182.4 107.1 183.8 107.1 185.2 107.1C206 107.1 207 100.9 211.6 100.9C212 100.9 212.4 100.9 212.8 101C214.1 101.3 215 101.4 215.7 101.4C217.9 101.4 218.3 100.3 219.8 98C219.8 98 222.8 98 221.8 100C220.8 102 217.5 101.3 218.8 104C219.5 105.3 220.5 105.8 221.6 105.8C223.8 105.8 226.2 104 226.2 104C228.6 104 229.9 102.4 230.6 100.1C230.6 100 230.7 99.9 230.7 99.9C230.8 99.4 230.9 98.7 230.9 98H231C231.4 97.9 231.7 97.7 232 97.5C236 95.1 236.4 89.6 229.9 84C228.1 82.5 226.3 81.9 224.2 81.9C217.9 81.9 209.4 87 195.9 87C177.8 87 171.8 78 167.8 52Z" fill="#1D319D"/>
<path d="M207.3 85.8C203.9 86.5 200.2 87 195.9 87C177.9 87 171.9 78 167.9 52L147.9 56C148.9 81 153.5 108.3 180.5 109.3C197.9 109.9 203.6 106.8 207.1 104.7C206.9 99.2 207.2 91.3 207.3 85.8Z" fill="#52DDAE"/>
<path d="M219.8 102C221.457 102 222.8 100.657 222.8 99C222.8 97.3431 221.457 96 219.8 96C218.143 96 216.8 97.3431 216.8 99C216.8 100.657 218.143 102 219.8 102Z" fill="#1D319D"/>
<path d="M226.3 103C227.6 100.1 227.3 96.7998 225.4 94.1998C225 93.6998 224.2 94.1998 224.5 94.6998C226.5 97.3998 226.6 100.9 224.8 103.8C224.7 103.9 224.7 104 224.7 104L226.3 103Z" fill="#1D319D"/>
<path d="M229.5 97.4998C229.6 95.2998 228.9 93.0998 227.5 91.2998C227.1 90.7998 227.8 90.0997 228.2 90.5997C229.7 92.4997 230.5 94.6998 230.5 96.9998C230.2 97.0998 229.8 97.2998 229.5 97.4998Z" fill="#1D319D"/>
<path d="M171.6 108.8C141.9 104.6 144.3 75.1001 145 69.3001C145.1 68.9001 145.4 68.6 145.8 68.7C146.2 68.8 146.5 69.1 146.4 69.5C145.7 75.1 143.4 103.4 171.6 107.4C172 107.5 172.3 107.8 172.2 108.2C172.3 108.5 172 108.8 171.6 108.8Z" fill="#1D319D"/>
<path d="M171.9 72C171.6 72 171.3 71.8 171.2 71.6C168.8 66.1 166.9 60.4 165.7 54.6C165.6 54.2 165.9 53.8 166.3 53.7C166.7 53.6 167.1 53.9 167.2 54.3C168.4 60 170.2 65.6 172.6 71C172.8 71.4 172.6 71.8 172.2 72C172.1 72 172 72 171.9 72Z" fill="white"/>
<path d="M254.5 34.8001L265.4 30.6001L264 41.6001L254.5 34.8001Z" fill="#52DDAE"/>
<path d="M267.7 44.1001C267.4 44.1001 267.2 44.0001 267 43.7001C266.8 43.3001 266.9 42.9001 267.3 42.7001L270.7 40.7001C271.1 40.5001 271.5 40.6001 271.7 41.0001C271.9 41.4001 271.8 41.8001 271.4 42.0001L268 44.0001C268 44.1001 267.9 44.1001 267.7 44.1001Z" fill="#FF20B5"/>
<path d="M267.6 24.0001C267.3 24.0001 267.1 23.9001 267 23.6001L263.1 17.2001C262.9 16.8001 263 16.4001 263.4 16.2001C263.8 16.0001 264.2 16.1001 264.4 16.5001L268.3 22.9001C268.5 23.3001 268.4 23.7001 268 23.9001C267.8 23.9001 267.7 24.0001 267.6 24.0001Z" fill="#FF20B5"/>
<path d="M304.8 105.1C304.6 105.1 304.4 105 304.3 104.9C304 104.6 304 104.1 304.3 103.8L309.5 98.4003C309.8 98.1003 310.3 98.1003 310.6 98.4003C310.9 98.7003 310.9 99.2003 310.6 99.5003L305.4 104.9C305.2 105 305 105.1 304.8 105.1Z" fill="#FF20B5"/>
<path d="M320.5 111C320.3 111 320.1 110.9 319.9 110.7L317.1 107.5C316.8 107.2 316.9 106.7 317.2 106.4C317.5 106.1 318 106.2 318.3 106.5L321.1 109.7C321.4 110 321.3 110.5 321 110.8C320.9 111 320.7 111 320.5 111Z" fill="#FF20B5"/>
<path d="M325.8 94.6002C325.6 94.6002 325.4 94.5002 325.2 94.4002C324.9 94.1002 324.9 93.6002 325.2 93.3002L328.5 90.3002C328.8 90.0002 329.3 90.0002 329.6 90.3002C329.9 90.6002 329.9 91.1002 329.6 91.4002L326.3 94.4002C326.1 94.6002 326 94.6002 325.8 94.6002Z" fill="#FF20B5"/>
<path d="M342.4 120.9C342.2 120.9 341.9 120.8 341.8 120.6C341.6 120.3 341.7 119.8 342 119.6L347.8 115.6C348.1 115.4 348.6 115.5 348.8 115.8C349 116.1 348.9 116.6 348.6 116.8L342.8 120.8C342.7 120.8 342.5 120.9 342.4 120.9Z" fill="#FF20B5"/>
<path d="M356.5 102.4C356.3 102.4 356.2 102.4 356.1 102.3L348.4 96.5999C348.1 96.3999 348 95.8999 348.2 95.5999C348.4 95.2999 348.9 95.2 349.2 95.4L356.9 101.1C357.2 101.3 357.3 101.8 357.1 102.1C357 102.3 356.8 102.4 356.5 102.4Z" fill="#FF20B5"/>
<path d="M334.8 107.8C334.6 107.8 334.3 107.7 334.2 107.5C334 107.2 334.1 106.7 334.4 106.5L338.7 103.8C339 103.6 339.5 103.7 339.7 104C339.9 104.3 339.8 104.8 339.5 105L335.2 107.7C335.1 107.8 334.9 107.8 334.8 107.8Z" fill="#FF20B5"/>
<path d="M370.5 78.6002C370.3 78.6002 370 78.5002 369.9 78.3002C369.6 78.0002 369.7 77.5002 370 77.2002L378 71.2002C378.3 70.9002 378.8 71.0002 379.1 71.3002C379.4 71.6002 379.3 72.1002 379 72.4002L371 78.4002C370.8 78.5002 370.7 78.6002 370.5 78.6002Z" fill="#FF20B5"/>
<path d="M419.5 70.1C419.3 70.1 419.2 70 419 69.9L412.2 64.7C411.9 64.4 411.8 64 412.1 63.6C412.4 63.3 412.8 63.2 413.2 63.5L420 68.7C420.3 69 420.4 69.4 420.1 69.8C420 70 419.8 70.1 419.5 70.1Z" fill="#FF20B5"/>
<path d="M393.5 71.9002C393.4 71.9002 393.3 71.9002 393.3 71.9002C392.9 71.8002 392.7 71.3002 392.8 71.0002L396.3 60.6002C396.4 60.2002 396.9 60.0002 397.3 60.1002C397.7 60.2002 397.9 60.7002 397.8 61.0002L394.3 71.4002C394.1 71.7002 393.8 71.9002 393.5 71.9002Z" fill="#FF20B5"/>
<path d="M356.5 85.0999C356.3 85.0999 356.1 84.9999 355.9 84.7999L352.1 79.9999C351.8 79.6999 351.9 79.1999 352.2 78.8999C352.5 78.5999 353 78.6999 353.3 78.9999L357.1 83.7999C357.4 84.0999 357.3 84.5999 357 84.8999C356.9 85.0999 356.7 85.0999 356.5 85.0999Z" fill="#FF20B5"/>
<path d="M384.5 122.9C384.2 122.9 384 122.8 383.9 122.5C383.7 122.1 383.8 121.7 384.2 121.5L391.7 117.2C392.1 117 392.5 117.1 392.7 117.5C392.9 117.9 392.8 118.3 392.4 118.5L384.9 122.8C384.8 122.8 384.7 122.9 384.5 122.9Z" fill="#FF20B5"/>
<path d="M378.5 106.5C378.3 106.5 378 106.4 377.9 106.2L373.9 100.9C373.7 100.6 373.7 100.1 374.1 99.8999C374.4 99.6999 374.9 99.6999 375.1 100.1L379.1 105.4C379.3 105.7 379.3 106.2 378.9 106.4C378.8 106.4 378.7 106.5 378.5 106.5Z" fill="#FF20B5"/>
<path d="M368.7 132.3L368 120.8L358.4 126.9L368.7 132.3Z" fill="#23C08B"/>
<path d="M396.9 95.7002C396.8 95.7002 396.6 95.7002 396.5 95.6002L389.8 91.6002C389.4 91.4002 389.3 90.9002 389.5 90.6002C389.7 90.2002 390.2 90.1002 390.5 90.3002L397.2 94.3002C397.6 94.5002 397.7 95.0002 397.5 95.3002C397.4 95.6002 397.1 95.7002 396.9 95.7002Z" fill="#FF20B5"/>
<path d="M395.9 136.5C395.7 136.5 395.6 136.5 395.4 136.3C395.1 136 395 135.6 395.3 135.2L400.6 128.2C400.9 127.9 401.3 127.8 401.7 128.1C402 128.4 402.1 128.8 401.8 129.2L396.5 136.2C396.4 136.4 396.2 136.5 395.9 136.5Z" fill="#FF20B5"/>
<path d="M412.8 116.9C412.6 116.9 412.5 116.9 412.4 116.8L406.9 112.8C406.6 112.6 406.5 112.1 406.7 111.8C406.9 111.5 407.4 111.4 407.7 111.6L413.2 115.6C413.5 115.8 413.6 116.3 413.4 116.6C413.2 116.8 413 116.9 412.8 116.9Z" fill="#FF20B5"/>
<path d="M420.8 55.5001C420.7 55.5001 420.6 55.5001 420.4 55.4001C420 55.2001 419.9 54.7001 420.1 54.4001L423.4 48.5001C423.6 48.1001 424.1 48.0001 424.4 48.2001C424.8 48.4001 424.9 48.9001 424.7 49.2001L421.4 55.1001C421.3 55.4001 421 55.5001 420.8 55.5001Z" fill="#FF20B5"/>
<path d="M458 91.3999C457.9 91.3999 457.7 91.3999 457.6 91.2999L450.6 87.2999C450.2 87.0999 450.1 86.5999 450.3 86.2999C450.5 85.9999 451 85.7999 451.3 85.9999L458.3 89.9999C458.7 90.1999 458.8 90.6999 458.6 90.9999C458.5 91.2999 458.3 91.3999 458 91.3999Z" fill="#FF20B5"/>
<path d="M431.8 82.7002C431.6 82.7002 431.4 82.6002 431.3 82.5002C431 82.2002 431 81.7002 431.2 81.4002L437.7 74.1002C438 73.8002 438.5 73.8002 438.8 74.0002C439.1 74.3002 439.1 74.8002 438.9 75.1002L432.4 82.4002C432.2 82.6002 432 82.7002 431.8 82.7002Z" fill="#FF20B5"/>
<path d="M427.3 146.6C427.1 146.6 427 146.6 426.9 146.5L419.1 140.7C418.8 140.5 418.7 140 418.9 139.7C419.1 139.4 419.6 139.3 419.9 139.5L427.7 145.3C428 145.5 428.1 146 427.9 146.3C427.7 146.5 427.5 146.6 427.3 146.6Z" fill="#FF20B5"/>
<path d="M447.4 121.5C447.2 121.5 446.9 121.4 446.8 121.2L443 115.9C442.8 115.6 442.8 115.1 443.2 114.9C443.5 114.7 444 114.7 444.2 115.1L448 120.4C448.2 120.7 448.2 121.2 447.8 121.4C447.8 121.5 447.6 121.5 447.4 121.5Z" fill="#FF20B5"/>
<path d="M456.8 61.0002C456.6 61.0002 456.4 60.9002 456.3 60.8002L451.8 56.7002C451.5 56.4002 451.5 55.9002 451.7 55.6002C452 55.3002 452.5 55.3002 452.8 55.5002L457.3 59.6002C457.6 59.9002 457.6 60.4002 457.4 60.7002C457.2 60.9002 457 61.0002 456.8 61.0002Z" fill="#FF20B5"/>
<path d="M465.6 150.3C465.4 150.3 465.1 150.2 465 150L461.5 145.2C461.3 144.9 461.3 144.4 461.7 144.2C462 144 462.5 144 462.7 144.4L466.2 149.2C466.4 149.5 466.4 150 466 150.2C465.9 150.2 465.7 150.3 465.6 150.3Z" fill="#FF20B5"/>
<path d="M466.5 125.1C466.4 125.1 466.3 125.1 466.2 125C465.8 124.8 465.7 124.4 465.9 124L469.2 117.4C469.4 117 469.8 116.9 470.2 117.1C470.6 117.3 470.7 117.7 470.5 118.1L467.2 124.7C467.1 125 466.8 125.1 466.5 125.1Z" fill="#FF20B5"/>
<path d="M428.5 116.1L431.8 110.3L435 116.1H428.5Z" fill="#23C08B"/>
<path d="M412.8 80.7002H401.3L407.6 90.9002L412.8 80.7002Z" fill="#23C08B"/>
</svg>
