<svg xmlns="http://www.w3.org/2000/svg" width="216" height="200" fill="none" viewBox="0 0 216 200"><path fill="#1D319D" d="M75.999 178.549C76.7701 182.615 78.1722 185.489 79.7845 187.662C79.9247 187.872 80.0649 188.013 80.2051 188.223C80.5556 188.643 80.9061 188.994 81.2566 189.344C81.4669 189.555 81.6071 189.695 81.8174 189.835C83.7102 191.518 85.7432 192.499 87.4957 193.27C91.9121 195.163 92.1224 200 92.1224 200L57.4922 199.79C57.9128 194.041 57.9128 183.176 57.9128 183.176C65.1333 181.002 68.6383 179.67 75.999 178.549Z"/><path fill="#fff" d="M79.8537 187.592C79.9939 187.802 80.1341 187.942 80.2743 188.153C78.8723 188.784 77.4702 189.485 76.0682 190.115C75.6476 190.326 75.2971 189.695 75.7177 189.555C77.0496 188.924 78.4516 188.293 79.8537 187.592Z"/><path fill="#fff" d="M81.3268 189.274C81.5371 189.485 81.6773 189.625 81.8876 189.765C80.3454 190.536 78.733 191.237 77.1908 192.008C76.7702 192.219 76.4197 191.588 76.8403 191.448C78.3124 190.676 79.8547 189.975 81.3268 189.274Z"/><path fill="#1D319D" d="M27.9788 175.324C24.7541 177.918 22.8614 180.512 21.7398 182.965C21.6697 183.175 21.5295 183.386 21.4594 183.596C21.2491 184.087 21.1088 184.578 20.9686 185.068C20.8985 185.279 20.8285 185.559 20.7583 185.769C20.1975 188.223 20.2676 190.536 20.4078 192.429C20.7583 197.196 16.6223 199.649 16.6223 199.649L0.63916 168.945C5.47618 165.58 10.1029 162.425 13.8183 158.71C19.0058 164.038 23.4923 169.295 27.9788 175.324Z"/><path fill="#fff" d="M79.5036 103.33C79.5036 103.33 71.1615 99.8245 64.2916 98.9132C64.7122 92.8845 64.8524 88.8887 64.8524 88.8887L42.7003 90.3608C40.3168 104.031 39.3354 123.869 29.2407 141.325C24.6841 149.246 16.8328 155.555 8.63086 162.636C13.1875 168.875 20.478 177.077 25.1048 183.316C26.4367 181.142 46.2054 170.697 56.3 143.848C56.0196 165.37 55.2485 187.382 55.2485 187.382L80.3449 185.769C80.3449 185.769 83.7798 140.273 79.5036 103.33Z"/><path fill="#1D319D" d="M54.6873 187.942V187.382C54.6873 187.171 55.3883 167.122 55.7389 146.723C47.4669 166.632 34.0073 176.936 28.1889 181.423C26.927 182.404 25.8054 183.246 25.5951 183.596L25.1745 184.297L24.6838 183.666C22.5106 180.722 19.6365 177.287 16.9025 173.992C13.818 170.207 10.5934 166.351 8.1398 162.986L7.85938 162.566L8.20988 162.215C9.0511 161.514 9.89235 160.743 10.7336 160.042C17.8839 153.873 24.6137 148.055 28.6796 141.044C36.8114 126.954 38.9845 111.321 40.8072 98.703C41.2278 95.6886 41.6484 92.8145 42.069 90.2207L42.1391 89.8001L65.2727 88.2578V88.8187C65.2727 88.8888 65.1325 92.6742 64.7119 98.3525C71.5117 99.3339 79.5033 102.699 79.5734 102.769L79.8538 102.909L79.9239 103.19C84.13 139.712 80.7651 185.208 80.7651 185.699V186.19L54.6873 187.942ZM56.8605 140.834L56.7904 143.848C56.51 163.197 55.8791 183.176 55.7389 186.821L79.7837 185.279C80.1342 180.442 82.8682 138.17 78.9425 103.75C77.4003 103.119 70.1798 100.245 64.1511 99.4741L63.6603 99.404L63.7304 98.9133C64.0809 94.2866 64.2211 90.7815 64.2912 89.5197L43.1206 90.9217C42.6999 93.4454 42.3494 96.1092 41.9288 98.9834C40.1062 111.672 37.933 127.445 29.7311 141.675C25.5951 148.826 18.7953 154.714 11.5748 160.953C10.8738 161.584 10.1727 162.215 9.40162 162.776C11.7851 166.001 14.8696 169.716 17.8138 173.291C20.4076 176.446 23.0715 179.67 25.2446 182.474C25.7353 182.054 26.5064 181.423 27.6281 180.582C33.6568 175.955 47.8875 165.019 55.9492 143.638L56.8605 140.834Z"/><path fill="#fff" d="M21.7396 182.965C21.6695 183.176 21.5293 183.386 21.4592 183.596C20.1974 182.685 19.0056 181.704 17.7438 180.792C17.3933 180.512 17.7438 179.881 18.0943 180.161C19.2861 181.143 20.4778 182.054 21.7396 182.965Z"/><path fill="#fff" d="M20.9685 185.069C20.8984 185.279 20.8284 185.559 20.7583 185.77C19.3562 184.718 17.9542 183.737 16.6222 182.685C16.2717 182.405 16.6222 181.774 16.9727 182.054C18.3047 183.036 19.6366 184.017 20.9685 185.069Z"/><path fill="#1D319D" d="M57.9119 140.414C57.8418 140.414 57.7717 140.414 57.7016 140.343C57.4212 140.273 57.281 139.923 57.4212 139.642C62.3984 126.744 64.2912 111.742 64.2912 111.602L64.3613 111.181H64.7819C64.852 111.181 68.7076 110.971 71.3013 110.27C71.5817 110.2 71.8622 110.34 71.9323 110.62C72.0024 110.901 71.8622 111.181 71.5818 111.251C69.4086 111.812 66.3942 112.092 65.2726 112.163C64.9221 114.756 62.9593 128.216 58.4027 139.993C58.2624 140.273 58.1222 140.414 57.9119 140.414Z"/><path fill="#52DDAE" d="M129.697 99.6845C127.454 101.297 124.79 102.138 122.196 100.736C118.06 98.4227 119.883 93.5156 122.126 90.4311L119.392 86.9961L101.096 101.858L115.957 120.154L134.254 105.293L129.697 99.6845Z"/><path fill="#fff" d="M157.317 166.491L137.618 171.539L125.21 174.763L116.938 142.657L126.262 140.273C125.21 136.277 127.664 132.212 131.66 131.23C136.357 130.038 139.721 132.632 140.703 136.628L149.115 134.455L151.288 142.867L157.317 166.491Z"/><path fill="#FF20B5" d="M124.79 175.394L116.237 142.236L125.561 139.853C125.21 137.89 125.561 135.997 126.542 134.315C127.594 132.492 129.346 131.16 131.449 130.67C133.693 130.109 135.866 130.319 137.548 131.371C139.161 132.352 140.352 133.964 140.983 135.927L149.395 133.754L157.948 166.912L124.79 175.394ZM117.569 143.007L125.561 174.133L156.686 166.141L148.694 135.016L140.352 137.189L140.212 136.768C139.651 134.735 138.6 133.193 137.058 132.282C135.585 131.371 133.763 131.23 131.73 131.721C129.907 132.212 128.435 133.333 127.524 134.876C126.612 136.488 126.332 138.311 126.753 140.133L126.893 140.624L126.402 140.764L117.569 143.007Z"/><path fill="#52DDAE" d="M131.52 154.013L127.384 155.135L124.79 155.766L123.038 149.036L129.837 147.283L130.258 149.036L131.52 154.013Z"/><path fill="#52DDAE" d="M140.001 151.91L135.865 153.032L133.272 153.663L131.519 146.933L138.319 145.181L138.74 146.933L140.001 151.91Z"/><path fill="#fff" d="M157.317 166.491L137.618 171.539C137.127 169.576 136.917 167.543 136.917 165.51C136.917 155.485 142.735 146.793 151.288 142.727L157.317 166.491Z"/><path fill="#FF20B5" d="M137.197 172.17L137.057 171.679C136.567 169.716 136.286 167.613 136.286 165.51C136.286 155.626 142.034 146.513 150.937 142.307L151.498 142.026L157.877 166.912L137.197 172.17ZM150.867 143.498C142.665 147.704 137.408 156.257 137.408 165.51C137.408 167.333 137.618 169.155 138.039 170.908L156.686 166.141L150.867 143.498Z"/><path fill="#fff" d="M214.66 106.695L210.103 117.14C205.126 114.967 199.728 116.369 197.205 122.187C195.032 127.164 197.345 132.913 202.322 135.086L197.275 146.653L157.317 129.267L169.164 102.068L174.702 89.3093L188.582 95.3381L193.209 97.371L208.771 104.171L214.66 106.695Z"/><path fill="#FF20B5" d="M197.556 147.354L156.616 129.548L174.422 88.6084L215.361 106.414L210.454 117.771L209.894 117.631C207.44 116.579 204.846 116.439 202.673 117.28C200.5 118.121 198.817 119.944 197.696 122.468C195.663 127.164 197.836 132.562 202.463 134.665L203.024 134.805L202.813 135.366L197.556 147.354ZM158.018 129.057L197.065 146.022L201.692 135.436C196.784 133.053 194.611 127.094 196.784 122.047C197.976 119.243 199.939 117.28 202.323 116.299C204.636 115.387 207.3 115.457 209.894 116.509L214.029 106.975L174.983 90.0104L158.018 129.057Z"/><path fill="#fff" d="M193.139 113.986C193.139 121.697 188.091 125.272 181.852 125.272C175.613 125.272 170.566 120.225 170.566 113.986C170.566 107.747 175.613 102.699 181.852 102.699C188.091 102.699 193.139 107.747 193.139 113.986Z"/><path fill="#FF20B5" d="M181.853 125.833C175.333 125.833 170.076 120.505 170.076 114.055C170.076 107.606 175.403 102.278 181.853 102.278C188.302 102.278 193.63 107.606 193.63 114.055C193.63 121.276 189.143 125.833 181.853 125.833ZM181.853 103.26C175.894 103.26 171.127 108.097 171.127 113.985C171.127 119.874 175.964 124.711 181.853 124.711C188.583 124.711 192.578 120.715 192.578 113.985C192.578 108.097 187.741 103.26 181.853 103.26Z"/><path fill="#52DDAE" d="M178.347 119.383L176.664 111.322C176.594 111.041 176.805 110.761 177.085 110.691C177.365 110.621 177.646 110.831 177.716 111.111L179.048 117.561L188.442 110.761C188.652 110.621 189.002 110.621 189.143 110.901C189.283 111.111 189.283 111.462 189.002 111.602L178.347 119.383Z"/><path fill="#fff" d="M208.771 104.171C207.159 105.363 205.126 106.064 202.953 106.064C197.905 106.064 193.769 102.278 193.208 97.3711L208.771 104.171Z"/><path fill="#FF20B5" d="M202.953 106.555C197.695 106.555 193.279 102.629 192.718 97.4413L192.578 96.53L209.823 104.031L209.052 104.592C207.299 105.854 205.126 106.555 202.953 106.555ZM193.84 98.2826C194.751 102.489 198.536 105.573 202.883 105.573C204.565 105.573 206.177 105.153 207.579 104.311L193.84 98.2826Z"/><path fill="#fff" d="M142.456 13.8102L150.938 8.41235L151.78 18.0163L142.456 13.8102Z"/><path fill="#FF20B5" d="M152.339 18.8572L141.333 13.88L151.428 7.50073L152.339 18.8572ZM143.507 13.7398L151.148 17.1748L150.517 9.32336L143.507 13.7398Z"/><path fill="#FF20B5" d="M99.6233 152.401C99.4831 152.401 99.413 152.331 99.2728 152.261C99.0625 152.051 98.9924 151.77 99.2027 151.49L101.516 148.475C101.726 148.265 102.007 148.195 102.287 148.405C102.497 148.616 102.568 148.896 102.357 149.176L100.044 152.191C99.9738 152.331 99.8336 152.401 99.6233 152.401Z"/><path fill="#FF20B5" d="M158.298 13.7397C158.088 13.7397 157.948 13.6696 157.878 13.4593C157.737 13.1789 157.808 12.8985 158.018 12.7583L165.729 8.06147C166.009 7.92126 166.29 7.99137 166.43 8.20168C166.57 8.48208 166.5 8.76249 166.29 8.90269L158.579 13.5995C158.438 13.7397 158.368 13.7397 158.298 13.7397Z"/><path fill="#FF20B5" d="M158.789 75.5696C158.719 75.5696 158.649 75.5696 158.579 75.4995C158.298 75.3593 158.228 75.0789 158.368 74.7985L161.593 68.5595C161.733 68.279 162.014 68.209 162.294 68.3492C162.575 68.4894 162.645 68.7698 162.504 69.0502L159.28 75.2892C159.21 75.4294 158.999 75.5696 158.789 75.5696Z"/><path fill="#FF20B5" d="M110.559 143.918C110.489 143.918 110.419 143.918 110.349 143.848L103.479 140.764C103.199 140.624 103.129 140.343 103.199 140.063C103.339 139.782 103.619 139.712 103.9 139.782L110.77 142.867C111.05 143.007 111.12 143.287 111.05 143.568C110.91 143.778 110.77 143.918 110.559 143.918Z"/><path fill="#FF20B5" d="M149.817 116.299C149.677 116.299 149.466 116.228 149.396 116.088C149.256 115.878 149.326 115.527 149.536 115.387L152.27 113.635C152.551 113.495 152.831 113.565 152.971 113.775C153.112 113.985 153.041 114.336 152.831 114.476L150.097 116.228C150.027 116.228 149.887 116.299 149.817 116.299Z"/><path fill="#FF20B5" d="M162.084 139.432C161.944 139.432 161.804 139.362 161.734 139.292L157.948 135.437C157.738 135.226 157.738 134.876 157.948 134.666C158.159 134.455 158.509 134.455 158.719 134.666L162.505 138.521C162.715 138.731 162.715 139.082 162.505 139.292C162.365 139.362 162.224 139.432 162.084 139.432Z"/><path fill="#FF20B5" d="M178.348 83.7014C178.137 83.7014 177.927 83.5612 177.857 83.3509L174.492 75.2192C174.352 74.9387 174.492 74.6583 174.772 74.5181C175.053 74.3779 175.333 74.5182 175.473 74.7986L178.838 82.9303C178.979 83.2107 178.838 83.4911 178.558 83.6314C178.488 83.6314 178.418 83.7014 178.348 83.7014Z"/><path fill="#FF20B5" d="M153.741 5.25765C153.531 5.25765 153.391 5.18753 153.25 4.97722L150.867 0.771121C150.727 0.490714 150.797 0.210307 151.077 0.0701039C151.358 -0.0700995 151.638 -6.35115e-06 151.778 0.2804L154.162 4.4865C154.302 4.76691 154.232 5.04732 153.951 5.18752C153.951 5.25762 153.811 5.25765 153.741 5.25765Z"/><path fill="#1D319D" d="M106.913 41.7102C103.058 45.4256 97.0992 52.2956 91.421 54.5388C84.3407 57.3429 71.8626 42.0607 63.0298 42.972L65.273 58.3243C65.273 58.3243 72.7038 73.6765 86.4438 76.6909C100.184 79.7053 114.204 55.6604 114.274 55.5903C112.522 51.4543 110.208 44.4442 106.913 41.7102Z"/><path fill="#1D319D" d="M56.9312 41.4302L55.8096 44.4446L68.9887 45.9868L69.6196 39.8179L56.9312 41.4302Z"/><path fill="#1D319D" d="M67.3061 44.865C59.8753 39.1167 47.327 46.4773 43.6117 57.5534C40.8076 65.9656 36.7417 107.185 36.7417 107.185L81.8171 106.554C81.8171 106.554 78.1718 62.11 72.9142 54.6091C67.6566 47.1082 69.8297 46.7577 67.3061 44.865Z"/><path fill="#fff" d="M77.1906 68.77C76.9803 68.77 76.6999 68.6298 76.6999 68.3494C76.6999 68.2793 75.7885 64.1433 73.8958 57.694C73.8257 57.4136 73.9659 57.1331 74.2463 57.063C74.5267 56.9929 74.8071 57.1331 74.8772 57.4135C76.8401 63.933 77.6813 68.069 77.6813 68.1391C77.7514 68.4195 77.5411 68.6999 77.2607 68.77H77.1906Z"/><path fill="#fff" d="M98.291 49.6321C102.707 41.2199 107.755 40.5189 110.559 40.6591C113.363 40.7993 112.662 44.3044 112.662 44.3044L98.291 49.6321Z"/><path fill="#1D319D" d="M97.1699 50.6134L97.8009 49.4217C101.166 43.0424 105.442 39.958 110.559 40.1683C111.401 40.2384 112.102 40.5188 112.592 41.1497C113.574 42.4115 113.153 44.3744 113.153 44.4445L113.083 44.7249L97.1699 50.6134ZM110.069 41.1497C105.863 41.1497 102.357 43.6032 99.4132 48.6506L112.172 43.8837C112.242 43.3228 112.242 42.3414 111.751 41.7105C111.471 41.36 111.05 41.1497 110.489 41.1497C110.419 41.1497 110.209 41.1497 110.069 41.1497Z"/><path fill="#52DDAE" d="M155.565 63.5819L111.05 71.8539L105.372 41.57L102.708 27.3394L118.2 24.4652L147.223 19.0674L149.396 30.7042C143.858 31.7558 140.072 36.032 141.264 42.5514C142.315 48.0895 147.643 51.7347 153.111 50.6832L155.565 63.5819Z"/><path fill="#fff" d="M152.83 62.2505C152.76 62.2505 152.62 62.2505 152.55 62.1804L105.161 29.6532C104.951 29.513 104.88 29.1625 105.021 28.9522C105.161 28.7419 105.511 28.6717 105.722 28.812L153.11 61.3392C153.321 61.4794 153.391 61.8299 153.251 62.0402C153.181 62.1804 153.04 62.2505 152.83 62.2505Z"/><path fill="#fff" d="M112.872 69.6808C112.801 69.6808 112.661 69.6809 112.591 69.6107C112.381 69.4705 112.311 69.12 112.451 68.9097L144.978 21.521C145.118 21.3107 145.469 21.2406 145.679 21.3808C145.889 21.521 145.959 21.8715 145.819 22.0818L113.292 69.4705C113.222 69.6107 113.012 69.6808 112.872 69.6808Z"/><path fill="#fff" d="M103.338 27.7603L117.639 25.0964C117.498 32.387 112.661 38.7663 105.721 40.8693L103.338 27.7603Z"/><path fill="#B2FFE5" d="M117.148 25.7274C116.728 32.317 112.452 37.9952 106.213 40.1684L103.969 28.181L117.148 25.7274ZM118.2 24.4656L102.708 27.3398L105.371 41.5704C112.732 39.5375 118.2 32.8077 118.2 24.746C118.2 24.6759 118.2 24.5357 118.2 24.4656Z"/><path fill="#fff" d="M116.728 45.9864C116.728 45.9864 118.13 42.4113 114.274 42.902C110.418 43.3927 102.497 43.1824 94.7857 52.7162C94.1548 53.4873 93.4537 54.3285 92.6826 55.2399C96.8887 58.9552 100.744 62.951 104.6 67.0169C105.371 65.3345 105.932 63.8624 106.423 62.881C110.138 55.5203 119.181 59.3058 117.779 51.3142C117.779 51.3843 120.163 46.4771 116.728 45.9864Z"/><path fill="#1D319D" d="M104.811 67.9984L104.25 67.4376C101.096 64.0728 96.8895 59.6563 92.3329 55.6605L91.9824 55.31L92.3329 54.8894C93.104 53.9781 93.8752 53.0668 94.436 52.3658C101.446 43.6732 108.597 42.9721 112.873 42.5515C113.363 42.4814 113.854 42.4814 114.275 42.4113C115.607 42.201 116.588 42.4814 117.149 43.1824C117.78 43.9535 117.64 45.0051 117.499 45.636C118.13 45.8463 118.551 46.1968 118.831 46.7576C119.673 48.37 118.691 50.8235 118.411 51.5245C119.182 56.1513 116.448 57.1327 113.644 58.1842C111.331 59.0254 108.667 60.077 107.054 63.2315C106.704 63.8624 106.353 64.7037 105.933 65.6851C105.722 66.1758 105.442 66.7366 105.232 67.3675L104.811 67.9984ZM93.4546 55.1698C97.5906 58.8852 101.446 62.881 104.461 66.1057C104.601 65.7552 104.741 65.4748 104.881 65.1944C105.302 64.2129 105.652 63.3717 106.003 62.6707C107.825 59.1656 110.77 58.044 113.223 57.1327C116.097 56.0812 117.99 55.3801 117.289 51.4544V51.3142L117.359 51.174C117.71 50.473 118.481 48.2998 117.85 47.2483C117.64 46.8277 117.289 46.6174 116.658 46.5473L116.027 46.4772L116.238 45.8463C116.378 45.4958 116.658 44.3742 116.238 43.8834C115.887 43.3927 115.046 43.3927 114.345 43.5329C113.924 43.603 113.434 43.6731 112.943 43.6731C108.807 44.0938 101.937 44.7948 95.2071 53.1369C94.7164 53.6977 94.0855 54.3987 93.4546 55.1698Z"/><path fill="#1D319D" d="M93.735 54.0484C87.8464 61.1987 75.2281 74.6582 65.6242 68.279C55.3192 61.409 53.9172 53.9783 53.9172 53.9783L46.2761 54.1886C39.7567 68.279 44.6638 91.1321 73.055 89.3095C95.2772 87.8374 102.007 73.5366 105.232 66.0358C101.516 61.8297 97.5905 57.9741 93.735 54.0484Z"/><path fill="#fff" d="M72.7039 69.2599C63.0999 69.2599 56.7908 62.3899 55.3186 56.8519C55.2485 56.5715 55.3887 56.2911 55.6692 56.221C55.9496 56.1509 56.23 56.2911 56.3001 56.5715C57.8423 62.5302 65.5535 70.1712 77.0502 67.7177C85.1119 65.9651 91.5612 55.7303 91.6313 55.6602C91.7715 55.3798 92.122 55.3097 92.3323 55.52C92.6127 55.6602 92.6828 56.0107 92.4725 56.221C92.1921 56.6416 85.7428 66.9465 77.1904 68.7692C75.6481 69.1197 74.1059 69.2599 72.7039 69.2599Z"/><path fill="#1D319D" d="M116.658 51.1738C113.783 51.2439 111.12 51.9449 108.526 53.2769C108.105 53.4872 108.456 54.1181 108.876 53.9078C111.33 52.6459 113.854 51.9449 116.658 51.8748C117.078 51.8748 117.078 51.1738 116.658 51.1738Z"/><path fill="#1D319D" d="M114.765 46.4773C112.522 46.6175 110.348 47.1082 108.245 48.0196C107.825 48.1598 108.035 48.8608 108.456 48.7206C110.489 47.8794 112.592 47.3886 114.765 47.2484C115.185 47.1082 115.256 46.4072 114.765 46.4773Z"/><path fill="#fff" d="M74.7372 89.3796C62.5395 89.3796 52.4449 80.6869 47.8181 71.8541C47.6779 71.5737 47.8182 71.2933 48.0285 71.1531C48.3089 71.0129 48.5893 71.1531 48.7295 71.3634C53.5665 80.6168 64.7127 89.8002 77.8918 88.1177C78.1722 88.0476 78.4526 88.2579 78.4526 88.5383C78.5227 88.8187 78.3124 89.0991 78.032 89.0991C76.9104 89.3094 75.7887 89.3796 74.7372 89.3796Z"/><path fill="#fff" d="M205.407 17.5955V62.8812H160.121V49.7721C154.513 49.7721 149.956 45.2155 149.956 39.6074C149.956 33.0178 154.513 29.4427 160.121 29.4427V17.5955H205.407Z"/><path fill="#FF20B5" d="M205.897 63.3716H159.56V50.2626C153.882 49.9822 149.325 45.2854 149.325 39.6072C149.325 33.3681 153.391 29.162 159.56 28.9517V17.1045H205.897V63.3716ZM160.612 62.3201H204.846V18.0859H160.612V29.9331H160.051C154.162 29.9331 150.377 33.7186 150.377 39.6072C150.377 44.9349 154.723 49.2812 160.051 49.2812H160.612V49.842V62.3201Z"/><path fill="#FF20B5" d="M183.254 28.6714H169.024C168.743 28.6714 168.463 28.4611 168.463 28.1106C168.463 27.7601 168.673 27.5498 169.024 27.5498H183.254C183.535 27.5498 183.815 27.7601 183.815 28.1106C183.815 28.4611 183.535 28.6714 183.254 28.6714Z"/><path fill="#FF20B5" d="M183.254 33.5779H169.024C168.743 33.5779 168.463 33.3676 168.463 33.0171C168.463 32.6666 168.673 32.4563 169.024 32.4563H183.254C183.535 32.4563 183.815 32.6666 183.815 33.0171C183.815 33.3676 183.535 33.5779 183.254 33.5779Z"/><path fill="#fff" d="M205.407 37.2238V62.8109H184.096C182.273 60.0769 181.222 56.7821 181.222 53.2771C181.222 41.9206 189.003 35.8918 198.607 35.8918C201.06 35.8918 203.304 36.3825 205.407 37.2238Z"/><path fill="#FF20B5" d="M205.898 63.3717H183.816L183.676 63.1614C181.783 60.2171 180.731 56.8522 180.731 53.3471C180.731 42.6216 187.952 35.4011 198.677 35.4011C201.061 35.4011 203.444 35.8918 205.618 36.8032L205.968 36.9434V63.3717H205.898ZM184.377 62.3201H204.846V37.5743C202.884 36.8031 200.781 36.3825 198.677 36.3825C188.443 36.3825 181.783 43.0422 181.783 53.2771C181.783 56.5017 182.694 59.6563 184.377 62.3201Z"/><path fill="#fff" d="M71.372 28.0406C69.0586 22.9232 63.4505 20.4696 58.8939 22.5727C54.3373 24.6757 52.4445 30.4941 54.7579 35.6116C54.7579 35.6116 54.7579 35.6116 54.7579 35.6817C54.2672 35.892 53.8466 36.1724 53.5662 36.4528C51.2528 38.4156 51.7435 41.2898 53.9868 42.2712C55.9496 43.1124 58.6836 42.9722 60.366 40.9393C62.6093 41.7805 65.0628 41.8506 67.236 41.0795C73.9657 38.696 73.6854 33.158 71.372 28.0406Z"/><path fill="#1D319D" d="M56.2999 43.2526C55.3886 43.2526 54.4773 43.0423 53.7062 42.6918C52.5144 42.131 51.7433 41.1495 51.533 39.8877C51.3227 38.4857 51.9536 37.0836 53.2154 35.962C53.4958 35.7517 53.7762 35.5414 54.1267 35.3311C51.9536 30.0034 53.9164 24.1148 58.6834 22.0118C61.0668 20.9602 63.7307 20.9603 66.1842 22.0819C68.6378 23.2035 70.6708 25.1664 71.8625 27.7601C73.5449 31.4755 73.8253 34.56 72.8439 37.0135C72.0027 39.0465 70.1801 40.5887 67.5162 41.5001C65.343 42.2712 62.8895 42.2712 60.5761 41.5001C59.3143 42.7619 57.7721 43.2526 56.2999 43.2526ZM62.3287 22.3623C61.207 22.3623 60.1555 22.5726 59.104 23.0633C54.7577 25.0261 53.0752 30.5642 55.2484 35.4012L55.4587 35.8218L55.0381 36.1022C54.6175 36.3125 54.1969 36.5929 53.9164 36.8033C52.935 37.6445 52.4443 38.696 52.6546 39.7475C52.7948 40.6589 53.3557 41.3599 54.1969 41.7104C55.8793 42.4815 58.403 42.4114 60.0153 40.5186L60.2256 40.2382L60.5761 40.3784C62.6792 41.2196 64.9925 41.2897 67.0956 40.5186C69.479 39.6774 71.0914 38.3455 71.8625 36.593C72.7738 34.4198 72.4934 31.6157 70.9511 28.1808C69.8996 25.7973 68.077 23.9746 65.8337 22.9932C64.642 22.5726 63.4503 22.3623 62.3287 22.3623Z"/><path fill="#1D319D" d="M64.8238 31.7721C65.2108 31.7606 65.5152 31.4376 65.5038 31.0506C65.4923 30.6636 65.1693 30.3592 64.7823 30.3706C64.3953 30.3821 64.0908 30.7051 64.1023 31.0921C64.1137 31.4791 64.4367 31.7835 64.8238 31.7721Z"/><path fill="#1D319D" d="M70.6706 31.686C69.8294 30.3541 68.848 29.1624 67.6562 28.1108C67.3057 27.8304 66.815 28.3211 67.1655 28.6015C68.2871 29.583 69.2686 30.7747 70.1098 32.0365C70.3201 32.4572 70.8809 32.0365 70.6706 31.686Z"/><path fill="#1D319D" d="M64.6421 23.9045C63.0999 25.5869 55.4588 29.3724 58.333 33.1579C59.034 34.1393 59.8753 34.4898 59.1041 35.4712C58.1928 36.3125 57.3516 35.2609 57.3516 35.2609C55.9496 35.6114 54.4073 36.1022 53.6362 36.8032C49.9208 33.5785 49.9208 29.5126 51.6033 28.1807C51.6033 28.1807 61.4175 14.0902 65.9741 17.8056C69.9699 21.1705 64.6421 23.9045 64.6421 23.9045Z"/><path fill="#1D319D" d="M58.4032 37.8546C56.931 37.1535 55.1084 37.5741 54.0569 38.836C53.7765 39.1865 54.2672 39.6772 54.5476 39.3267C55.3888 38.2751 56.7908 37.8545 58.0527 38.4854C58.4733 38.6958 58.8238 38.0649 58.4032 37.8546Z"/></svg>