<svg fill="none" height="258" viewBox="0 0 302 258" width="302" xmlns="http://www.w3.org/2000/svg"><path d="m228.62 240.1s-1.9-6.2-7.3-7.9c-3.1-1-7.2-.2-11-7.5-2.7-5.3-6.2-23.6-11-40.3-14.8-52.2-32.4-80.2-32.4-80.2l-11.6 10.7h-28.4c-4.3 28.2-49.9005 121.2-49.9005 121.2l38.9005 20.5s2.8-5.8 0-10.7-11.1-7.6 13.1-41.6c10.5-14.8 18.3-33.7 23.8-50.4 15.5 37.8 33.3 97.5 33.3 97.5z" fill="#fff"/><path d="m116.32 257.6-40.2004-21.2.3-.7c.5-.9 45.6004-93.2 49.8004-121l.1-.6h28.7l12-11.1.5.8c.2.3 17.9 28.7 32.6 80.4 1.9 6.8 3.7 13.9 5.2 20.2 2.2 9.1 4.1 16.9 5.7 20 2.9 5.6 5.8 6.2 8.6 6.7.7.1 1.3.3 2 .5 5.7 1.8 7.7 8.1 7.8 8.4l.2.7-43.9 11.8-.2-.7c-.2-.6-17.4-58.1-32.5-95.6-6.7 20-14.5 36.3-23.2 48.6-21.1 29.7-17.1 35.1-14.2 39.1.4.6.8 1.1 1.1 1.7 3 5.2.1 11.2 0 11.4zm-38.3004-21.8 37.5004 19.8c.6-1.6 1.8-5.8-.3-9.3-.3-.5-.7-1-1.1-1.5-3.4-4.6-7.6-10.3 14.2-40.9 8.9-12.5 16.9-29.4 23.7-50.1l.6-1.9.8 1.9c14.4 35.2 31.1 90.1 33.1 96.9l41-11c-.7-1.6-2.6-5.4-6.5-6.6-.6-.2-1.2-.3-1.8-.4-2.8-.5-6.4-1.2-9.6-7.5-1.7-3.2-3.5-10.8-5.8-20.3-1.5-6.3-3.3-13.4-5.2-20.1-13.3-46.8-29-74.4-31.9-79.3l-11.1 10.3h-28c-4.7 27.3-45.6004 111.7-49.6004 120z" fill="#1d319d"/><path d="m210.319 224.7c-9.8 3.2-19.5 6.8-29.4 9.8 3.2 10.3 5.2 16.9 5.2 16.9l42.5-11.4s-1.9-6.2-7.3-7.9c-3.1-.8-7.1 0-11-7.4z" fill="#1d319d"/><path d="m212.519 226.9c-1.7 1.8-3.399 3.5-5.099 5.3-.4.4.199 1.1.599.7 1.7-1.8 3.401-3.5 5.101-5.3.4-.5-.201-1.2-.601-.7z" fill="#fff"/><path d="m215.019 227.8c-1.7 1.8-3.399 3.5-5.099 5.3-.4.4.199 1.1.599.7 1.7-1.8 3.401-3.5 5.101-5.3.5-.4-.201-1.1-.601-.7z" fill="#fff"/><path d="m112.919 232.9c-9.4-4.4-18.9996-8.3-28.2996-12.8-4.6 9.7-7.7 16-7.7 16l38.8996 20.5s2.8-5.8 0-10.7c-1.5-2.9-5-5-2.9-13z" fill="#1d319d"/><path d="m113.12 235.9c-2.4.1-4.9.3-7.3.4-.6 0-.6.9 0 .9 2.4-.1 4.9-.3 7.3-.4.6 0 .6-.9 0-.9z" fill="#fff"/><path d="m114.319 238.4c-2.4.1-4.9.3-7.3.4-.6 0-.6.9 0 .9 2.4-.1 4.9-.3 7.3-.4.6-.1.6-1 0-.9z" fill="#fff"/><path d="m152.62 152.7c-.1 0-.2 0-.3-.1-.4-.2-.6-.6-.4-1 3.7-9.4 4.9-16 4.9-16.1l.1-.5 6.9-2.1c.4-.1.8.1.9.5s-.1.8-.5.9l-6 1.8c-.3 1.7-1.7 7.8-4.9 15.9-.2.5-.4.7-.7.7z" fill="#1d319d"/><path d="m64.6196 246.8h-48.6l-.2-.4c-.9-1.6-21.29997-40-13.09998-56.4 2-4 5.50002-6.3 10.29998-7.1 6.9-1 13 .4 18.2 4.3 11.4 8.6 15 26.1 15.8 30.5 1.4-.5 4.1-1.2 7.1.4 5.7 3 9.2 12.4 10.4 27.9zm-47.7-1.5h46c-1.4-18-6-24-9.5-25.9-3.4-1.8-6.5 0-6.6 0l-1 .6-.2-1.1c0-.2-3-21.3-15.4-30.5-4.9-3.7-10.6-5-17.1-4-4.39995.7-7.49996 2.7-9.19996 6.3-7.4 14.9 10.79996 50.4 12.99996 54.6z" fill="#52ddae"/><path d="m270.42 246h-23.7c2.9-13.1 23.4-38.1 23.7 0z" fill="#fff"/><path d="m271.12 246.8h-25.4l.2-.9c1.9-8.5 10.6-21.6 17.5-20.8 5 .5 7.5 7.6 7.6 21zm-23.4-1.5h22c-.2-11.7-2.4-18.3-6.3-18.7-5.7-.7-13.6 10.8-15.7 18.7z" fill="#52ddae"/><path d="m300.519 246h-23.7c-4.8-54.8 23.4-38.1 23.7 0z" fill="#fff"/><path d="m301.219 246.8h-25.099l-.101-.7c-1.7-19 .401-31.4 5.801-35 1.9-1.3 4.099-1.3 6.399-.1 6.3 3.4 12.801 16.5 12.901 35zm-23.7-1.5h22.2c-.3-17.3-6.399-29.9-12.099-32.9-1.8-.9-3.401-.9-4.901 0-4.7 3.1-6.7 15.4-5.2 32.9z" fill="#52ddae"/><path d="m289.42 246.8h-2c-.4 0-.8-.3-.8-.8s.3-.8.8-.8h.5c-.1-8.6-.8-19.9-3.2-27-.1-.4.1-.8.5-1 .4-.1.8.1 1 .5 2.6 7.5 3.2 19.5 3.3 28.2z" fill="#52ddae"/><path d="m260.12 246.8c-.1 0-.1 0-.2 0-.4-.1-.6-.5-.5-.9l2.8-10.4c.1-.4.5-.6.9-.5s.6.5.5.9l-2.8 10.4c-.1.3-.4.5-.7.5z" fill="#52ddae"/><path d="m39.2194 246.8h-1.9c-.4 0-.8-.3-.8-.8 0-.4.3-.7.6-.7-4.8-14.4-11.8-33.7-18.6-46-.2-.4-.1-.8.3-1s.8-.1 1 .3c7 12.6 14.3 32.6 19.1 47.2z" fill="#52ddae"/><path d="m45.1194 238.8c-.1 0-.2 0-.3-.1-.4-.2-.5-.6-.3-1l6-12.3c.2-.4.6-.5 1-.3s.5001.6.3001 1l-6.0001 12.3c-.2.2-.4.4-.7.4z" fill="#52ddae"/><path d="m173.12 22c-2.5-2.3-5.7-3.7-9.1-3.4-7.2.6-12.4 7.6-11.6 15.6v.1c.1.8.2 1.6.4 2.4-2.8 2-2.3 6.2-.1 8.3 2 1.9 4.8 2.5 7.5 1 2 1 4.2 1.6 6.4 1.5 10.2-.1 13.9-7.6 11.6-15.6-.9-3.7-2.3-7.4-5.1-9.9z" fill="#fff"/><path d="m166.619 48.2c-2.1 0-4.3-.5-6.3-1.5-2.7 1.3-5.7.9-8-1.3-1.4-1.4-2.2-3.4-2.1-5.4.1-1.5.8-2.8 1.8-3.7-.2-.7-.3-1.4-.3-2v-.1c-.4-4.2.9-8.4999 3.5-11.5999 2.3-2.7 5.4-4.4001 8.8-4.7001s6.8 1 9.7 3.6c3 2.8 4.4 6.9 5.3 10.2 1.3 4.5.7 8.9001-1.6 11.9001-2.3 2.9-6 4.4999-10.8 4.5999zm-6.4-3.2.4.2c1.9 1 4 1.4 6 1.5 4.3 0 7.6-1.4 9.5-4 2-2.7 2.5-6.4999 1.4-10.5999-.9-3.3-2.2-7-4.9-9.5-2.5-2.4-5.6-3.5001-8.6-3.2001s-5.8 1.8001-7.8 4.2001c-2.4 2.8-3.5 6.6999-3.2 10.5999v.1c.1.7.2 1.4.4 2.2l.1.5-.4.3c-1.2.8-1.5 2.1-1.6 2.9-.1 1.5.5 3.2 1.6 4.2 1.9 1.8 4.3 2.1 6.6.9z" fill="#1d319d"/><path d="m169.054 33.0757c.167-.5267-.126-1.0884-.652-1.2546-.527-.1662-1.089.1261-1.255.6528s.126 1.0884.653 1.2546 1.088-.1261 1.254-.6528z" fill="#1d319d"/><path d="m175.62 36.3c-.5-2.2-1.3-4.3-2.4-6.2-.3-.6-1.2-.1-.9.5 1.1 1.9 1.8 3.9 2.3 6 .2.6 1.2.4 1-.3z" fill="#1d319d"/><path d="m159.819 40.3c-1.7-1.6-4.3-2-6.3-.7-.5.3-.1 1.2.5.9 1.6-1 3.7-.9 5.1.5.4.4 1.1-.3.7-.7z" fill="#1d319d"/><path d="m158.019 35.4c2.2 1.5 2.001-2.4999 5.901-7.2999 1.7-2.1 13.1-6.4001 12-10.6001-1.6-6.1-8.501.7-11.901 1-7.2.6-14.999 8.6-11.299 18.9 0 .1 4.099-2.1 5.299-2z" fill="#1d319d"/><path d="m153.419 30.2c1.7-2.2 1.5-2.6 3.9-4.1-2.1-7.6-14.5-15.5-23-6.2-3.8 4.2-2.8 11.3-2.8 11.9-5.3-.6-11.3 1.4-14.1 5.8-4.1 6.3.2 14.3 6.8 16.6 7.3 2.5 15.7-.5 21.3-5.7 8.9-8.3 2.9-20.4 3.8-20.9 1.2-.7 3.2 1.5 4.1 2.6z" fill="#1d319d"/><path d="m235.72 75.9c-1.9 14-18.2 32.3-37.4 30.3-16.3-1.7-26.2-14.8-25.5-18.8 1.9-10.6-3.3-17.9-3.5-26.7-.1-5.1 0-8.6 0-8.6 3.2.5 6 1.8 8.5 3.7 10.3 7.6 17 24.8 24.7 25.9 10.8 1.5 17.3-13.7 21.8-23.1" fill="#fff"/><path d="m201.22 107.1c-1 0-2-.1-3-.2-10.9-1.1-19.2-7.4-23.3-12.9-2-2.7-3.1-5.2-2.8-6.8 1.1-6.1-.3-11.1-1.6-16-.9-3.4-1.8-6.8-1.9-10.5-.1-5.1 0-8.5 0-8.6v-.9l.9.1c3.1.5 6.1 1.8 8.8 3.8 4.7 3.5 8.8 9.1 12.3 14 4.2 5.8 8.1 11.2 12 11.7 9.6 1.3 15.7-11.6 20.2-21.1l.8-1.6 1.4.6-.8 1.6c-4.7 9.9-11.1 23.4-21.8 21.9-4.6-.6-8.5-6.1-13-12.4-3.7-5.1-7.5-10.3-12-13.7-2.2-1.7-4.7-2.8-7.3-3.4v7.6c.1 3.5.9 6.7 1.8 10.1 1.3 5 2.7 10.2 1.6 16.7-.1.8.4 2.8 2.5 5.6 3.9 5.2 11.9 11.2 22.3 12.3 19.4 2 34.8-16.5 36.6-29.7l1.5.2c-1.7 13.5-16.4 31.6-35.2 31.6z" fill="#1d319d"/><path d="m206.32 81.6c-1.2.3-2.5.4-3.8.2-7.7-1.1-14.5-18.3-24.7-25.9-2.5-1.8-5.3-3.1-8.5-3.7 0 0-.1 3.4 0 8.6.1 8.8 5.3 16.1 3.5 26.7-.7 3.9 8 19.3 24.3 21 4 .4 7.8.2 11.3-.6-.3-3-1.3-21.2-2.1-26.3z" fill="#1d319d"/><path d="m201.02 109.4c-1.3 0-2.6-.1-4-.2-11.4-1.2-18.3-8.9-20.8-12.1-2.8-3.7-4.5-7.7-4.1-9.7 1.1-6.1-.3-11.1-1.6-16-.9-3.4-1.8-6.8-1.9-10.5-.1-5.1 0-8.5 0-8.6v-.9l.9.1c3.1.5 6.1 1.8 8.8 3.8 4.7 3.5 8.8 9.1 12.3 14 4.2 5.8 8.1 11.2 12 11.7 1.2.2 2.4.1 3.5-.2l.8-.2.1.8c.5 3.4 1.1 12.6 1.6 19.3.2 3.3.4 6 .5 7l.1.7-.7.1c-2.4.6-5 .9-7.5.9zm-30.9-56.3v7.6c.1 3.5.9 6.7 1.8 10.1 1.3 5 2.7 10.2 1.6 16.7-.2 1.4 1 4.8 3.8 8.6 2.3 3.1 8.9 10.4 19.8 11.5 3.5.4 7.1.2 10.4-.4-.1-1.3-.3-3.6-.4-6.3-.4-6.2-1-14.6-1.5-18.4-1.1.2-2.2.2-3.2 0-4.6-.6-8.5-6.1-13-12.4-3.7-5.1-7.5-10.3-12-13.7-2.3-1.6-4.7-2.7-7.3-3.3z" fill="#1d319d"/><path d="m262.311.906614-48.205 17.259486 28.283 78.9919 48.204-17.2596z" fill="#52ddae"/><path d="m241.92 98.2-28.8-80.4 49.6-17.8 28.8 80.4zm-26.9-79.5 27.8 77.6 46.8-16.8-27.8-77.59998z" fill="#52ddae"/><g fill="#fff"><path d="m246.82 35.5c-.3 0-.6-.2-.7-.5-.1-.4.1-.8.5-1l9.9-3.6c.4-.1.8.1 1 .5.1.4-.1.8-.5 1l-9.9 3.6c-.1-.1-.2 0-.3 0z"/><path d="m230.72 41.2c-.3 0-.6-.2-.7-.5-.1-.4.1-.8.5-1l9-3.2c.4-.1.8.1 1 .5.1.4-.1.8-.5 1l-9 3.2c-.1 0-.2 0-.3 0z"/><path d="m228.52 34.9c-.3 0-.6-.2-.7-.5-.1-.4.1-.8.5-1l26-9.3c.4-.1.8.1 1 .5.1.4-.1.8-.5 1l-26 9.3c-.1 0-.2 0-.3 0z"/><path d="m257.72 45.7c-.3 0-.6-.2-.7-.5-.1-.4.1-.8.5-1l3.5-1.3c.4-.1.8.1 1 .5.1.4-.1.8-.5 1l-3.5 1.3c-.1 0-.2 0-.3 0z"/><path d="m235.22 53.7c-.3 0-.6-.2-.7-.5-.1-.4.1-.8.5-1l15.7-5.6c.4-.1.8.1 1 .5.1.4-.1.8-.5 1l-15.7 5.6c-.1 0-.2 0-.3 0z"/><path d="m233.02 47.5c-.3 0-.6-.2-.7-.5-.1-.4.1-.8.5-1l26-9.3c.4-.1.8.1 1 .5.1.4-.1.8-.5 1l-26 9.3c-.1 0-.2 0-.3 0z"/></g><path d="m249.62 14 9.6 6.3 1.1-10.2z" fill="#ff20b5"/><path d="m206.02 16.4c-.2 0-.3-.1-.5-.2l-9.2-7.70003c-.3-.3-.4-.69997-.1-1.09997.3-.3.7-.40004 1.1-.10004l9.2 7.70004c.3.3.4.7.1 1.1-.1.2-.4.3-.6.3z" fill="#ff20b5"/><path d="m201.62 22c-.1 0-.1 0-.2 0l-4.2-1c-.4-.1-.6-.5-.6-.9s.5-.6.9-.6l4.2 1c.4.1.6.5.6.9-.1.3-.4.6-.7.6z" fill="#52ddae"/><path d="m275.898 10.8041c2.236-.8005 3.4-3.26208 2.599-5.49797-.8-2.2359-3.262-3.39947-5.498-2.59892-2.236.80056-3.399 3.26207-2.599 5.49797.801 2.23592 3.262 3.39952 5.498 2.59892z" fill="#ff20b5"/><path d="m280.198 23.0292c2.236-.8005 3.4-3.262 2.599-5.4979-.8-2.2359-3.262-3.3995-5.498-2.5989-2.235.8005-3.399 3.262-2.598 5.4979.8 2.2359 3.262 3.3995 5.497 2.5989z" fill="#ff20b5"/><path d="m286.035 33.3769-3.672 1.3147 6.607 18.4534 3.672-1.3147z" fill="#ff20b5"/><path d="m273.62 32.4 17 47.5-23.5 8.4c-.3-.7-.5-1.4-.8-2-6.7-18.8-3.4-38.7 7.3-53.9z" fill="#fff"/><path d="m266.72 89.3-.3-.7c-.3-.7-.5-1.4-.8-2.1-6.5-18.2-3.8-38.6 7.3-54.5l.8-1.2 17.7 49.6zm6.6-55.2c-10.2 15.3-12.5 34.6-6.3 52 .2.5.3.9.5 1.4l22.1-7.9z" fill="#b2ffe5"/><path d="m224.319 58.7c3.8-8.7 14.8-14.1 16.5-9.1s-6.2 6.5-6.2 6.5.5 11-3.1 13.3" fill="#fff"/><path d="m231.52 70.1c-.3 0-.5-.1-.6-.4-.2-.4-.1-.8.2-1 2.7-1.7 2.9-9.6 2.8-12.6v-.7l.6-.1s4.2-.8 5.5-3c.4-.7.5-1.5.2-2.5-.3-.9-1-1.4-2.1-1.4-3.8-.2-10.3 4.4-13 10.5-.2.4-.6.6-1 .4s-.6-.6-.4-1c3-6.8 10.1-11.6 14.5-11.4 1.7.1 2.9.9 3.4 2.4.4 1.3.3 2.6-.3 3.7-1.3 2.2-4.5 3.3-5.8 3.6.1 2.6 0 11.1-3.5 13.3-.3.2-.4.2-.5.2z" fill="#1d319d"/><path d="m169.32 52.2c-22.3 2.5-32 21.7-39.8 43.7s-6.7 20.6-6.7 20.6l53.3 1.5s-8.2-17.5-3.4-25.4c4.9-7.9 20.5-30.6-3.4-40.4z" fill="#1d319d"/><path d="m177.42 118.8-54.2-1.6-.2.2-.6-.3c-.7-.4-1-.6 6.4-21.5 7.1-20 16.6-41.5 40.4-44.2h.2l.2.1c6.7 2.7 10.9 6.7 12.6 11.8 3.3 10.1-4 21.9-7.9 28.3-.3.5-.6.9-.8 1.3-4.6 7.5 3.4 24.5 3.4 24.7zm-53.7-3 51.3 1.5c-1.7-4-7.2-17.9-2.9-25 .2-.4.5-.9.8-1.3 3.8-6.1 10.9-17.6 7.8-27-1.5-4.6-5.4-8.3-11.5-10.9-22.7 2.7-32 23.7-38.9 43.2-4.8 13.5-6.2 18-6.6 19.5z" fill="#1d319d"/><path d="m173.419 90.8c-.2 0-.4-.1-.5-.2-.3-.3-.3-.8 0-1.1 4.8-4.9 8.9-15.6 7.6-26.5 0-.4.2-.8.7-.8.4-.1.8.2.8.7 1.4 11.4-3 22.6-8 27.7-.2.1-.4.2-.6.2z" fill="#fff"/><path d="m166.92 72.3h-97.4005v57.4h97.4005z" fill="#ff20b5"/><path d="m81.5197 117.8c-.4 0-.8-.3-.8-.8v-28.2c0-.4.3-.8.8-.8s.8001.3.8001.8v28.2c-.1.5-.4001.8-.8001.8z" fill="#fff"/><path d="m91.3196 117.8c-.4 0-.8001-.3-.8001-.8v-17.7c0-.4.3001-.8.8001-.8s.8.3.8.8v17.7c-.1.5-.4.8-.8.8z" fill="#fff"/><path d="m152.019 102.2c-.2 0-.4-.1-.5-.2-.3-.3-.3-.8 0-1.1l7.2-6.9-11.3-7.3c-.3-.2-.4-.7-.2-1s.7-.4 1-.2l12.9 8.4-8.5 8.2c-.2 0-.4.1-.6.1z" fill="#fff"/><path d="m64.5195 86v15.4l-11.5-8.5z" fill="#52ddae"/><path d="m104.961 53.0995-24.3633 16.9854 16.9854 24.3629 24.3629-16.9854z" fill="#fff"/><path d="m97.3196 95.5-17.8001-25.6 25.6005-17.8 17.8 25.6zm-15.7-25.2 16.0999 23.1 23.1005-16.1-16.1-23.1z" fill="#52ddae"/><path d="m100.419 67.3 14.2-19.3s7.4 7.5 4.2 15.6c-4.3 10.2-18.4 3.7-18.4 3.7z" fill="#ff20b5"/><path d="m78.5195 57.4c1.6569 0 3-1.3431 3-3 0-1.6568-1.3431-3-3-3-1.6568 0-3 1.3432-3 3 0 1.6569 1.3432 3 3 3z" fill="#ff20b5"/><path d="m124.419 101.7c-6.8-.9-13.7-1.4-20.5-2.9-6.5996 19.7-5.0996 36.6 2.1 35.2 0 0 1.7 2.1 5.8.9 0 0 2 1.3 4.1.6.8-.2 1.3-.7 1.7-1.3 0 0 0 .1.1.1 2.1 2 6-4.1 6.5-7.7.6-4.3-1.3-7.8-3.5-10.1.6-4.2 1.7-9.4 3.7-14.8z" fill="#fff"/><path d="m114.719 136.5c-1.3 0-2.4-.5-2.9-.8-3.4.9-5.3-.3-6-.9-1.5.2-2.9-.4-4-1.6-4.2996-4.9-3.6996-19.5 1.4-34.6l.2-.6.7.1c4.7 1 9.5 1.6 14.2 2.1 2.1.2 4.1.5 6.2.8l.9.1-.3.9c-2.1 5.5-3.1 10.8-3.6 14.3 1.7 1.8 4.2 5.4 3.5 10.5-.4 3-3 7.7-5.4 8.6-.6.2-1.2.2-1.7 0-.4.4-1 .8-1.6 1-.6.1-1.1.1-1.6.1zm-2.7-2.3.3.2s1.7 1.1 3.5.5c.6-.2 1-.5 1.3-1l.5-.7.7.7c.1.1.4.3.8.1 1.7-.6 4.1-4.6 4.4-7.3.6-4.7-1.8-8-3.3-9.5l-.3-.3.1-.4c.5-3.5 1.5-8.6 3.4-14.1-1.8-.2-3.5-.4-5.3-.6-4.5-.5-9.1-1.1-13.7-2-5.0996 15.6-4.7996 28.7-1.5 32.5.8.9 1.8 1.3 2.9 1.1l.4-.1.3.4c.1.1 1.5 1.7 5 .7z" fill="#1d319d"/><path d="m169.319 52.2s-1.1 3.5-4.3 8.2c-3.8 5.7-22.3 16.1-32.2 26.9-4.7 5.1-7.5 11.4-9.4 17.4-6.5-2-18.4-3.6-25.0997-5 .8-2.5 1.6997-5 2.7997-7.5 11-25.9 35.1-39.7 56.4-40.7 4.1-.3 8.1 0 11.8.7z" fill="#1d319d"/><path d="m123.919 105.6-.7-.2c-4-1.2-10.2-2.3-15.6-3.3-3.5-.6-6.8-1.2-9.3996-1.8l-.8-.2.3-.8c.9-2.7 1.8-5.2 2.7996-7.6 12.3-29 38.4-40.3 57-41.2 4.1-.2 8.2.1 12 .8l.8.2-.3.8c0 .1-1.2 3.6-4.4 8.3-1.9 2.8-7.1 6.7-13.1 11.1-6.6 4.8-14.1 10.3-19.2 15.9-3.9 4.3-6.9 9.9-9.3 17.1zm-24.5995-6.5c2.3995.5 5.3995 1 8.4995 1.6 5.5 1 11.1 1.9 15.1 3.1 2.4-7.1 5.4-12.7 9.4-17 5.3-5.7 12.8-11.3 19.4-16.1 5.9-4.3 11-8.1 12.7-10.7 2.2-3.3 3.4-5.9 3.9-7.2-3.5-.6-7.1-.8-10.8-.6-18.2.9-43.7 12-55.7 40.3-.9 2.1-1.7 4.3-2.4995 6.6z" fill="#1d319d"/><path d="m111.919 125.5c-.9 2.9-1.1 5.8-.7 8.7.1.6 1.1.4 1-.3-.4-2.8-.2-5.5.7-8.2.2-.5-.8-.8-1-.2z" fill="#1d319d"/><path d="m106.219 125.4c.1-.6-.9-.9-1-.3-.4 2.4-.3 4.7-.1 7.1 0 .6 1 .6 1 0-.1-2.2-.3-4.5.1-6.8z" fill="#1d319d"/><path d="m121.719 125.2c-1.3-.2-2.1.8-2.5 1.9-.8 1.9-1.199 3.9-1.399 5.9-.1.6.9.6 1 0 .2-1.5.8-7.1 3-6.8.5.1.499-.9-.101-1z" fill="#1d319d"/><path d="m177.82 55.9c0 .1-.1.1-.1.2-.2.3-.4.6-.6.9-1.8 2.4-4.8 3.6-7.7 3.8-.1 0-.3 0-.4 0-1.4.1-2.7-.1-3.9-.4-2.9-.8-5.3-2.8-6.6-5.3-.6-1.1-.9-2.4-1-3.7 4.1-.2 8 .1 11.8.8 3.3.6 6.1 1.9 8.5 3.7z" fill="#fff"/><path d="m168.319 61.6c-1.2 0-2.3-.2-3.4-.5-3.1-.9-5.7-2.9-7-5.7-.6-1.2-1-2.6-1.1-4v-.7h.7c4.1-.2 8.2.1 12 .8 3.1.5 6.1 1.8 8.8 3.8l.5.3-.2.5c0 .1-.1.2-.1.2-.2.4-.5.8-.7 1-1.8 2.3-4.8 3.8-8.3 4.1-.1 0-.2 0-.4 0-.3.2-.6.2-.8.2zm-9.9-9.5c.1.9.4 1.8.8 2.6 1.2 2.3 3.4 4.1 6.1 4.9 1.2.3 2.4.5 3.7.4h.3c3.1-.3 5.7-1.6 7.2-3.5.1-.1.2-.3.3-.4-2.3-1.6-4.9-2.7-7.6-3.1-3.5-.7-7.1-1-10.8-.9z" fill="#1d319d"/></svg>