<svg width="216" height="228" viewBox="0 0 216 228" fill="none" xmlns="http://www.w3.org/2000/svg">
<path d="M131.788 88.6679L175.488 84.9679L172.988 120.868L134.988 123.368L131.788 88.6679Z" fill="white"/>
<path d="M174.687 85.7679L172.187 120.168L135.587 122.568L132.487 89.2679L174.687 85.7679ZM176.387 84.0679L131.087 87.9679L134.387 124.168L173.687 121.568L176.387 84.0679Z" fill="#1D319D"/>
<path d="M148.487 115.568C148.087 115.568 147.787 115.268 147.787 114.868L146.487 104.668L141.887 103.168C141.487 103.068 141.287 102.568 141.387 102.268C141.487 101.868 141.987 101.668 142.287 101.768L147.687 103.568L149.087 114.668C149.287 115.068 148.987 115.468 148.487 115.568C148.587 115.568 148.587 115.568 148.487 115.568Z" fill="#1D319D"/>
<path d="M129.387 25.468C135.787 23.468 154.487 18.568 170.387 45.168C186.387 71.768 176.287 94.668 176.287 94.668L128.387 92.2679C128.387 92.2679 126.887 65.268 122.587 47.968C121.687 44.268 119.187 28.668 129.387 25.468Z" fill="#1D319D"/>
<path d="M93.1871 87.2679C99.0871 90.7679 102.187 99.5679 102.187 99.5679L96.9871 100.868C96.9871 100.868 93.0871 96.0679 89.9871 96.0679C86.8871 96.0679 93.1871 87.2679 93.1871 87.2679Z" fill="white"/>
<path d="M96.5872 101.668L96.2872 101.268C95.2872 99.9679 92.0873 96.7679 89.8873 96.7679C88.9873 96.7679 88.5872 96.268 88.4872 95.968C87.4872 94.068 90.9872 88.9679 92.5872 86.7679L92.9872 86.168L93.5872 86.468C99.5872 90.068 102.787 98.7679 102.887 99.0679L103.187 99.868L96.5872 101.668ZM89.7872 95.2679C89.7872 95.2679 89.8872 95.2679 89.7872 95.2679C92.7872 95.2679 96.0872 98.768 97.1872 99.968L101.087 98.968C100.187 96.868 97.5872 91.1679 93.2872 88.2679C91.1872 91.4679 89.5872 94.5679 89.7872 95.2679Z" fill="#1D319D"/>
<path d="M127.487 127.568H53.7873L51.9873 124.568L71.0873 112.968L105.687 91.8679L118.587 112.968L127.487 127.568Z" fill="white"/>
<path d="M105.387 92.8679L118.087 113.768L126.087 126.768H54.2873L53.0873 124.768L70.3873 114.168L105.387 92.8679ZM105.887 90.8679L69.5873 112.968L50.9873 124.368L53.3873 128.368H128.787L119.487 113.068L105.887 90.8679Z" fill="#FF20B5"/>
<path d="M74.7874 120.368C74.4874 120.368 74.2874 120.268 74.1874 119.968C73.9874 119.568 74.0874 119.168 74.4874 118.968L101.487 102.468C101.887 102.268 102.287 102.368 102.487 102.668C102.687 103.068 102.587 103.468 102.187 103.668L75.1874 120.168C74.9874 120.368 74.8874 120.368 74.7874 120.368Z" fill="#FF20B5"/>
<path d="M79.5872 128.368C79.2872 128.368 79.0872 128.268 78.9872 127.968C78.7872 127.568 78.8872 127.168 79.2872 126.968L106.287 110.468C106.687 110.268 107.087 110.368 107.287 110.668C107.487 111.068 107.387 111.468 106.987 111.668L79.9872 128.168C79.8872 128.368 79.7872 128.368 79.5872 128.368Z" fill="#FF20B5"/>
<path d="M94.5874 88.2679C93.9874 86.4679 93.4875 83.9679 95.3875 81.0679C89.0875 80.2679 82.8874 79.6679 76.5874 79.3679C72.8874 88.2679 74.0874 96.9679 75.7874 104.868C78.7874 118.568 83.3875 114.468 83.3875 114.468C83.3875 114.468 85.9874 116.268 88.5874 113.168C88.5874 113.168 92.3874 115.568 93.6874 112.068C94.9874 108.568 89.3874 103.268 91.2874 99.7679C91.7874 98.8679 92.3874 98.0679 92.9874 97.2679" fill="white"/>
<path d="M81.6873 115.768C81.3873 115.768 81.0873 115.768 80.6873 115.568C78.2873 114.768 76.3873 111.268 74.9873 104.968C73.1873 96.7679 72.0873 87.9679 75.7873 79.0679L75.9873 78.5679H76.4873C82.9873 78.8679 89.3873 79.5679 95.3873 80.2679L96.5872 80.3679L95.9873 81.3679C94.2873 83.9679 94.6873 86.1679 95.2873 87.9679C95.3873 88.3679 95.1873 88.7679 94.7873 88.9679C94.3873 89.0679 93.9873 88.8679 93.7873 88.4679C93.1873 86.6679 92.6872 84.3679 94.0872 81.6679C88.6872 80.9679 82.8873 80.3679 76.9873 80.0679C73.6873 88.4679 74.7873 96.7679 76.4873 104.668C78.0873 112.068 80.0873 113.768 81.1873 114.168C82.0873 114.468 82.7873 113.868 82.8873 113.868L83.2873 113.468L83.7873 113.768C83.9873 113.868 85.8873 115.068 87.9873 112.568L88.3873 112.068L88.9873 112.368C89.3873 112.668 90.7873 113.268 91.7873 112.968C92.2873 112.768 92.6873 112.368 92.9873 111.668C93.4873 110.268 92.5873 108.368 91.6873 106.368C90.5873 103.968 89.3872 101.368 90.5872 99.2679C91.0872 98.2679 91.7873 97.4679 92.3873 96.6679C92.6873 96.3679 93.0873 96.2679 93.4873 96.5679C93.7873 96.8679 93.8872 97.2679 93.5872 97.6679C92.9872 98.3679 92.3873 99.1679 91.8873 100.068C91.0873 101.568 92.0873 103.768 92.9873 105.868C93.9873 108.068 94.9873 110.368 94.2873 112.268C93.8873 113.368 93.1873 114.168 92.1873 114.468C90.8873 114.868 89.3873 114.368 88.6873 114.068C86.6873 116.068 84.5873 115.868 83.3873 115.368C82.9873 115.568 82.4873 115.768 81.6873 115.768Z" fill="#1D319D"/>
<path d="M83.7874 101.268C82.9874 104.968 85.1874 108.068 87.2874 110.868C87.6874 111.368 88.4874 110.868 88.0874 110.368C86.0874 107.868 83.9874 104.968 84.6874 101.468C84.9874 100.868 83.9874 100.668 83.7874 101.268Z" fill="#1D319D"/>
<path d="M78.6872 104.368C79.0872 107.668 79.6872 111.068 82.6872 112.968C83.1872 113.268 83.6872 112.368 83.1872 112.068C80.4872 110.468 80.0872 107.168 79.6872 104.368C79.5872 103.668 78.5872 103.668 78.6872 104.368Z" fill="#1D319D"/>
<path d="M72.8873 89.168C72.7873 70.668 79.9872 44.4679 98.4872 32.2679C122.487 16.3679 139.587 23.868 139.587 23.868V45.868C139.587 45.868 118.687 37.168 105.987 57.668C96.2872 73.268 99.5872 84.168 99.5872 84.168L72.8873 89.168Z" fill="#1D319D"/>
<path d="M122.387 44.968C121.987 44.968 121.687 44.6679 121.687 44.2679L120.987 38.468C120.887 38.068 121.187 37.668 121.687 37.668C122.087 37.668 122.487 37.868 122.487 38.368L123.187 44.168C123.187 44.568 122.887 44.968 122.387 44.968C122.487 44.968 122.387 44.968 122.387 44.968Z" fill="white"/>
<path d="M35.0874 49.968L10.5874 65.168L41.1874 128.268L65.6874 113.168L35.0874 49.968Z" fill="#52DDAE"/>
<path d="M107.987 82.2679C107.587 82.2679 107.287 81.9679 107.187 81.5679L107.087 74.3679C107.087 73.9679 107.387 73.5679 107.787 73.5679C108.187 73.5679 108.587 73.8679 108.587 74.2679L108.687 81.4679C108.787 81.8679 108.487 82.2679 107.987 82.2679C108.087 82.2679 107.987 82.2679 107.987 82.2679Z" fill="#52DDAE"/>
<path d="M112.387 85.2678C112.287 85.2678 112.187 85.2678 112.087 85.1678C111.687 84.9678 111.587 84.5678 111.687 84.1678L114.187 78.7678C114.387 78.3678 114.787 78.2679 115.187 78.3679C115.587 78.5679 115.687 78.9679 115.587 79.3679L113.087 84.7678C112.987 85.0678 112.687 85.2678 112.387 85.2678Z" fill="#52DDAE"/>
<path d="M58.987 84.0679C56.787 84.0679 54.1871 83.2679 51.8871 80.5679C51.2871 79.7679 50.687 78.9679 50.087 78.1679C47.787 74.7679 46.0871 72.3679 40.3871 75.0679C39.9871 75.2679 39.5871 75.0679 39.3871 74.6679C39.1871 74.2679 39.387 73.8679 39.787 73.6679C46.587 70.4679 48.987 73.9679 51.287 77.2679C51.787 78.0679 52.387 78.8679 52.987 79.5679C57.187 84.5679 62.487 81.768 62.687 81.6679C63.087 81.4679 63.487 81.5679 63.687 81.9679C63.8871 82.3679 63.7871 82.7679 63.3871 82.9679C63.4871 82.9679 61.587 84.0679 58.987 84.0679Z" fill="#FF20B5"/>
<path d="M57.6873 89.168C55.4873 89.168 52.8872 88.368 50.5872 85.668C49.9872 84.868 49.3873 84.0679 48.7873 83.2679C46.4873 79.8679 44.7872 77.468 39.0872 80.168C38.6872 80.368 38.2872 80.1679 38.0872 79.7679C37.8872 79.3679 38.0873 78.9679 38.4873 78.7679C45.2873 75.5679 47.6873 78.968 49.9873 82.368C50.4873 83.168 51.0873 83.968 51.6873 84.668C55.8873 89.668 61.1873 86.8679 61.3873 86.7679C61.7873 86.5679 62.1873 86.6679 62.3873 87.0679C62.5873 87.4679 62.4872 87.8679 62.0872 88.0679C62.1872 88.0679 60.1873 89.168 57.6873 89.168Z" fill="#FF20B5"/>
<path d="M47.9874 44.2678L45.5874 54.5678L55.2874 50.9678L47.9874 44.2678Z" fill="white"/>
<path d="M44.5874 55.7679L47.4874 42.8679L56.6874 51.2679L44.5874 55.7679ZM48.3875 45.6679L46.6874 53.3679L53.8875 50.6679L48.3875 45.6679Z" fill="#FF20B5"/>
<path d="M13.784 87.3191L7.91504 81.4502L2.04612 87.3191L7.91504 93.188L13.784 87.3191Z" fill="white"/>
<path d="M7.88733 94.1679L0.987305 87.2679L7.88733 80.3679L14.7873 87.2679L7.88733 94.1679ZM3.08728 87.2679L7.88733 92.0679L12.6873 87.2679L7.88733 82.4679L3.08728 87.2679Z" fill="#FF20B5"/>
<path d="M110.187 123.168C109.987 123.168 109.887 123.068 109.687 122.968L106.487 120.168C106.187 119.868 106.087 119.468 106.387 119.068C106.687 118.768 107.087 118.668 107.487 118.968L110.687 121.768C110.987 122.068 111.087 122.468 110.787 122.868C110.587 123.068 110.387 123.168 110.187 123.168Z" fill="#52DDAE"/>
<path d="M63.0872 66.6679C62.9872 66.6679 62.8872 66.6679 62.7872 66.5679C62.3872 66.3679 62.2872 65.9679 62.4872 65.5679L65.7872 58.8679C65.9872 58.4679 66.3872 58.3679 66.7872 58.5679C67.1872 58.7679 67.2872 59.1679 67.0872 59.5679L63.7872 66.2679C63.6872 66.5679 63.3872 66.6679 63.0872 66.6679Z" fill="#52DDAE"/>
<path d="M134.387 80.1679C134.187 80.1679 133.987 80.0679 133.887 79.9679C133.587 79.6679 133.587 79.1679 133.887 78.8679L140.187 72.5679C140.487 72.2679 140.987 72.2679 141.287 72.5679C141.587 72.8679 141.587 73.3679 141.287 73.6679L134.987 79.9679C134.687 80.0679 134.587 80.1679 134.387 80.1679Z" fill="#52DDAE"/>
<path d="M122.387 97.968C121.987 97.968 121.687 97.6679 121.687 97.2679L121.287 93.468C121.287 93.068 121.587 92.668 121.987 92.668C122.387 92.668 122.787 92.968 122.787 93.368L123.187 97.168C123.187 97.568 122.887 97.968 122.387 97.968Z" fill="#52DDAE"/>
<path d="M144.587 87.9679L149.587 84.0679L150.587 90.8679L144.587 87.9679Z" fill="white"/>
<path d="M162.987 128.268H41.1875V227.168H162.987V128.268Z" fill="#52DDAE"/>
<path d="M187.187 211.868L162.987 227.268V128.268L187.187 112.968V211.868Z" fill="#52DDAE"/>
<path d="M111.487 189.968H41.9873V226.468H111.487V189.968Z" fill="white"/>
<path d="M110.688 190.668V225.668H42.6875V190.668H110.688ZM112.188 189.168H41.1875V227.168H112.188V189.168Z" fill="#B2FFE5"/>
<path d="M90.1875 226.268C89.9875 226.268 89.8875 226.268 89.7875 226.168L42.2875 191.468C41.9875 191.268 41.8874 190.768 42.0874 190.468C42.2874 190.168 42.7874 190.068 43.0874 190.268L90.5874 224.968C90.8874 225.168 90.9875 225.668 90.7875 225.968C90.6875 226.168 90.3875 226.268 90.1875 226.268Z" fill="#B2FFE5"/>
<path d="M63.0873 226.268C62.8873 226.268 62.5873 226.168 62.4873 225.968C62.2873 225.668 62.2873 225.168 62.6873 224.968L109.787 190.268C110.087 190.068 110.587 190.068 110.787 190.468C110.987 190.768 110.987 191.268 110.587 191.468L63.4873 226.168C63.3873 226.268 63.2873 226.268 63.0873 226.268Z" fill="#B2FFE5"/>
<path d="M162.987 222.468C162.587 222.468 162.188 222.168 162.188 221.668V135.168C162.188 134.768 162.487 134.368 162.987 134.368C163.487 134.368 163.787 134.668 163.787 135.168V221.668C163.787 222.168 163.487 222.468 162.987 222.468Z" fill="white"/>
<path d="M78.3875 128.268V128.468C78.3875 154.368 61.8875 166.768 41.1875 167.468V128.368H78.3875V128.268Z" fill="#1D319D"/>
<path d="M68.1875 162.268L59.6875 169.168L70.1875 173.768L68.1875 162.268Z" fill="#1D319D"/>
<path d="M148.588 150.168H88.8877V156.168H148.588V150.168Z" fill="white"/>
<path d="M124.688 167.468H114.287C113.087 167.468 112.188 166.468 112.188 165.368C112.188 164.168 113.187 163.268 114.287 163.268H124.688C125.887 163.268 126.787 164.268 126.787 165.368C126.887 166.468 125.887 167.468 124.688 167.468Z" fill="#1D319D"/>
<path d="M136.087 167.468H132.587C131.387 167.468 130.487 166.468 130.487 165.368C130.487 164.168 131.487 163.268 132.587 163.268H136.087C137.287 163.268 138.187 164.268 138.187 165.368C138.287 166.468 137.287 167.468 136.087 167.468Z" fill="#1D319D"/>
<path d="M146.388 167.468H142.888C141.688 167.468 140.788 166.468 140.788 165.368C140.788 164.168 141.788 163.268 142.888 163.268H146.388C147.588 163.268 148.488 164.268 148.488 165.368C148.488 166.468 147.588 167.468 146.388 167.468Z" fill="#1D319D"/>
<path d="M196.387 142.768H192.487V185.268H196.387V142.768Z" fill="#1D319D"/>
<path d="M187.188 112.968L173.688 121.568L163.087 128.368H41.1875L65.2875 112.968H71.0875L51.9875 124.568L53.7875 127.568H127.487L118.587 112.968H187.188Z" fill="#1D319D"/>
<path d="M127.888 127.568C135.188 123.068 145.088 120.768 157.288 120.768C160.888 120.768 164.688 120.968 168.688 121.368C169.888 121.468 170.888 121.668 171.788 121.868L162.788 127.568H127.888Z" fill="white"/>
<path d="M157.288 120.068V121.568C160.888 121.568 164.688 121.768 168.588 122.168C168.988 122.168 169.388 122.268 169.788 122.268L162.688 126.768H130.788C137.688 123.268 146.588 121.468 157.288 121.468V120.068ZM157.288 120.068C145.088 120.068 133.788 122.268 125.388 128.368H163.088L173.688 121.668C172.488 121.268 170.888 120.968 168.788 120.668C164.888 120.268 161.088 120.068 157.288 120.068Z" fill="#1D319D"/>
<path d="M35.1875 103.268H35.0875L22.9875 101.068C22.5875 100.968 22.2875 100.568 22.3875 100.168C22.4875 99.768 22.8875 99.468 23.2875 99.568L35.3875 101.768C35.7875 101.868 36.0875 102.268 35.9875 102.668C35.8875 102.968 35.5875 103.268 35.1875 103.268Z" fill="#FF20B5"/>
<path d="M28.0875 108.168H27.9875C27.5875 108.068 27.2875 107.668 27.3875 107.268L29.5875 95.168C29.6875 94.768 30.0875 94.468 30.4875 94.568C30.8875 94.668 31.1875 95.068 31.0875 95.468L28.8875 107.568C28.6875 107.868 28.3875 108.168 28.0875 108.168Z" fill="#FF20B5"/>
<path d="M122.388 119.968C127.082 119.968 130.888 116.162 130.888 111.468C130.888 106.774 127.082 102.968 122.388 102.968C117.693 102.968 113.888 106.774 113.888 111.468C113.888 116.162 117.693 119.968 122.388 119.968Z" fill="white"/>
<path d="M122.387 120.768C117.287 120.768 113.087 116.568 113.087 111.468C113.087 106.368 117.287 102.168 122.387 102.168C127.487 102.168 131.687 106.368 131.687 111.468C131.687 116.568 127.487 120.768 122.387 120.768ZM122.387 103.668C118.087 103.668 114.587 107.168 114.587 111.468C114.587 115.768 118.087 119.268 122.387 119.268C126.687 119.268 130.187 115.768 130.187 111.468C130.187 107.168 126.687 103.668 122.387 103.668Z" fill="#FF20B5"/>
<path d="M55.1874 94.7679L53.5874 112.968L68.5874 106.168L55.1874 94.7679Z" fill="white"/>
<path d="M52.7876 114.168L54.5876 93.2679L69.9876 106.368L52.7876 114.168ZM55.7876 96.2679L54.4876 111.768L67.2876 105.968L55.7876 96.2679Z" fill="#FF20B5"/>
<path d="M196.387 74.3679L172.287 89.6679L162.987 128.468L187.187 113.168L196.387 74.3679Z" fill="#52DDAE"/>
<path d="M165.787 127.368C165.587 127.368 165.287 127.268 165.187 127.068C164.987 126.768 165.087 126.268 165.387 126.068L183.987 114.268C184.287 114.068 184.787 114.168 184.987 114.468C185.187 114.768 185.087 115.268 184.787 115.468L166.187 127.268C166.087 127.268 165.887 127.368 165.787 127.368Z" fill="white"/>
<path d="M141.188 22.868C169.987 21.668 196.787 29.8679 206.087 41.4679C216.287 54.1679 211.087 79.168 198.587 85.668C195.487 87.268 191.987 87.6679 190.087 88.5679C184.287 91.2679 182.987 90.9679 181.087 89.4679C181.087 89.4679 176.288 92.4679 174.888 88.7679C174.888 88.7679 173.087 93.4679 169.688 92.2679C166.388 91.0679 170.387 81.7679 179.487 76.9679C188.587 72.1679 193.287 60.1679 188.188 52.9679C182.987 45.7679 151.487 36.9679 151.487 36.9679L141.188 22.868Z" fill="white"/>
<path d="M170.787 93.268C170.387 93.268 169.987 93.1679 169.487 93.0679C168.487 92.7679 167.887 91.868 167.787 90.668C167.487 86.868 172.088 80.068 179.188 76.368C184.088 73.768 187.888 68.8679 189.188 63.5679C190.088 59.7679 189.487 56.168 187.587 53.468C182.587 46.568 151.687 37.868 151.287 37.768L151.087 37.668L139.688 22.168L141.087 22.0679C169.387 20.8679 196.888 28.868 206.688 40.968C211.688 47.268 213.488 56.968 211.388 66.968C209.488 75.968 204.887 83.168 198.987 86.268C197.087 87.268 195.088 87.768 193.388 88.268C192.188 88.568 191.187 88.868 190.487 89.168C184.987 91.768 183.187 91.768 181.087 90.268C180.187 90.768 178.088 91.6679 176.388 91.0679C175.888 90.8679 175.387 90.568 175.087 90.168C174.187 91.768 172.687 93.268 170.787 93.268ZM152.087 36.368C155.287 37.268 183.888 45.5679 188.888 52.5679C191.088 55.5679 191.688 59.568 190.688 63.868C189.388 69.568 185.188 74.868 179.888 77.668C172.988 81.268 169.087 87.5679 169.287 90.5679C169.387 91.4679 169.787 91.568 169.987 91.668C172.587 92.568 174.188 88.6679 174.188 88.5679L174.888 86.768L175.587 88.5679C175.787 89.2679 176.187 89.668 176.787 89.768C178.087 90.168 180.088 89.268 180.688 88.868L181.188 88.5679L181.587 88.868C183.087 90.068 184.087 90.568 189.787 87.868C190.687 87.468 191.688 87.168 192.888 86.868C194.588 86.368 196.487 85.868 198.188 84.968C203.688 82.068 208.088 75.268 209.888 66.768C211.888 57.168 210.287 47.968 205.487 41.968C196.187 30.368 169.887 22.7679 142.587 23.5679L152.087 36.368Z" fill="#1D319D"/>
<path d="M188.288 52.9679C191.088 56.7679 190.988 62.0679 188.988 66.7679C195.488 69.1679 205.288 71.4679 211.588 74.3679C216.488 64.0679 216.588 48.9679 208.888 40.8679C193.888 25.3679 170.088 21.5679 141.288 22.7679L154.888 46.2679C154.788 46.2679 183.088 45.8679 188.288 52.9679Z" fill="#1D319D"/>
<path d="M180.988 79.9679C178.388 81.7679 176.288 84.0679 174.888 86.8679C174.588 87.4679 175.487 87.9679 175.787 87.3679C177.187 84.6679 179.087 82.4679 181.587 80.8679C181.987 80.4679 181.488 79.6679 180.988 79.9679Z" fill="#1D319D"/>
<path d="M186.488 82.068C184.388 83.568 182.788 85.468 181.588 87.768C181.288 88.368 182.188 88.868 182.488 88.268C183.588 86.168 185.088 84.368 186.988 82.968C187.488 82.568 186.988 81.768 186.488 82.068Z" fill="#1D319D"/>
<path d="M168.787 47.868C168.687 47.868 168.687 47.868 168.587 47.868L164.487 46.5679C164.087 46.4679 163.887 46.0679 163.987 45.6679C164.087 45.2679 164.487 45.0679 164.887 45.1679L168.987 46.4679C169.387 46.5679 169.587 46.968 169.487 47.368C169.387 47.668 169.087 47.868 168.787 47.868Z" fill="#1D319D"/>
<path d="M30.7876 174.468C30.5876 174.468 30.3876 174.368 30.2876 174.268L14.3876 158.368C14.0876 158.068 14.0876 157.568 14.3876 157.268C14.6876 156.968 15.1876 156.968 15.4876 157.268L31.3876 173.168C31.6876 173.468 31.6876 173.968 31.3876 174.268C31.1876 174.468 30.9876 174.468 30.7876 174.468Z" fill="#FF20B5"/>
<path d="M14.8876 174.468C14.6876 174.468 14.4876 174.368 14.3876 174.268C14.0876 173.968 14.0876 173.468 14.3876 173.168L30.2876 157.268C30.5876 156.968 31.0876 156.968 31.3876 157.268C31.6876 157.568 31.6876 158.068 31.3876 158.368L15.4876 174.268C15.2876 174.468 15.0876 174.468 14.8876 174.468Z" fill="#FF20B5"/>
<path d="M30.7874 188.168H14.8875C14.4875 188.168 14.0874 187.868 14.0874 187.368C14.0874 186.868 14.3875 186.568 14.8875 186.568H30.7874C31.1874 186.568 31.5874 186.868 31.5874 187.368C31.5874 187.868 31.1874 188.168 30.7874 188.168Z" fill="#FF20B5"/>
<path d="M144.888 11.868C144.588 11.168 144.188 10.468 143.688 9.76797C143.688 9.76797 143.688 9.76799 143.688 9.66799C139.088 3.06799 130.688 1.06799 124.788 5.16799C121.988 7.16799 120.388 10.268 119.988 13.668C119.488 17.368 120.888 21.168 122.388 24.468C125.788 32.068 133.488 35.468 141.288 28.968C142.988 27.568 144.288 25.768 145.188 23.668C148.188 23.068 149.988 20.868 150.288 18.168C150.588 15.068 148.288 11.568 144.888 11.868Z" fill="white"/>
<path d="M132.888 33.168C132.088 33.168 131.288 33.068 130.488 32.868C126.788 31.968 123.488 29.068 121.588 24.768C120.188 21.668 118.588 17.568 119.188 13.568C119.688 9.66796 121.488 6.46796 124.288 4.56796C127.088 2.66796 130.588 1.86796 134.088 2.56796C138.088 3.26796 141.788 5.76797 144.288 9.26797C144.688 9.86797 145.088 10.468 145.388 11.168C146.788 11.168 148.088 11.768 149.188 12.868C150.588 14.268 151.288 16.368 150.988 18.368C150.588 21.468 148.588 23.768 145.688 24.468C144.788 26.468 143.388 28.268 141.688 29.668C138.788 31.968 135.788 33.168 132.888 33.168ZM131.588 3.76797C129.288 3.76797 126.988 4.46797 125.088 5.76797C122.588 7.46797 121.088 10.268 120.588 13.768C120.088 17.368 121.488 21.068 122.888 24.168C124.588 27.968 127.488 30.668 130.788 31.468C133.988 32.168 137.388 31.168 140.688 28.468C142.288 27.168 143.588 25.468 144.388 23.468L144.588 23.068L144.988 22.968C147.488 22.468 149.188 20.668 149.488 18.068C149.688 16.568 149.088 14.868 148.088 13.768C147.488 13.168 146.488 12.468 144.988 12.568H144.488L144.288 12.068C143.888 11.268 143.588 10.668 143.188 10.068C140.888 6.76796 137.588 4.56801 133.888 3.86801C133.088 3.86801 132.288 3.76797 131.588 3.76797Z" fill="#1D319D"/>
<path d="M131.642 19.1743C131.939 18.709 131.803 18.0906 131.338 17.7932C130.872 17.4958 130.254 17.632 129.956 18.0973C129.659 18.5627 129.795 19.181 130.261 19.4784C130.726 19.7758 131.344 19.6397 131.642 19.1743Z" fill="#1D319D"/>
<path d="M127.187 26.268C126.187 24.268 125.487 22.168 124.987 19.968C124.887 19.368 125.887 19.168 125.987 19.768C126.387 21.868 127.087 23.8681 128.087 25.8681C128.387 26.3681 127.487 26.868 127.187 26.268Z" fill="#1D319D"/>
<path d="M141.888 19.0679C142.088 16.7679 143.888 14.768 146.288 14.468C146.888 14.368 147.188 15.368 146.488 15.468C144.588 15.668 143.088 17.1679 142.888 19.0679C142.788 19.7679 141.788 19.6679 141.888 19.0679Z" fill="#1D319D"/>
<path d="M140.888 14.4679C140.188 16.9679 136.988 13.568 130.888 12.368C128.188 11.868 116.688 15.8679 114.888 11.9679C112.188 6.26795 119.788 2.96792 124.688 5.06792C124.188 2.96792 126.588 -0.132051 129.788 1.46795C138.388 -2.83205 146.188 2.76797 145.188 12.368C145.188 12.468 141.688 13.6679 140.888 14.4679Z" fill="#1D319D"/>
</svg>
