<svg width="14" height="16" viewBox="0 0 14 16" fill="none" xmlns="http://www.w3.org/2000/svg">
<path d="M0.875001 3.48038C0.875001 2.5995 1.5926 1.88281 2.4746 1.88281C2.73919 1.88281 2.98876 1.94769 3.20882 2.06178C3.41299 1.41319 4.02061 0.941406 4.73655 0.941406C5.00164 0.941406 5.25165 1.00647 5.47208 1.12084C5.67609 0.472 6.28384 0 6.99994 0C7.71604 0 8.32378 0.472 8.52779 1.12084C8.74823 1.00647 8.99824 0.941406 9.26336 0.941406C10.1462 0.941406 10.8644 1.65872 10.8644 2.54041V3.768C12.1193 3.8175 13.125 4.852 13.125 6.11719V11.0184L11.2398 12.9012V16H2.76022V12.9012L0.875094 11.0189L0.875001 3.48038ZM2.4746 2.82031C2.1102 2.82031 1.8137 3.11644 1.8137 3.48038V5.67978C1.8137 6.04372 2.1102 6.33984 2.4746 6.33984C2.83901 6.33984 3.13548 6.04372 3.13548 5.67978V5.67834V3.48038C3.13548 3.11644 2.83904 2.82031 2.4746 2.82031ZM4.73655 1.87891C4.3713 1.87891 4.07417 2.17566 4.07417 2.54041V5.67834C4.07417 6.04309 4.3713 6.33984 4.73655 6.33984C5.10177 6.33984 5.3989 6.04309 5.3989 5.67834V2.54041C5.3989 2.17566 5.10177 1.87891 4.73655 1.87891ZM7.66228 1.599C7.66228 1.23425 7.36515 0.9375 6.99994 0.9375C6.63472 0.9375 6.33759 1.23425 6.33759 1.599V3.76562H7.66228V1.599ZM9.26336 1.87891C8.89811 1.87891 8.60098 2.17566 8.60098 2.54041V3.76562H9.9257V2.54041C9.9257 2.17566 9.62857 1.87891 9.26336 1.87891ZM3.69891 12.5128V15.0625H10.3011V12.5129L12.1863 10.6301V6.11719C12.1863 5.33747 11.5511 4.70312 10.7704 4.70312H6.33759L6.33772 4.98663C6.33806 5.73278 6.94615 6.33984 7.69326 6.33984H10.0612V7.19997C8.48233 7.66038 7.46434 8.98653 7.46844 10.5057L7.46879 10.9847L6.53009 10.9854L6.52974 10.5072C6.52111 9.29288 7.06202 8.08991 7.99355 7.27731H7.69326C7.05132 7.27731 6.47036 7.01216 6.05348 6.58616C5.76427 7.00334 5.28193 7.27731 4.73655 7.27731C4.29527 7.27731 3.89513 7.09809 3.60526 6.80875C3.31561 7.09809 2.91567 7.27731 2.4746 7.27731C2.23833 7.27731 2.01408 7.22547 1.81204 7.13325V10.6301L3.69891 12.5128Z" fill="black"/>
</svg>
