<svg width="343" height="334" viewBox="0 0 343 334" fill="none" xmlns="http://www.w3.org/2000/svg">
<path d="M79.004 170.6V266.8C79.004 269.2 82.704 269.2 82.704 266.8V170.6C82.704 168.2 79.004 168.2 79.004 170.6Z" fill="#1D319D"/>
<path d="M222.604 180.6H76.0041C73.1041 180.6 70.7041 178.2 70.7041 175.3V144C70.7041 141.1 73.1041 138.7 76.0041 138.7H222.604C225.504 138.7 227.904 141.1 227.904 144V175.3C227.904 178.2 225.504 180.6 222.604 180.6Z" fill="white"/>
<path d="M222.604 181.3H76.0041C72.6041 181.3 69.9041 178.6 69.9041 175.2V143.9C69.9041 140.5 72.6041 137.8 76.0041 137.8H222.604C226.004 137.8 228.704 140.5 228.704 143.9V175.2C228.704 178.6 225.904 181.3 222.604 181.3ZM76.0041 139.4C73.5041 139.4 71.4041 141.5 71.4041 144V175.3C71.4041 177.8 73.5041 179.9 76.0041 179.9H222.604C225.104 179.9 227.204 177.8 227.204 175.3V144C227.204 141.5 225.104 139.4 222.604 139.4H76.0041Z" fill="#1D319D"/>
<path d="M222.604 210.2H76.0041C73.1041 210.2 70.7041 207.8 70.7041 204.9V196.4C70.7041 193.5 73.1041 191.1 76.0041 191.1H222.604C225.504 191.1 227.904 193.5 227.904 196.4V204.9C227.904 207.8 225.504 210.2 222.604 210.2Z" fill="white"/>
<path d="M222.604 210.9H76.0041C72.6041 210.9 69.9041 208.2 69.9041 204.8V196.3C69.9041 192.9 72.6041 190.2 76.0041 190.2H222.604C226.004 190.2 228.704 192.9 228.704 196.3V204.8C228.704 208.2 225.904 210.9 222.604 210.9ZM76.0041 191.8C73.5041 191.8 71.4041 193.9 71.4041 196.4V204.9C71.4041 207.4 73.5041 209.5 76.0041 209.5H222.604C225.104 209.5 227.204 207.4 227.204 204.9V196.4C227.204 193.9 225.104 191.8 222.604 191.8H76.0041Z" fill="#1D319D"/>
<path d="M227.904 152.8H70.7041C70.3041 152.8 69.9041 152.5 69.9041 152C69.9041 151.5 70.2041 151.2 70.7041 151.2H228.004C228.404 151.2 228.804 151.5 228.804 152C228.804 152.5 228.304 152.8 227.904 152.8Z" fill="#1D319D"/>
<path d="M227.904 166.9H70.7041C70.3041 166.9 69.9041 166.6 69.9041 166.1C69.9041 165.6 70.2041 165.3 70.7041 165.3H228.004C228.404 165.3 228.804 165.6 228.804 166.1C228.804 166.6 228.304 166.9 227.904 166.9Z" fill="#1D319D"/>
<path d="M227.904 198.3H70.7041C70.3041 198.3 69.9041 198 69.9041 197.5C69.9041 197 70.2041 196.7 70.7041 196.7H228.004C228.404 196.7 228.804 197 228.804 197.5C228.804 198 228.304 198.3 227.904 198.3Z" fill="#1D319D"/>
<path d="M227.904 204.4H70.7041C70.3041 204.4 69.9041 204.1 69.9041 203.6C69.9041 203.1 70.2041 202.8 70.7041 202.8H228.004C228.404 202.8 228.804 203.1 228.804 203.6C228.804 204.1 228.304 204.4 227.904 204.4Z" fill="#1D319D"/>
<path d="M234.404 267.8H189.704V251.3L216.404 240.9C216.404 240.9 217.404 247.3 219.804 252.6C219.904 252.9 220.104 253.2 220.204 253.4C220.604 254.3 221.104 255.2 221.604 256C221.804 256.3 222.004 256.5 222.104 256.8C223.104 258.1 224.304 259.1 225.604 259.6C229.104 260.8 231.204 262.4 232.504 263.8C232.804 264.1 233.004 264.4 233.204 264.7C234.404 266.4 234.404 267.8 234.404 267.8Z" fill="#1D319D"/>
<path d="M233.104 264.6H189.604V263.7H232.304C232.704 264 232.904 264.3 233.104 264.6Z" fill="white"/>
<path d="M220.104 253.4C218.204 254.3 216.204 255.3 214.304 256.2C213.804 256.4 213.304 255.7 213.804 255.4C215.804 254.5 217.704 253.5 219.704 252.6C219.704 252.6 219.704 252.6 219.804 252.6C219.804 252.9 220.004 253.1 220.104 253.4Z" fill="white"/>
<path d="M222.104 256.7C220.404 257.9 218.804 259.1 217.104 260.3C216.604 260.6 216.104 259.8 216.604 259.5C218.204 258.3 219.904 257.2 221.504 256C221.704 256.2 221.904 256.5 222.104 256.7Z" fill="white"/>
<path d="M273.304 219.9L232.804 238.9L231.404 236L231.004 235.2L223.704 219.6L245.504 203.2C245.504 203.2 249.104 208.5 253.504 212.4C253.704 212.6 254.004 212.8 254.204 213C255.004 213.6 255.804 214.2 256.604 214.7C256.904 214.9 257.104 215 257.404 215.1C258.904 215.9 260.304 216.3 261.704 216.2C265.404 215.8 267.904 216.3 269.704 217.1C270.104 217.3 270.404 217.4 270.804 217.6C272.704 218.6 273.304 219.9 273.304 219.9Z" fill="#1D319D"/>
<path d="M217.104 238.5C216.204 232.9 214.904 225 213.604 216.6C216.404 221.3 218.404 224.4 218.404 224.4L250.804 208.4C250.804 208.4 241.504 190.2 228.004 166.2C214.504 142.2 185.404 154.4 156.804 161.2L157.004 162.2C146.404 162.3 135.804 162.7 125.304 163.7C118.404 164.4 111.704 165.7 105.004 167.2C104.404 188.1 105.704 203 120.504 203.7C139.304 204.6 177.204 203.7 177.204 203.7C177.204 203.7 176.404 229.5 181.004 245.1C181.104 245.4 181.204 245.7 181.304 246C182.304 249.1 183.504 251.7 185.004 253.6L218.604 246.5C218.604 246.5 218.204 243.8 217.504 239.3C217.204 239.1 217.104 238.8 217.104 238.5Z" fill="white"/>
<path d="M184.404 254.5L184.104 254.1C182.604 252.2 181.404 249.6 180.304 246.2C180.204 245.9 180.104 245.6 180.004 245.3C175.904 231.3 176.104 208.9 176.204 204.4C170.704 204.5 137.304 205.2 120.204 204.4C104.304 203.6 103.504 187 104.004 167.1V166.5L104.604 166.4C110.704 165.1 117.904 163.6 125.004 162.9C134.004 162 143.504 161.6 155.904 161.4L155.704 160.6L156.404 160.4C160.504 159.4 164.604 158.4 168.604 157.3C193.304 150.8 216.604 144.7 228.504 165.8C241.904 189.5 251.204 207.8 251.304 208L251.604 208.7L217.904 225.4L217.504 224.8C217.504 224.8 216.404 223 214.704 220.3C215.804 227.2 216.804 233.7 217.604 238.4C217.604 238.6 217.704 238.7 217.704 238.9L219.004 247.2L184.404 254.5ZM177.804 202.9V203.7C177.804 204 177.004 229.6 181.504 244.9C181.604 245.2 181.704 245.5 181.804 245.8C182.704 248.8 183.804 251.1 185.104 252.8L217.604 246L216.504 239.2C216.504 239 216.404 238.8 216.404 238.7C215.504 233.1 214.204 225.2 212.904 216.8L212.204 212.9L214.204 216.2C216.304 219.7 217.904 222.3 218.604 223.4L249.704 208C247.904 204.5 239.204 187.7 227.204 166.5C215.804 146.4 193.104 152.4 169.004 158.7C165.204 159.7 161.404 160.7 157.504 161.6L157.704 162.8H156.804C144.104 163 134.304 163.4 125.204 164.3C118.304 165 111.504 166.4 105.504 167.7C104.904 190 107.204 202.2 120.304 202.9C138.904 203.8 176.604 202.9 177.004 202.9H177.804Z" fill="#1D319D"/>
<path d="M197.304 173.3H197.204L184.904 170.8C184.504 170.7 184.204 170.3 184.304 169.9C184.404 169.5 184.804 169.2 185.204 169.3L197.504 171.8C197.904 171.9 198.204 172.3 198.104 172.7C198.004 173 197.704 173.3 197.304 173.3Z" fill="#1D319D"/>
<path d="M270.804 217.6L231.404 236.1L231.004 235.3L269.704 217.2C270.204 217.2 270.504 217.4 270.804 217.6Z" fill="white"/>
<path d="M254.304 213C252.904 214.7 251.604 216.3 250.204 218C249.804 218.5 249.104 217.9 249.404 217.5C250.804 215.8 252.104 214.2 253.504 212.5C253.804 212.6 254.004 212.8 254.304 213Z" fill="white"/>
<path d="M256.904 214.8C256.004 216.3 255.204 217.9 254.304 219.4C254.004 219.9 254.804 220.5 255.104 220C256.004 218.4 256.904 216.8 257.804 215.3L256.904 214.8Z" fill="white"/>
<path d="M210.804 212C210.604 212 210.304 211.9 210.204 211.7C201.404 198.2 196.904 187.6 193.704 172.8C193.604 172.4 193.904 172 194.304 171.9C194.704 171.8 195.104 172.1 195.204 172.5C198.404 187.1 202.804 197.5 211.504 210.9C211.704 211.2 211.604 211.7 211.304 211.9C211.104 211.9 211.004 212 210.804 212Z" fill="#1D319D"/>
<path d="M216.904 217.5C216.604 217.5 216.404 217.3 216.204 217.1C216.004 216.7 216.204 216.3 216.504 216.1C226.104 211.3 235.704 206.2 245.004 200.8C245.404 200.6 245.804 200.7 246.004 201.1C246.204 201.5 246.104 201.9 245.704 202.1C236.404 207.5 226.704 212.6 217.104 217.4C217.204 217.5 217.104 217.5 216.904 217.5Z" fill="#1D319D"/>
<path d="M183.104 245.5C182.704 245.5 182.404 245.2 182.404 244.9C182.304 244.5 182.604 244.1 183.004 244L190.304 242.7C198.804 241.1 206.004 239.8 215.604 238.1C216.004 238 216.404 238.3 216.504 238.7C216.604 239.1 216.304 239.5 215.904 239.6C206.404 241.3 199.204 242.7 190.604 244.2L183.304 245.5C183.204 245.4 183.204 245.5 183.104 245.5Z" fill="#1D319D"/>
<path d="M89.7041 114C88.9041 114 88.2041 113.9 87.4041 113.7C86.1041 113.3 85.0041 112.8 83.9041 112.2C82.9041 111.7 82.0041 111.2 81.0041 110.9C78.7041 110.2 75.6041 110.2 74.2041 112.9C74.0041 113.3 73.6041 113.4 73.2041 113.2C72.8041 113 72.7041 112.6 72.9041 112.2C74.7041 108.7 78.6041 108.6 81.5041 109.5C82.6041 109.9 83.6041 110.4 84.6041 110.9C85.7041 111.5 86.7041 112 87.9041 112.3C90.7041 113.1 93.3041 112.1 94.9041 109.8C95.1041 109.5 95.6041 109.4 95.9041 109.6C96.2041 109.8 96.3041 110.3 96.1041 110.6C94.5041 112.8 92.2041 114 89.7041 114Z" fill="#FF20B5"/>
<path d="M89.7041 119.3C88.9041 119.3 88.2041 119.2 87.4041 119C86.1041 118.6 85.0041 118.1 83.9041 117.5C82.9041 117 82.0041 116.5 81.0041 116.2C78.7041 115.5 75.6041 115.5 74.2041 118.2C74.0041 118.6 73.6041 118.7 73.2041 118.5C72.8041 118.3 72.7041 117.9 72.9041 117.5C74.7041 114 78.6041 113.9 81.5041 114.8C82.6041 115.2 83.6041 115.7 84.6041 116.2C85.7041 116.8 86.7041 117.3 87.9041 117.6C90.7041 118.4 93.3041 117.4 94.9041 115.1C95.1041 114.8 95.6041 114.7 95.9041 114.9C96.2041 115.1 96.3041 115.6 96.1041 115.9C94.5041 118.1 92.2041 119.3 89.7041 119.3Z" fill="#FF20B5"/>
<path d="M96.3041 106L101.704 104.1L101.004 109.8L96.3041 106Z" fill="#52DDAE"/>
<path d="M273.704 190.7C271.104 190.7 268.304 189.5 265.804 188.4C264.304 187.8 262.904 187.1 261.704 186.8C257.704 185.7 253.404 186.7 250.104 189.5C249.804 189.8 249.304 189.7 249.004 189.4C248.704 189.1 248.804 188.6 249.104 188.3C252.804 185.2 257.604 184.1 262.104 185.3C263.504 185.7 264.904 186.3 266.404 187C270.504 188.8 274.804 190.7 277.904 187.4C278.204 187.1 278.704 187.1 279.004 187.4C279.304 187.7 279.304 188.2 279.004 188.5C277.404 190.1 275.604 190.7 273.704 190.7Z" fill="#FF20B5"/>
<path d="M273.704 198.4C271.104 198.4 268.304 197.2 265.804 196.1C264.304 195.5 262.904 194.8 261.704 194.5C257.704 193.4 253.404 194.4 250.104 197.2C249.804 197.5 249.304 197.4 249.004 197.1C248.704 196.8 248.804 196.3 249.104 196C252.804 192.9 257.604 191.8 262.104 193C263.504 193.4 264.904 194 266.404 194.7C270.504 196.5 274.804 198.4 277.904 195.1C278.204 194.8 278.704 194.8 279.004 195.1C279.304 195.4 279.304 195.9 279.004 196.2C277.404 197.8 275.604 198.4 273.704 198.4Z" fill="#FF20B5"/>
<path d="M245.231 172.558L238.865 177.065L243.372 183.431L249.738 178.924L245.231 172.558Z" fill="#52DDAE"/>
<path d="M101.804 269.1C101.504 269.1 101.304 269 101.204 268.7L95.3041 258.8C95.1041 258.4 95.2041 258 95.6041 257.8C96.0041 257.6 96.4041 257.7 96.6041 258.1L102.504 268C102.704 268.4 102.604 268.8 102.204 269C102.004 269.1 101.904 269.1 101.804 269.1Z" fill="#23C08B"/>
<path d="M106.504 269C106.204 269 105.904 268.8 105.804 268.4L104.604 263.8C104.504 263.4 104.704 263 105.104 262.9C105.504 262.8 105.904 263 106.004 263.4L107.204 268C107.304 268.4 107.104 268.8 106.704 268.9C106.704 269 106.604 269 106.504 269Z" fill="#23C08B"/>
<path d="M66.804 269.1C66.504 269.1 66.3041 269 66.2041 268.7L63.1041 263.8C62.9041 263.4 63.004 263 63.304 262.8C63.604 262.6 64.104 262.7 64.304 263L67.404 267.9C67.604 268.3 67.5041 268.7 67.2041 268.9C67.1041 269.1 66.904 269.1 66.804 269.1Z" fill="#23C08B"/>
<path d="M242.104 268.7C242.004 268.7 241.904 268.7 241.804 268.6C241.404 268.4 241.304 268 241.404 267.6L243.804 262.3C244.004 261.9 244.404 261.8 244.804 261.9C245.204 262.1 245.304 262.5 245.204 262.9L242.804 268.2C242.704 268.5 242.404 268.7 242.104 268.7Z" fill="#23C08B"/>
<path d="M244.604 76.7998H178.304V131.2H244.604V76.7998Z" fill="#52DDAE"/>
<path d="M186.904 86.1002C188.119 86.1002 189.104 85.1152 189.104 83.9002C189.104 82.6852 188.119 81.7002 186.904 81.7002C185.689 81.7002 184.704 82.6852 184.704 83.9002C184.704 85.1152 185.689 86.1002 186.904 86.1002Z" fill="#1D319D"/>
<path d="M194.904 86.1002C196.119 86.1002 197.104 85.1152 197.104 83.9002C197.104 82.6852 196.119 81.7002 194.904 81.7002C193.689 81.7002 192.704 82.6852 192.704 83.9002C192.704 85.1152 193.689 86.1002 194.904 86.1002Z" fill="#1D319D"/>
<path d="M251.104 79.4C251.104 84 248.204 85.8 244.704 85.8C241.204 85.8 238.204 82.9 238.204 79.4C238.204 75.9 241.104 73 244.604 73C248.104 73 251.104 75.8 251.104 79.4Z" fill="white"/>
<path d="M244.604 86.6002C240.604 86.6002 237.404 83.4002 237.404 79.4002C237.404 75.4002 240.604 72.2002 244.604 72.2002C248.604 72.2002 251.804 75.4002 251.804 79.4002C251.804 83.9002 249.104 86.6002 244.604 86.6002ZM244.604 73.7002C241.504 73.7002 238.904 76.3002 238.904 79.4002C238.904 82.5002 241.504 85.1002 244.604 85.1002C246.704 85.1002 250.304 84.4002 250.304 79.4002C250.304 76.2002 247.804 73.7002 244.604 73.7002Z" fill="#1D319D"/>
<path d="M213.404 73H182.504C180.204 73 178.404 71.2 178.404 68.9V68.1C178.404 65.8 180.204 64 182.504 64H213.404C215.704 64 217.504 65.8 217.504 68.1V68.9C217.504 71.2 215.704 73 213.404 73Z" fill="#52DDAE"/>
<path d="M229.604 115.9H222.304C221.404 115.9 220.704 115.2 220.704 114.3C220.704 113.4 221.404 112.7 222.304 112.7H229.604C230.504 112.7 231.204 113.4 231.204 114.3C231.104 115.2 230.404 115.9 229.604 115.9Z" fill="#1D319D"/>
<path d="M225.704 122.9H222.204C221.304 122.9 220.604 122.2 220.604 121.3C220.604 120.4 221.304 119.7 222.204 119.7H225.704C226.604 119.7 227.304 120.4 227.304 121.3C227.304 122.2 226.604 122.9 225.704 122.9Z" fill="#1D319D"/>
<path d="M240.904 122.9H231.404C230.504 122.9 229.804 122.2 229.804 121.3C229.804 120.4 230.504 119.7 231.404 119.7H240.904C241.804 119.7 242.504 120.4 242.504 121.3C242.504 122.2 241.804 122.9 240.904 122.9Z" fill="#1D319D"/>
<path d="M238.604 115.9H234.804C233.904 115.9 233.204 115.2 233.204 114.3C233.204 113.4 233.904 112.7 234.804 112.7H238.604C239.504 112.7 240.204 113.4 240.204 114.3C240.104 115.2 239.404 115.9 238.604 115.9Z" fill="#1D319D"/>
<path d="M253.104 115.9H244.104C243.204 115.9 242.504 115.2 242.504 114.3C242.504 113.4 243.204 112.7 244.104 112.7H253.104C254.004 112.7 254.704 113.4 254.704 114.3C254.604 115.2 253.904 115.9 253.104 115.9Z" fill="#1D319D"/>
<path d="M244.004 76.2002V82.9002C244.004 83.4002 245.004 83.4002 245.004 82.9002V76.2002C245.004 75.7002 244.004 75.7002 244.004 76.2002Z" fill="#1D319D"/>
<path d="M207.004 155.9H181.004L165.504 168.1C164.204 169.1 164.904 171.3 166.604 171.3H187.504L207.004 155.9Z" fill="#1D319D"/>
<path d="M212.604 131.9L207.004 155.9L187.504 171.3L189.704 160L190.604 155.1L190.904 153.4L192.004 147.5L193.204 141.4C193.504 140 194.404 138.9 195.604 138.3L211.504 131.1C212.104 130.8 212.804 131.3 212.604 131.9Z" fill="#1D319D"/>
<path d="M202.857 144.014L199.888 146.984L202.857 149.954L205.827 146.984L202.857 144.014Z" fill="white"/>
<path d="M178.104 169.9H173.204C172.804 169.9 172.404 169.6 172.404 169.1C172.404 168.6 172.704 168.3 173.204 168.3H178.104C178.504 168.3 178.904 168.6 178.904 169.1C178.904 169.6 178.504 169.9 178.104 169.9Z" fill="white"/>
<path d="M191.804 147.4C183.904 144.7 168.604 144.4 168.604 144.4C167.404 139.2 157.704 121.3 151.804 116.7L153.204 153C153.204 153 171.204 156 182.104 158.2C185.004 154.5 187.904 150.2 191.804 147.4Z" fill="#1D319D"/>
<path d="M189.104 159C187.104 158.4 183.004 157.5 176.704 156.4C178.904 151.6 182.704 148.2 187.204 147C188.804 147.3 190.104 147.7 191.204 148L189.104 159Z" fill="white"/>
<path d="M187.304 147.7C188.504 147.9 189.504 148.2 190.404 148.5L188.604 158.1C187.004 157.7 184.004 157 177.904 155.8C179.904 151.7 183.304 148.8 187.304 147.7ZM187.204 146.2C181.904 147.5 177.804 151.5 175.604 156.9C182.204 158.1 188.104 159.3 189.604 159.9L192.004 147.4C190.704 147 189.004 146.5 187.204 146.2Z" fill="#1D319D"/>
<path d="M191.004 153.4L190.704 155.1C190.204 153.6 189.404 152.1 188.404 150.8C188.004 150.3 188.804 149.9 189.204 150.3C189.904 151.2 190.504 152.3 191.004 153.4Z" fill="#1D319D"/>
<path d="M181.004 101.3L174.404 127.5L187.804 126.1L193.804 135V113.4L184.104 115.2L181.004 101.3Z" fill="white"/>
<path d="M194.604 137.5L187.404 126.9L173.304 128.4L181.004 98.1001L184.604 114.3L194.504 112.5V137.5H194.604ZM188.204 125.3L193.104 132.6V114.4L183.504 116.2L180.904 104.7L175.304 126.8L188.204 125.3Z" fill="#FF20B5"/>
<path d="M214.904 93L203.204 105.1L210.404 108.4L209.504 116.8L217.504 103.4L212.004 101.4L214.904 93Z" fill="white"/>
<path d="M208.404 120.2L209.604 108.9L201.904 105.4L216.704 90.2002L213.004 101.1L218.604 103.1L208.404 120.2ZM204.504 104.9L211.204 107.9L210.604 113.5L216.404 103.8L211.104 101.9L213.104 96.0002L204.504 104.9Z" fill="#FF20B5"/>
<path d="M161.204 116.5C161.004 116.5 160.904 116.4 160.704 116.3L155.904 112.3C155.604 112 155.504 111.6 155.804 111.2C156.104 110.9 156.504 110.8 156.904 111.1L161.704 115.1C162.004 115.4 162.104 115.8 161.804 116.2C161.604 116.4 161.404 116.5 161.204 116.5Z" fill="#1D319D"/>
<path d="M166.904 106.7C166.804 106.7 166.804 106.7 166.904 106.7L160.104 105.9C159.704 105.8 159.404 105.5 159.404 105.1C159.404 104.7 159.804 104.4 160.204 104.4L166.904 105.2C167.304 105.3 167.604 105.6 167.604 106C167.604 106.4 167.204 106.7 166.904 106.7Z" fill="#1D319D"/>
<path d="M161.504 102.3C161.104 102.3 160.804 102 160.804 101.6C160.804 101.2 161.104 100.8 161.504 100.8L164.304 100.6C164.704 100.6 165.104 100.9 165.104 101.3C165.104 101.7 164.804 102.1 164.404 102.1L161.504 102.3C161.504 102.3 161.604 102.3 161.504 102.3Z" fill="#1D319D"/>
<path d="M160.404 163C162.304 151.8 166.504 115.1 140.804 112.4C122.504 110.5 106.404 118.9 105.504 148.8C105.204 157.1 104.804 164.9 104.704 171.9C123.604 170.9 142.204 167.9 160.404 163Z" fill="#1D319D"/>
<path d="M157.604 140.3C157.304 140.3 157.004 140.1 156.904 139.8L153.704 130.8C153.604 130.4 153.804 130 154.204 129.8C154.604 129.7 155.004 129.9 155.204 130.3L158.404 139.3C158.504 139.7 158.304 140.1 157.904 140.3C157.704 140.3 157.604 140.3 157.604 140.3Z" fill="white"/>
<path d="M162.204 148.9C177.404 148 182.504 146.5 186.704 156.8C190.904 167.1 184.604 163.7 184.604 163.7C184.604 163.7 184.304 166 179.504 165.3C179.504 165.3 175.604 167.5 173.204 165.4C170.804 163.4 169.504 161.9 167.704 165.2C165.904 168.4 157.804 169.1 155.604 166.7C152.104 163 162.204 148.9 162.204 148.9Z" fill="white"/>
<path d="M160.304 168.9C158.304 168.9 156.104 168.5 155.004 167.2C151.204 163.2 160.504 149.9 161.604 148.4L161.804 148.1H162.204C163.804 148 165.204 147.9 166.504 147.8C178.504 147 183.404 146.7 187.404 156.5C189.104 160.8 189.404 163.3 188.104 164.4C187.204 165.2 185.804 164.9 185.004 164.6C184.904 164.8 184.604 165.1 184.404 165.3C183.404 166.1 181.804 166.3 179.704 166C178.704 166.5 175.204 168 172.704 165.9L172.304 165.5C171.304 164.6 170.404 163.8 169.804 163.9C169.404 164 168.904 164.5 168.404 165.4C167.504 167.1 165.104 168.3 162.104 168.6C161.504 168.9 160.904 168.9 160.304 168.9ZM162.604 149.6C158.904 154.9 154.004 163.9 156.104 166.2C157.004 167.2 159.304 167.6 161.804 167.3C164.304 167 166.304 166.1 167.004 164.8C167.804 163.4 168.604 162.7 169.504 162.5C170.804 162.3 171.904 163.2 173.204 164.4L173.604 164.8C175.604 166.5 179.104 164.6 179.104 164.6L179.304 164.5H179.604C182.704 165 183.704 164.1 183.804 163.5L184.004 162.5L184.904 163C185.404 163.3 186.604 163.7 187.104 163.3C187.304 163.1 188.104 162.1 186.004 157.1C182.404 148.3 178.404 148.6 166.604 149.4C165.304 149.5 164.004 149.5 162.604 149.6Z" fill="#1D319D"/>
<path d="M113.404 122.1C103.704 132.8 95.304 159.6 101.504 172.8C105.004 180.3 114.504 181.5 127.504 180.5C137.604 179.7 149.704 176.4 162.904 169.1C162.904 169.1 159.504 153.7 162.904 147.8L128.504 150L128.204 120.9L113.404 122.1Z" fill="#1D319D"/>
<path d="M179.904 164.6C179.104 160.7 177.004 157.3 173.904 154.8C173.404 154.4 172.804 155.1 173.204 155.5C176.204 157.9 178.204 161.1 179.004 164.9C179.104 165.5 180.004 165.2 179.904 164.6Z" fill="#1D319D"/>
<path d="M180.104 152.4C179.704 151.9 179.104 152.6 179.404 153.1C182.204 156.3 183.804 160.1 184.204 164.3C184.304 164.9 185.204 164.9 185.104 164.3C184.804 159.8 183.004 155.8 180.104 152.4Z" fill="#1D319D"/>
<path d="M128.804 151.4C128.404 151.4 128.104 151.1 128.104 150.7C127.504 143.7 127.404 136.6 127.604 129.6C127.604 129.2 128.004 128.9 128.404 128.9C128.804 128.9 129.104 129.3 129.104 129.7C128.904 136.7 129.004 143.7 129.604 150.7C129.604 151 129.204 151.4 128.804 151.4Z" fill="white"/>
<path d="M126.304 152.1C125.904 152.1 125.604 151.8 125.604 151.4C125.604 151 125.804 150.6 126.304 150.6C137.704 149.2 149.404 148.3 160.904 147.9C161.304 147.9 161.704 148.2 161.704 148.6C161.704 149 161.404 149.4 161.004 149.4C149.404 149.8 137.804 150.7 126.304 152.1C126.404 152.1 126.304 152.1 126.304 152.1Z" fill="white"/>
<path d="M157.504 169.4C157.204 169.4 157.004 169.2 156.804 169C153.804 162.7 153.204 155.9 155.004 149.2C155.104 148.8 155.504 148.6 155.904 148.7C156.304 148.8 156.504 149.2 156.404 149.6C154.704 155.9 155.204 162.4 158.104 168.4C158.304 168.8 158.104 169.2 157.704 169.4C157.804 169.3 157.604 169.4 157.504 169.4Z" fill="white"/>
<path d="M148.004 87C141.804 83.4 133.504 86 129.404 92.9C129.404 92.9 129.404 92.9 129.404 93C128.704 92.7 128.104 92.4 127.504 92.2C123.304 91.1 120.404 94 121.004 97.4C121.604 100.4 124.104 103.4 127.804 103.8C128.604 107.1 130.504 110 133.304 112C141.604 117.9 147.804 113 151.904 106.1C155.904 99.2 154.104 90.6 148.004 87Z" fill="white"/>
<path d="M140.404 115.3C137.904 115.3 135.404 114.4 132.804 112.5C130.104 110.6 128.104 107.7 127.204 104.4C123.304 103.8 120.804 100.4 120.204 97.4999C119.804 95.6999 120.404 93.9 121.704 92.7C123.204 91.3 125.304 90.7999 127.604 91.3999C128.104 91.4999 128.604 91.6999 129.104 91.8999C133.504 84.9999 142.004 82.5 148.404 86.2C154.904 90 156.804 99.0999 152.504 106.3C149.604 111.3 146.204 114.2 142.504 115C141.804 115.3 141.104 115.3 140.404 115.3ZM125.704 92.7C124.504 92.7 123.504 93.1 122.704 93.8C121.804 94.7 121.404 95.9 121.704 97.3C122.204 99.9 124.404 102.8 127.804 103.1H128.304L128.404 103.6C129.204 106.8 131.004 109.5 133.604 111.3C136.604 113.4 139.404 114.2 142.104 113.6C145.404 112.9 148.404 110.2 151.104 105.6C154.904 99.0999 153.304 90.9999 147.504 87.4999C141.704 84.0999 133.804 86.5999 130.004 93.0999L129.604 93.7L128.904 93.3999C128.304 93.0999 127.704 92.8 127.104 92.7C126.704 92.8 126.204 92.7 125.704 92.7Z" fill="#1D319D"/>
<path d="M143.516 101.696C143.958 101.365 144.048 100.738 143.717 100.296C143.386 99.8544 142.759 99.7644 142.317 100.095C141.875 100.426 141.785 101.053 142.116 101.495C142.447 101.937 143.074 102.027 143.516 101.696Z" fill="#1D319D"/>
<path d="M147.004 108.2C147.904 106.1 148.404 104 148.704 101.7C148.804 101.1 147.804 100.9 147.704 101.6C147.504 103.7 146.904 105.8 146.104 107.8C145.804 108.4 146.704 108.8 147.004 108.2Z" fill="#1D319D"/>
<path d="M129.704 98.9998C129.304 96.6998 127.304 94.8998 125.004 94.7998C124.404 94.7998 124.204 95.7998 124.904 95.7998C126.804 95.8998 128.404 97.1998 128.804 99.0998C128.804 99.7998 129.804 99.6998 129.704 98.9998Z" fill="#1D319D"/>
<path d="M151.104 94.7999C147.904 94.2999 137.204 88.5999 135.104 95.0999C134.604 96.6999 134.804 97.9999 133.004 97.8999C131.204 97.5999 131.804 95.5999 131.804 95.5999C130.204 94.1999 129.304 93.7999 127.404 92.8999C128.104 85.8999 132.404 82.2999 135.304 83.1999C135.304 83.1999 144.904 72.3999 148.604 79.8999C148.604 79.8999 160.504 74.5999 162.304 85.9999C164.104 97.3999 151.104 94.7999 151.104 94.7999Z" fill="#1D319D"/>
</svg>
