<svg width="343" height="334" viewBox="0 0 343 334" fill="none" xmlns="http://www.w3.org/2000/svg">
<path d="M86.2 173.6V269.8C86.2 272.2 89.9 272.2 89.9 269.8V173.6C89.9 171.2 86.2 171.2 86.2 173.6Z" fill="#1D319D"/>
<path d="M229.8 183.6H83.2C80.3 183.6 77.9 181.2 77.9 178.3V147C77.9 144.1 80.3 141.7 83.2 141.7H229.8C232.7 141.7 235.1 144.1 235.1 147V178.3C235.1 181.2 232.7 183.6 229.8 183.6Z" fill="white"/>
<path d="M229.8 184.3H83.2C79.8 184.3 77.1 181.6 77.1 178.2V147C77.1 143.6 79.8 140.9 83.2 140.9H229.8C233.2 140.9 235.9 143.6 235.9 147V178.3C235.8 181.6 233.1 184.3 229.8 184.3ZM83.2 142.4C80.7 142.4 78.6 144.5 78.6 147V178.3C78.6 180.8 80.7 182.9 83.2 182.9H229.8C232.3 182.9 234.4 180.8 234.4 178.3V147C234.4 144.5 232.3 142.4 229.8 142.4H83.2Z" fill="#1D319D"/>
<path d="M229.8 213.2H83.2C80.3 213.2 77.9 210.8 77.9 207.9V199.4C77.9 196.5 80.3 194.1 83.2 194.1H229.8C232.7 194.1 235.1 196.5 235.1 199.4V207.9C235.1 210.8 232.7 213.2 229.8 213.2Z" fill="white"/>
<path d="M229.8 213.9H83.2C79.8 213.9 77.1 211.2 77.1 207.8V199.3C77.1 195.9 79.8 193.2 83.2 193.2H229.8C233.2 193.2 235.9 195.9 235.9 199.3V207.8C235.8 211.2 233.1 213.9 229.8 213.9ZM83.2 194.8C80.7 194.8 78.6 196.9 78.6 199.4V207.9C78.6 210.4 80.7 212.5 83.2 212.5H229.8C232.3 212.5 234.4 210.4 234.4 207.9V199.4C234.4 196.9 232.3 194.8 229.8 194.8H83.2Z" fill="#1D319D"/>
<path d="M235.1 155.8H77.8C77.4 155.8 77 155.5 77 155C77 154.5 77.3 154.2 77.8 154.2H235.1C235.5 154.2 235.9 154.5 235.9 155C235.9 155.5 235.5 155.8 235.1 155.8Z" fill="#1D319D"/>
<path d="M235.1 169.9H77.8C77.4 169.9 77 169.6 77 169.1C77 168.6 77.3 168.3 77.8 168.3H235.1C235.5 168.3 235.9 168.6 235.9 169.1C235.9 169.6 235.5 169.9 235.1 169.9Z" fill="#1D319D"/>
<path d="M235.1 201.3H77.8C77.4 201.3 77 201 77 200.5C77 200 77.3 199.7 77.8 199.7H235.1C235.5 199.7 235.9 200 235.9 200.5C235.9 201 235.5 201.3 235.1 201.3Z" fill="#1D319D"/>
<path d="M235.1 207.4H77.8C77.4 207.4 77 207.1 77 206.6C77 206.1 77.3 205.8 77.8 205.8H235.1C235.5 205.8 235.9 206.1 235.9 206.6C235.9 207.1 235.5 207.4 235.1 207.4Z" fill="#1D319D"/>
<path d="M241.6 270.8H196.9V254.3L223.6 243.9C223.6 243.9 224.6 250.3 227 255.6C227.1 255.9 227.3 256.2 227.4 256.4C227.8 257.3 228.3 258.2 228.8 259C229 259.3 229.2 259.5 229.3 259.8C230.3 261.1 231.5 262.1 232.8 262.6C236.3 263.8 238.4 265.4 239.7 266.8C240 267.1 240.2 267.4 240.4 267.7C241.6 269.4 241.6 270.8 241.6 270.8Z" fill="#1D319D"/>
<path d="M240.3 267.6H196.8V266.7H239.5C239.9 267 240.1 267.3 240.3 267.6Z" fill="white"/>
<path d="M227.3 256.4C225.4 257.3 223.4 258.3 221.5 259.2C221 259.4 220.5 258.7 221 258.4C223 257.5 224.9 256.5 226.9 255.6C226.9 255.6 226.9 255.6 227 255.6C227 255.9 227.1 256.1 227.3 256.4Z" fill="white"/>
<path d="M229.2 259.7C227.5 260.9 225.9 262.1 224.2 263.3C223.7 263.6 223.2 262.8 223.7 262.5C225.3 261.3 227 260.2 228.6 259C228.9 259.2 229.1 259.5 229.2 259.7Z" fill="white"/>
<path d="M280.5 222.9L240 241.9L238.6 239L238.2 238.2L230.9 222.6L252.7 206.2C252.7 206.2 256.3 211.5 260.7 215.4C260.9 215.6 261.2 215.8 261.4 216C262.2 216.6 263 217.2 263.8 217.7C264.1 217.9 264.3 218 264.6 218.1C266.1 218.9 267.5 219.3 268.9 219.2C272.6 218.8 275.1 219.3 276.9 220.1C277.3 220.3 277.6 220.4 278 220.6C279.9 221.7 280.5 222.9 280.5 222.9Z" fill="#1D319D"/>
<path d="M224.2 241.5C223.3 235.9 222 228 220.7 219.6C223.5 224.3 225.5 227.4 225.5 227.4L257.9 211.4C257.9 211.4 248.6 193.2 235.1 169.2C221.6 145.2 192.2 154.5 163.9 164.2L164.1 165.2C153.5 165.3 142.9 165.7 132.4 166.7C125.5 167.4 118.8 168.7 112.1 170.2C111.5 191.1 112.8 206 127.6 206.7C146.4 207.6 184.3 206.7 184.3 206.7C184.3 206.7 183.5 232.5 188.1 248.1C188.2 248.4 188.3 248.7 188.4 249C189.4 252.1 190.6 254.7 192.1 256.6L225.7 249.5C225.7 249.5 225.3 246.8 224.6 242.3C224.4 242.1 224.3 241.8 224.2 241.5Z" fill="white"/>
<path d="M191.6 257.5L191.3 257.1C189.8 255.2 188.6 252.6 187.5 249.2C187.4 248.9 187.3 248.6 187.2 248.3C183.1 234.3 183.3 211.9 183.4 207.4C177.9 207.5 144.5 208.2 127.4 207.4C111.5 206.6 110.7 190 111.2 170.1V169.5L111.8 169.4C117.9 168.1 125.1 166.6 132.2 165.9C141.2 165 150.7 164.6 163.1 164.4L163 163.6L163.6 163.4C190.7 154.1 221.5 143.7 235.7 168.8C249.1 192.5 258.4 210.8 258.5 211L258.8 211.7L225.1 228.4L224.7 227.8C224.7 227.8 223.6 226 221.9 223.3C223 230.2 224 236.7 224.8 241.4C224.8 241.6 224.9 241.7 224.9 241.9L226.2 250.2L191.6 257.5ZM185 205.9V206.7C185 207 184.2 232.6 188.7 247.9C188.8 248.2 188.9 248.5 189 248.8C189.9 251.8 191 254.1 192.3 255.8L224.8 249L223.7 242.1C223.7 241.9 223.6 241.8 223.6 241.6C222.7 236 221.4 228.1 220.1 219.7L219.5 215.9L221.5 219.2C223.6 222.7 225.2 225.3 225.9 226.4L257 211C255.2 207.5 246.5 190.7 234.5 169.5C221 145.7 191.2 155.6 164.8 164.6L165 165.8H164.1C151.4 166 141.6 166.4 132.5 167.3C125.6 168 118.8 169.4 112.8 170.6C112.2 192.9 114.5 205.1 127.6 205.8C146.2 206.7 183.9 205.8 184.3 205.8L185 205.9Z" fill="#1D319D"/>
<path d="M204.5 176.3H204.4L179.1 171.2C178.7 171.1 178.4 170.7 178.5 170.3C178.6 169.9 179 169.6 179.4 169.7L204.7 174.8C205.1 174.9 205.4 175.3 205.3 175.7C205.1 176 204.8 176.3 204.5 176.3Z" fill="#1D319D"/>
<path d="M278 220.6L238.7 239L238.3 238.2L277 220.1C277.3 220.2 277.7 220.4 278 220.6Z" fill="white"/>
<path d="M261.5 216C260.1 217.7 258.8 219.3 257.4 221C257 221.5 256.3 220.9 256.6 220.5C258 218.8 259.3 217.2 260.7 215.5C261 215.6 261.2 215.8 261.5 216Z" fill="white"/>
<path d="M264.1 217.8C263.2 219.3 262.4 220.9 261.5 222.4C261.2 223 262 223.5 262.3 223C263.2 221.4 264.1 219.9 264.9 218.3L264.1 217.8Z" fill="white"/>
<path d="M218 215C217.8 215 217.5 214.9 217.4 214.7C208.6 201.2 204.1 190.6 200.9 175.8C200.8 175.4 201.1 175 201.5 174.9C201.9 174.8 202.3 175.1 202.4 175.5C205.6 190.1 210 200.5 218.7 213.9C218.9 214.2 218.8 214.7 218.5 214.9C218.3 214.9 218.1 215 218 215Z" fill="#1D319D"/>
<path d="M224.1 220.6C223.8 220.6 223.6 220.4 223.4 220.2C223.2 219.8 223.4 219.4 223.7 219.2C233.3 214.4 242.9 209.3 252.2 203.9C252.6 203.7 253 203.8 253.2 204.2C253.4 204.6 253.3 205 252.9 205.2C243.6 210.6 233.9 215.7 224.3 220.5C224.3 220.5 224.2 220.6 224.1 220.6Z" fill="#1D319D"/>
<path d="M190.3 248.5C189.9 248.5 189.6 248.2 189.6 247.9C189.5 247.5 189.8 247.1 190.2 247L196.8 245.8C205.6 244.2 213 242.8 222.8 241C223.2 240.9 223.6 241.2 223.7 241.6C223.8 242 223.5 242.4 223.1 242.5C213.3 244.3 206 245.6 197.1 247.3L190.5 248.5C190.4 248.5 190.3 248.5 190.3 248.5Z" fill="#1D319D"/>
<path d="M96.8 117C96 117 95.3 116.9 94.5 116.7C93.2 116.3 92.1 115.8 91 115.2C90 114.7 89.1 114.2 88.1 113.9C85.8 113.2 82.7 113.2 81.3 115.9C81.1 116.3 80.7 116.4 80.3 116.2C79.9 116 79.8 115.6 80 115.2C81.8 111.7 85.7 111.6 88.6 112.5C89.7 112.9 90.7 113.4 91.7 113.9C92.8 114.5 93.8 115 95 115.3C97.8 116.1 100.4 115.1 102 112.8C102.2 112.5 102.7 112.4 103 112.6C103.3 112.8 103.4 113.3 103.2 113.6C101.7 115.8 99.4 117 96.8 117Z" fill="#FF20B5"/>
<path d="M96.8 122.3C96 122.3 95.3 122.2 94.5 122C93.2 121.6 92.1 121.1 91 120.5C90 120 89.1 119.5 88.1 119.2C85.8 118.5 82.7 118.5 81.3 121.2C81.1 121.6 80.7 121.7 80.3 121.5C79.9 121.3 79.8 120.9 80 120.5C81.8 117 85.7 116.9 88.6 117.8C89.7 118.2 90.7 118.7 91.7 119.2C92.8 119.8 93.8 120.3 95 120.6C97.8 121.4 100.4 120.4 102 118.1C102.2 117.8 102.7 117.7 103 117.9C103.3 118.1 103.4 118.6 103.2 118.9C101.7 121.1 99.4 122.3 96.8 122.3Z" fill="#FF20B5"/>
<path d="M103.5 109L108.9 107.1L108.2 112.8L103.5 109Z" fill="#52DDAE"/>
<path d="M280.9 193.7C278.3 193.7 275.5 192.5 273 191.4C271.5 190.8 270.1 190.1 268.9 189.8C264.9 188.7 260.6 189.7 257.3 192.5C257 192.8 256.5 192.7 256.2 192.4C255.9 192.1 256 191.6 256.3 191.3C260 188.2 264.8 187.1 269.3 188.3C270.7 188.7 272.1 189.3 273.6 190C277.7 191.8 282 193.7 285.1 190.4C285.4 190.1 285.9 190.1 286.2 190.4C286.5 190.7 286.5 191.2 286.2 191.5C284.5 193.1 282.7 193.7 280.9 193.7Z" fill="#52DDAE"/>
<path d="M280.9 201.4C278.3 201.4 275.5 200.2 273 199.1C271.5 198.5 270.1 197.8 268.9 197.5C264.9 196.4 260.6 197.4 257.3 200.2C257 200.5 256.5 200.4 256.2 200.1C255.9 199.8 256 199.3 256.3 199C260 195.9 264.8 194.8 269.3 196C270.7 196.4 272.1 197 273.6 197.7C277.7 199.5 282 201.4 285.1 198.1C285.4 197.8 285.9 197.8 286.2 198.1C286.5 198.4 286.5 198.9 286.2 199.2C284.5 200.8 282.7 201.4 280.9 201.4Z" fill="#52DDAE"/>
<path d="M252.416 175.543L246.05 180.05L250.557 186.416L256.923 181.909L252.416 175.543Z" fill="#FF20B5"/>
<path d="M108.9 272.1C108.6 272.1 108.4 272 108.3 271.7L102.4 261.8C102.2 261.4 102.3 261 102.7 260.8C103.1 260.6 103.5 260.7 103.7 261.1L109.6 271C109.8 271.4 109.7 271.8 109.3 272C109.2 272.1 109.1 272.1 108.9 272.1Z" fill="#52DDAE"/>
<path d="M113.7 272C113.4 272 113.1 271.8 113 271.4L111.8 266.8C111.7 266.4 111.9 266 112.3 265.9C112.7 265.8 113.1 266 113.2 266.4L114.4 271C114.5 271.4 114.3 271.8 113.9 271.9C113.8 272 113.8 272 113.7 272Z" fill="#52DDAE"/>
<path d="M74 272.1C73.7 272.1 73.5 272 73.4 271.7L70.3 266.8C70.1 266.4 70.2 266 70.5 265.8C70.9 265.6 71.3 265.7 71.5 266L74.6 270.9C74.8 271.3 74.7 271.7 74.4 271.9C74.2 272.1 74.1 272.1 74 272.1Z" fill="#52DDAE"/>
<path d="M249.3 271.7C249.2 271.7 249.1 271.7 249 271.6C248.6 271.4 248.5 271 248.6 270.6L251 265.3C251.2 264.9 251.6 264.8 252 264.9C252.4 265.1 252.5 265.5 252.4 265.9L250 271.2C249.8 271.5 249.6 271.7 249.3 271.7Z" fill="#52DDAE"/>
<path d="M223.2 141.7H162.3C155.1 127.7 155.5 117.7 155.5 117.7C165.3 121.7 187.3 134.5 191.8 138.1C191.8 138.1 214 129.5 222.3 140.2C222.6 140.7 223 141.2 223.2 141.7Z" fill="#1D319D"/>
<path d="M223.2 141.7C222.9 141.2 222.6 140.7 222.2 140.2C218.3 135.1 211.9 134 204.9 135C199 136 196.7 140.4 200.5 147.4C204 153.7 207.1 149.7 205 145.5L206.3 143.4C206.5 143.6 206.7 143.8 206.8 144.1C208.4 146.9 208.5 149.4 209.9 150.9C211.7 152.7 214.2 150.9 214.3 149.9C214.3 149.9 216.9 153.3 219.3 149.9C219.3 149.9 221.4 152 223.4 149.3C225.4 146.6 223.2 141.7 223.2 141.7Z" fill="white"/>
<path d="M211.7 152.5C210.8 152.5 210 152.2 209.4 151.5C208.5 150.6 208.1 149.3 207.6 148C207.3 147 206.9 145.9 206.3 144.8L205.8 145.6C206.8 148 206.5 150.5 204.9 151.3C204.3 151.6 202.2 152.3 199.8 147.9C197.7 144.1 197.3 140.8 198.5 138.4C199.5 136.3 201.7 134.9 204.7 134.4L205 134.3C213.1 133.2 219.1 135.1 222.7 139.8C223 140.2 223.3 140.6 223.5 141L223.6 141.3V141.4L224.2 142.5H224C224.6 144.2 225.4 147.6 223.8 149.8C223 150.8 222.1 151.4 221.1 151.5C220.3 151.6 219.6 151.3 219.2 151C218.4 151.8 217.6 152.2 216.7 152.2C215.7 152.2 214.8 151.7 214.3 151.2C213.9 151.7 213.3 152.1 212.7 152.3C212.5 152.4 212.1 152.5 211.7 152.5ZM206.1 142.2L206.8 142.9C207.1 143.2 207.3 143.4 207.4 143.7C208.2 145 208.6 146.3 209 147.5C209.4 148.7 209.8 149.7 210.4 150.4C210.9 150.9 211.5 151.1 212.2 150.9C213 150.7 213.5 150.1 213.5 149.9L213.8 148.2L214.8 149.5C215.1 149.8 215.9 150.7 216.8 150.7C217.4 150.7 218 150.3 218.6 149.5L219.1 148.8L219.7 149.4C219.7 149.4 220.3 150 221.1 150C221.6 150 222.2 149.6 222.7 148.9C224.3 146.7 222.5 142.5 222.4 142.1C222.2 141.7 221.9 141.2 221.5 140.7C218.2 136.4 212.6 134.7 204.9 135.8H204.7C202.2 136.2 200.5 137.3 199.8 138.9C198.8 140.9 199.3 143.7 201.1 147.1C202.4 149.5 203.6 150.2 204.2 149.9C204.9 149.6 205.2 147.8 204.2 145.8L204 145.4L206.1 142.2Z" fill="#1D319D"/>
<path d="M212 139.8C211.7 139.2 210.8 139.7 211.1 140.3C212.7 143.1 213.5 146.1 213.6 149.4C213.6 150 214.6 150 214.6 149.4C214.5 145.9 213.7 142.7 212 139.8Z" fill="#1D319D"/>
<path d="M217.8 138.8C217.5 138.2 216.7 138.7 216.9 139.3C218.2 142.2 218.9 145.2 219 148.3C219 148.9 220 148.9 220 148.3C219.9 145 219.2 141.8 217.8 138.8Z" fill="#1D319D"/>
<path d="M177.9 135.4C177.7 135.4 177.5 135.3 177.3 135.1L172.3 128.7C172 128.4 172.1 127.9 172.4 127.6C172.7 127.3 173.2 127.4 173.5 127.7L178.5 134.1C178.8 134.4 178.7 134.9 178.4 135.2C178.2 135.3 178.1 135.4 177.9 135.4Z" fill="white"/>
<path d="M174.2 139.9C174.1 139.9 173.9 139.9 173.8 139.8L169.2 136.6C168.9 136.4 168.8 135.9 169 135.6C169.2 135.3 169.7 135.2 170 135.4L174.6 138.6C174.9 138.8 175 139.3 174.8 139.6C174.7 139.8 174.4 139.9 174.2 139.9Z" fill="white"/>
<path d="M187.4 130.4L190.3 135L194.8 124.4L187.4 130.4Z" fill="#52DDAE"/>
<path d="M193 69.7998V111.2C193 111.2 208.1 111.2 208.1 89.1998C208.1 71.9998 193 69.7998 193 69.7998Z" fill="white"/>
<path d="M193 111.9H192.2V68.8999L193.1 68.9999C193.3 68.9999 208.8 71.4999 208.8 89.0999C208.8 111.7 193.1 111.9 193 111.9ZM193.7 70.6999V110.4C196.7 110.1 207.3 107.6 207.3 89.1999C207.3 75.1999 196.8 71.4999 193.7 70.6999Z" fill="#1D319D"/>
<path d="M197.5 91.6001H169.9V109.1H197.5V91.6001Z" fill="#FF20B5"/>
<path d="M179.9 101.7H175.8C175.1 101.7 174.5 101.1 174.5 100.4C174.5 99.7001 175.1 99.1001 175.8 99.1001H179.9C180.6 99.1001 181.2 99.7001 181.2 100.4C181.3 101.1 180.7 101.7 179.9 101.7Z" fill="white"/>
<path d="M186.8 101.7H184.7C184 101.7 183.4 101.1 183.4 100.4C183.4 99.7001 184 99.1001 184.7 99.1001H186.8C187.5 99.1001 188.1 99.7001 188.1 100.4C188.1 101.1 187.5 101.7 186.8 101.7Z" fill="white"/>
<path d="M213.657 96.6244L179.342 116.787L187.346 130.41L221.662 110.247L213.657 96.6244Z" fill="#52DDAE"/>
<path d="M188.8 121.2C188.5 121.2 188.3 121.1 188.2 120.8C188 120.4 188.1 120 188.5 119.8L204.1 110.6C204.5 110.4 204.9 110.5 205.1 110.9C205.3 111.3 205.2 111.7 204.8 111.9L189.2 121.1C189 121.1 188.9 121.2 188.8 121.2Z" fill="white"/>
<path d="M204.8 85.4999L213.2 82.3999L212.2 91.4999L204.8 85.4999Z" fill="white"/>
<path d="M212.8 92.8997L203.2 85.1997L214.1 81.1997L212.8 92.8997ZM206.3 85.6997L211.7 89.9997L212.4 83.3997L206.3 85.6997Z" fill="#52DDAE"/>
<path d="M167.5 166C169.4 154.8 173.6 118.1 147.9 115.4C129.6 113.5 113.5 121.9 112.6 151.8C112.3 160.1 111.9 167.9 111.8 174.9C130.8 173.9 149.4 170.9 167.5 166Z" fill="#1D319D"/>
<path d="M166.7 140.3C166.4 140.3 166.1 140.1 166 139.8L162.8 130.8C162.7 130.4 162.9 130 163.3 129.8C163.7 129.7 164.1 129.9 164.3 130.3L167.5 139.3C167.6 139.7 167.4 140.1 167 140.3C166.9 140.3 166.8 140.3 166.7 140.3Z" fill="white"/>
<path d="M179.3 156H177.7C176.6 156 175.9 154.9 176.3 153.9L177.8 150L179.3 156Z" fill="#1D319D"/>
<path d="M180.3 156.7H177.7C177 156.7 176.3 156.3 175.8 155.7C175.4 155.1 175.3 154.3 175.5 153.6L177.8 147.5L180.3 156.7ZM177.5 152.5L176.9 154.2C176.8 154.4 176.8 154.7 177 154.9C177.1 155.1 177.4 155.2 177.6 155.2H178.3L177.5 152.5Z" fill="white"/>
<path d="M195.7 138.1L189.4 155C189.2 155.6 188.6 156 188 156H179.4L177.8 150.1L178.5 148.2L180.3 143.3L182.6 137.1C182.8 136.5 183.4 136.1 184 136.1H194.3C195.3 136 196 137.1 195.7 138.1Z" fill="#1D319D"/>
<path d="M187.9 156.7H178.7L176.9 150L181.9 136.8C182.2 135.9 183.1 135.3 184 135.3H194.3C195 135.3 195.7 135.7 196.2 136.3C196.6 136.9 196.7 137.7 196.5 138.4L190.2 155.3C189.7 156.1 188.8 156.7 187.9 156.7ZM179.8 155.2H187.9C188.2 155.2 188.5 155 188.6 154.7L195 137.8C195.1 137.6 195.1 137.3 194.9 137.1C194.8 136.9 194.5 136.8 194.3 136.8H184C183.7 136.8 183.4 137 183.3 137.3L178.5 150.1L179.8 155.2Z" fill="white"/>
<path d="M191.7 150.5C196.7 146.5 195.6 141.3 191 144.9C187.8 147.4 182.6 148.8 177.6 149.8L177.3 148.1C177.9 147.7 178.2 147.8 178.4 148.2L180.2 143.3C180 143.2 179.7 143.2 179.5 143.1C172.5 141.5 170 143.7 168.7 151.5C166.8 154.5 152.7 177.3 170.1 171.1C180.2 167.5 182 166.6 185.9 164.6C189.4 162.9 191 156.5 191 156.5C194.3 152.4 191.7 150.5 191.7 150.5Z" fill="white"/>
<path d="M165.1 172.8C163.5 172.8 162.4 172.3 161.6 171.4C158.2 167.2 165.5 155 167.9 151.1C168.7 146.6 169.9 144.1 171.8 142.8C173.6 141.6 176 141.4 179.6 142.3C179.8 142.3 180.1 142.4 180.3 142.5L181.1 142.7L180.8 143.5L178.8 148.7C184.2 147.6 188 146.1 190.3 144.3C193.3 142 194.7 143.2 195 143.7C196.1 145.1 195.4 148 192.5 150.6C192.8 151 193.1 151.5 193.1 152.3C193.3 153.7 192.7 155.2 191.4 156.8C191.1 157.9 189.4 163.5 186 165.3C182 167.3 180.2 168.2 170.1 171.8C168.3 172.4 166.5 172.8 165.1 172.8ZM175.8 143.3C174.5 143.3 173.5 143.6 172.7 144.1C171.1 145.2 170.1 147.4 169.4 151.5V151.6L169.3 151.7C164.6 159.1 160.7 167.8 162.8 170.4C163.7 171.6 166.2 171.5 169.8 170.2C179.9 166.6 181.7 165.7 185.6 163.7C188.8 162.1 190.3 156.1 190.3 156.1V155.9L190.4 155.8C191.5 154.5 192 153.3 191.8 152.3C191.7 151.4 191.1 151 191.1 151L190.3 150.4L191.1 149.8C193.9 147.6 194.4 145.1 193.9 144.5C193.6 144.1 192.7 144.3 191.3 145.4C188.6 147.5 184.1 149.2 177.6 150.4L176.8 150.5L176.3 147.6L176.7 147.3C177.1 147 177.5 146.9 177.8 146.9L179.1 143.6C177.9 143.4 176.8 143.3 175.8 143.3Z" fill="#1D319D"/>
<path d="M120.5 125.2C110.8 135.9 102.4 162.7 108.6 175.9C112.1 183.4 121.6 184.6 134.6 183.6C144.7 182.8 156.8 179.5 170 172.2C170 172.2 165.6 156.9 169 151L135.6 153.1L135.4 124L120.5 125.2Z" fill="#1D319D"/>
<path d="M135.9 154.5C135.5 154.5 135.2 154.2 135.2 153.8C134.6 146.8 134.5 139.7 134.7 132.7C134.7 132.3 135 132 135.5 132C135.9 132 136.2 132.4 136.2 132.8C136 139.8 136.1 146.8 136.7 153.8C136.6 154.1 136.3 154.5 135.9 154.5Z" fill="white"/>
<path d="M133.4 155.2C133 155.2 132.7 154.9 132.7 154.5C132.7 154.1 132.9 153.7 133.4 153.7C144.9 152.3 155.6 151.5 167.1 151C167.5 151 167.9 151.3 167.9 151.7C167.9 152.1 167.6 152.5 167.2 152.5C155.6 153 144.9 153.8 133.4 155.2C133.5 155.2 133.4 155.2 133.4 155.2Z" fill="white"/>
<path d="M164.6 172.5C164.3 172.5 164.1 172.3 163.9 172.1C160.9 165.8 160.3 159 162.1 152.3C162.2 151.9 162.6 151.7 163 151.8C163.4 151.9 163.6 152.3 163.5 152.7C161.8 159 162.3 165.5 165.2 171.5C165.4 171.9 165.2 172.3 164.8 172.5C164.9 172.4 164.7 172.5 164.6 172.5Z" fill="white"/>
<path d="M190.6 150.3C189.2 151.8 187.6 152.9 185.7 153.7C185.1 154 185.6 154.8 186.2 154.6C188.1 153.8 189.8 152.6 191.3 151C191.7 150.6 191 149.8 190.6 150.3Z" fill="#1D319D"/>
<path d="M189.1 157.2L186.5 158.8C186 159.1 186.5 160 187 159.7L189.6 158.1C190.1 157.7 189.6 156.8 189.1 157.2Z" fill="#1D319D"/>
<path d="M176.8 149.8C176.2 149.9 175.7 150 175.1 149.9C174.5 149.8 174.5 150.8 175.1 150.9C175.8 151 176.4 150.9 177.1 150.8C177.7 150.6 177.4 149.7 176.8 149.8Z" fill="#1D319D"/>
<path d="M155.1 90C148.9 86.4 140.6 89 136.5 95.9C136.5 95.9 136.5 95.9 136.5 96C135.8 95.7 135.2 95.4 134.6 95.2C130.4 94.1 127.5 97 128.1 100.4C128.7 103.4 131.2 106.4 134.9 106.8C135.7 110.1 137.6 113 140.4 115C148.7 120.9 154.9 116 159 109.1C163 102.2 161.3 93.6 155.1 90Z" fill="white"/>
<path d="M147.6 118.3C145.1 118.3 142.6 117.4 140 115.5C137.3 113.6 135.3 110.7 134.4 107.4C130.5 106.8 128 103.4 127.4 100.5C127 98.6999 127.6 96.8999 128.9 95.6999C130.4 94.2999 132.5 93.7999 134.8 94.3999C135.3 94.4999 135.8 94.6999 136.3 94.8999C138.4 91.5999 141.4 89.2999 144.9 88.1999C148.6 86.9999 152.4 87.3999 155.6 89.2999C162.1 93.0999 164 102.2 159.7 109.4C156.8 114.4 153.4 117.3 149.7 118.1C149 118.3 148.3 118.3 147.6 118.3ZM132.9 95.6999C131.7 95.6999 130.7 96.0999 129.9 96.7999C129 97.6999 128.6 98.8999 128.9 100.3C129.4 102.9 131.6 105.8 135 106.1H135.5L135.6 106.6C136.4 109.8 138.2 112.5 140.8 114.3C143.8 116.4 146.6 117.2 149.3 116.6C152.6 115.9 155.6 113.2 158.3 108.6C162.1 102.1 160.5 93.9999 154.7 90.4999C151.9 88.7999 148.5 88.4999 145.2 89.5999C141.9 90.6999 139 92.9999 137.1 96.1999L136.7 96.7999L136 96.4999C135.4 96.1999 134.8 95.8999 134.2 95.7999C133.9 95.7999 133.4 95.6999 132.9 95.6999Z" fill="#1D319D"/>
<path d="M150.7 104.681C151.142 104.35 151.232 103.723 150.901 103.281C150.57 102.839 149.943 102.749 149.501 103.08C149.059 103.411 148.969 104.038 149.3 104.48C149.631 104.922 150.258 105.012 150.7 104.681Z" fill="#1D319D"/>
<path d="M154.2 111.2C155.1 109.1 155.6 107 155.9 104.7C156 104.1 155 103.9 154.9 104.6C154.7 106.7 154.1 108.8 153.3 110.8C153 111.4 153.9 111.8 154.2 111.2Z" fill="#1D319D"/>
<path d="M136.9 102C136.5 99.6998 134.5 97.8998 132.2 97.7998C131.6 97.7998 131.4 98.7998 132.1 98.7998C134 98.8998 135.6 100.2 136 102.1C136 102.8 137 102.7 136.9 102Z" fill="#1D319D"/>
<path d="M158.3 97.7999C155.1 97.2999 144.4 91.5999 142.3 98.0999C141.8 99.6999 142 101 140.2 100.9C138.4 100.6 138.8 98.5999 138.8 98.5999C137.2 97.1999 135.7 95.9999 134.3 95.6999C135 88.6999 139.7 85.2999 142.6 86.1999C142.6 86.1999 152.2 75.3999 155.9 82.8999C155.9 82.8999 167.8 77.5999 169.6 88.9999C171.4 100.4 158.3 97.7999 158.3 97.7999Z" fill="#1D319D"/>
</svg>
