<svg xmlns="http://www.w3.org/2000/svg" width="24" height="24" fill="none" viewBox="0 0 24 24"><path stroke="#0029FF" stroke-linecap="round" stroke-linejoin="round" stroke-width="2" d="M18 8.31587C19.6569 8.31587 21 7.07876 21 5.55271C21 4.02666 19.6569 2.78955 18 2.78955C16.3431 2.78955 15 4.02666 15 5.55271C15 7.07876 16.3431 8.31587 18 8.31587Z"/><path stroke="#0029FF" stroke-linecap="round" stroke-linejoin="round" stroke-width="2" d="M6 14.7631C7.65685 14.7631 9 13.526 9 12C9 10.4739 7.65685 9.23682 6 9.23682C4.34315 9.23682 3 10.4739 3 12C3 13.526 4.34315 14.7631 6 14.7631Z"/><path stroke="#0029FF" stroke-linecap="round" stroke-linejoin="round" stroke-width="2" d="M18 21.2105C19.6569 21.2105 21 19.9734 21 18.4474C21 16.9213 19.6569 15.6842 18 15.6842C16.3431 15.6842 15 16.9213 15 18.4474C15 19.9734 16.3431 21.2105 18 21.2105Z"/><path stroke="#0029FF" stroke-linecap="round" stroke-linejoin="round" stroke-width="2" d="M8.59 13.3909L15.42 17.0567"/><path stroke="#0029FF" stroke-linecap="round" stroke-linejoin="round" stroke-width="2" d="M15.41 6.94348L8.59 10.6093"/></svg>